<svg width="126" height="71" viewBox="0 0 126 71" fill="none" xmlns="http://www.w3.org/2000/svg">
<path d="M119.729 22.7434C120.626 23.7299 121.334 24.5487 122.033 25.4069C126.66 31.0298 127.27 38.0832 123.701 44.6137C121.963 47.6492 119.71 50.2884 117.066 52.3871C111.117 57.205 104.37 60.6969 97.2039 62.6663C74.4368 69.256 51.4725 69.5716 28.4454 64.5406C22.3177 63.31 16.4008 61.0404 10.906 57.8128C7.83345 56.0728 5.134 53.6311 2.98823 50.6509C-0.526814 45.5114 -0.903426 40.0561 1.66112 34.3444C3.4764 30.6195 6.01792 27.3821 9.10368 24.8643C14.4617 20.2728 20.4007 16.5673 26.7327 13.8651C49.8136 3.52677 73.6119 1.57354 97.9571 6.79202C104.57 8.08068 110.891 10.7783 116.564 14.7332C117.772 15.5834 118.92 16.5332 119.998 17.5743C122.123 19.6656 122.078 20.3463 119.729 22.7434ZM98.1275 11.9809C98.1275 11.8625 98.1275 11.754 98.1275 11.6356C96.7287 11.3002 95.3477 10.9056 93.9489 10.6492C75.1097 7.02436 55.7602 8.3151 37.4572 14.4175C29.3482 16.961 21.6597 20.9104 14.6811 26.1172C11.9986 28.1285 9.5503 30.4939 7.391 33.1606C2.62058 39.3459 3.14963 45.6298 8.96021 50.6805C11.5493 52.8327 14.3754 54.6159 17.3712 55.9878C23.7198 59.036 30.4809 60.5651 37.3227 61.6009C53.5444 64.1082 70.0218 63.8287 86.1656 60.7722C94.8904 59.1149 103.283 56.2936 110.968 51.302C114.165 49.3692 116.979 46.7532 119.245 43.6075C122.93 38.1818 122.58 32.4405 118.196 27.7153C116.819 26.2455 115.318 24.9242 113.712 23.7694C106.37 18.487 97.7105 15.8622 88.9453 16.2622C87.0354 16.3116 85.1254 16.499 83.2155 16.5779C82.0318 16.6272 81.0724 16.1044 81.0006 14.6937C80.9821 14.4225 81.0147 14.1499 81.0965 13.8932C81.1783 13.6365 81.3075 13.4011 81.4759 13.202C81.6443 13.0028 81.8483 12.8441 82.0752 12.7358C82.302 12.6275 82.5468 12.572 82.794 12.5728C84.6632 12.146 86.5566 11.8593 88.4611 11.7146C91.6803 11.6554 94.8994 11.8921 98.1275 11.9809Z" fill="black"/>
<path d="M38.33 47.06C37.93 47.06 37.58 46.97 37.28 46.79C37 46.61 36.86 46.36 36.86 46.04C37.3 45.6 37.52 44.43 37.52 42.53C37.52 41.39 37.43 39.73 37.25 37.55C37.05 35.47 36.95 33.83 36.95 32.63L37.01 30.98C37.03 30.5 37.04 29.95 37.04 29.33C37.04 28.77 36.94 28.06 36.74 27.2C36.5 26.3 36.38 25.67 36.38 25.31C36.38 24.61 37.15 24.26 38.69 24.26H39.14C40.22 24.26 41.16 24.59 41.96 25.25C42.6 25.81 43.14 26.62 43.58 27.68C43.88 28.4 44.14 29.4 44.36 30.68C44.48 31.8 44.54 32.68 44.54 33.32V34.28V35.69C44.5 35.77 44.48 35.85 44.48 35.93C44.48 36.09 44.49 36.21 44.51 36.29C44.53 36.37 44.54 36.47 44.54 36.59C44.54 37.23 44.44 38 44.24 38.9C44.06 39.78 43.79 40.68 43.43 41.6C42.53 43.8 41.52 45.36 40.4 46.28C39.74 46.8 39.05 47.06 38.33 47.06ZM38.96 45.32C39.7 44.86 40.35 44.2 40.91 43.34C41.47 42.46 41.9 41.49 42.2 40.43C42.74 38.47 43.01 36.49 43.01 34.49C43.01 33.41 42.91 32.23 42.71 30.95C42.49 29.71 42.02 28.59 41.3 27.59C40.96 27.11 40.53 26.74 40.01 26.48C39.49 26.2 38.9 26.06 38.24 26.06V26.09C38.24 27.89 38.36 30.61 38.6 34.25C38.84 37.87 38.96 40.61 38.96 42.47V45.32ZM51.7072 47.57C51.1872 47.57 50.7072 47.4 50.2672 47.06C49.8272 46.74 49.4672 46.3 49.1872 45.74C48.6072 44.52 48.2472 43.19 48.1072 41.75C47.9272 40.39 47.8372 39.08 47.8372 37.82C47.8372 37.58 47.8472 37.38 47.8672 37.22V36.68C47.8672 36.58 47.8572 36.53 47.8372 36.53V35.99L47.8672 33.89C47.8872 33.25 47.9672 32.23 48.1072 30.83C48.2072 29.87 48.4372 28.94 48.7972 28.04C48.9372 27.64 49.1172 27.34 49.3372 27.14C49.5572 26.92 49.8072 26.81 50.0872 26.81C50.8872 26.81 51.6072 26.96 52.2472 27.26C52.8872 27.54 53.4272 27.94 53.8672 28.46C54.2672 28.96 54.6072 29.58 54.8872 30.32C55.1672 31.04 55.3672 31.81 55.4872 32.63C55.6072 33.47 55.6672 34.36 55.6672 35.3V35.54C55.6672 36.16 55.6772 36.72 55.6972 37.22L55.7272 38.93C55.7272 44.69 54.3872 47.57 51.7072 47.57ZM51.5872 46.31C51.9472 46.31 52.2772 46.17 52.5772 45.89C52.8772 45.59 53.1072 45.19 53.2672 44.69C53.6472 43.67 53.8772 42.57 53.9572 41.39C54.0572 40.37 54.1072 39.49 54.1072 38.75C54.1072 37.85 54.0372 36.67 53.8972 35.21C53.7772 33.67 53.7172 32.52 53.7172 31.76V31.22C53.6772 30.46 53.4172 29.8 52.9372 29.24C52.4772 28.68 51.9072 28.4 51.2272 28.4C50.5472 28.4 50.0972 28.79 49.8772 29.57C49.6772 30.19 49.5772 30.99 49.5772 31.97C49.5772 32.35 49.5872 32.67 49.6072 32.93V33.74L49.5472 35.12C49.5072 35.54 49.4872 36 49.4872 36.5C49.4872 37.58 49.5172 38.65 49.5772 39.71C49.6572 41.21 49.8572 42.67 50.1772 44.09C50.4972 45.57 50.9672 46.31 51.5872 46.31ZM67.1977 47.09C66.9577 47.09 66.7777 47.03 66.6577 46.91C66.5377 46.77 66.4477 46.54 66.3877 46.22L66.2077 45.65V45.59V45.5C66.2077 44.84 65.5177 42.59 64.1377 38.75C62.7777 34.91 61.7077 32.07 60.9277 30.23V45.32L61.0477 45.53C61.0677 45.57 61.1077 45.64 61.1677 45.74C61.2277 45.84 61.2577 45.94 61.2577 46.04C61.2577 46.3 61.1677 46.52 60.9877 46.7C60.8077 46.88 60.5877 46.97 60.3277 46.97C59.6877 46.97 59.3677 46.36 59.3677 45.14L59.3377 40.01C59.3177 38.47 59.3077 36.75 59.3077 34.85C59.3077 34.21 59.3377 33.28 59.3977 32.06C59.4577 30.8 59.4877 29.87 59.4877 29.27C59.4877 28.33 59.8477 27.59 60.5677 27.05V27.23C60.6877 27.19 60.7677 27.17 60.8077 27.17C61.2677 27.17 61.8477 27.97 62.5477 29.57C63.1077 30.85 63.6077 32.2 64.0477 33.62C64.5077 35.04 65.1077 37.06 65.8477 39.68L66.1477 40.76C66.6077 42.38 66.9577 43.54 67.1977 44.24C67.5977 39.94 67.7977 34.86 67.7977 29V28.61C67.7777 28.49 67.7677 28.36 67.7677 28.22C67.7677 27.62 68.0077 27.32 68.4877 27.32C68.7677 27.32 68.9777 27.43 69.1177 27.65C69.2777 27.87 69.3577 28.15 69.3577 28.49V30.74C69.3177 33.82 69.1977 37.16 68.9977 40.76C68.7977 44.36 68.5577 46.39 68.2777 46.85C67.6977 47.01 67.3377 47.09 67.1977 47.09ZM79.2732 47.27C78.8132 47.27 78.4732 47.2 78.2532 47.06C78.0332 46.92 77.9232 46.66 77.9232 46.28C77.9232 45.68 77.8232 44.66 77.6232 43.22L77.5032 42.59L74.5332 42.14C74.4132 42.6 74.2432 43.53 74.0232 44.93C73.9032 45.91 73.7132 46.56 73.4532 46.88C73.3132 47.06 73.1132 47.15 72.8532 47.15C72.6132 47.15 72.3932 47.08 72.1932 46.94C71.9932 46.78 71.8932 46.59 71.8932 46.37L71.9532 46.22L71.9832 46.1C73.3032 40.96 74.3032 35.89 74.9832 30.89C74.9832 30.81 74.9932 30.68 75.0132 30.5C75.0332 30.3 75.0532 30.02 75.0732 29.66C75.1332 28.92 75.1932 28.33 75.2532 27.89C75.3332 27.45 75.4532 27.12 75.6132 26.9H76.6332C76.9132 26.9 77.1532 26.97 77.3532 27.11C77.5532 27.23 77.6532 27.41 77.6532 27.65C77.6532 29.17 77.8632 31.43 78.2832 34.43C78.6832 37.51 78.8832 39.67 78.8832 40.91C78.8832 41.03 78.9332 41.34 79.0332 41.84C79.1332 42.3 79.1832 42.6 79.1832 42.74C79.1832 42.88 79.2832 43.48 79.4832 44.54C79.6632 45.5 79.7532 46.12 79.7532 46.4V46.43C79.7532 46.87 79.5932 47.15 79.2732 47.27ZM77.2932 41.51C77.2332 41.21 77.2032 40.84 77.2032 40.4C77.2032 38.6 77.0432 36.3 76.7232 33.5L76.4232 30.38C75.5632 35.08 74.9732 38.63 74.6532 41.03C74.9532 41.23 75.8332 41.39 77.2932 41.51ZM84.008 46.52L83.978 45.35C83.958 45.01 83.948 44.63 83.948 44.21L83.978 43.19C83.918 42.97 83.768 40.78 83.528 36.62C83.288 32.46 83.148 29.79 83.108 28.61C81.948 28.57 81.208 28.45 80.888 28.25C80.668 28.09 80.558 27.91 80.558 27.71C80.558 27.55 80.658 27.41 80.858 27.29C81.078 27.15 81.298 27.08 81.518 27.08C82.078 27.08 82.758 27.12 83.558 27.2C84.318 27.3 84.998 27.35 85.598 27.35H85.838H86.078C86.698 27.35 87.008 27.59 87.008 28.07C87.008 28.31 86.908 28.51 86.708 28.67C86.508 28.81 86.278 28.88 86.018 28.88C85.838 28.88 85.578 28.85 85.238 28.79L84.638 28.67L84.608 28.82L84.578 28.97C84.578 30.75 84.748 33.59 85.088 37.49C85.408 41.15 85.568 43.99 85.568 46.01C85.568 46.25 85.458 46.46 85.238 46.64C85.038 46.82 84.808 46.91 84.548 46.91L84.008 46.52ZM91.3838 47.39C91.1238 47.39 90.8838 47.3 90.6638 47.12C90.4638 46.94 90.3538 46.72 90.3338 46.46V45.68V45.08C90.3138 44.9 90.3038 44.69 90.3038 44.45C90.3038 44.03 90.2738 43.39 90.2138 42.53L90.1538 40.61C90.1538 39.63 90.1838 38.17 90.2438 36.23C90.3238 34.49 90.3638 33.03 90.3638 31.85C90.3638 31.57 90.3338 31.15 90.2738 30.59C90.2138 30.01 90.1838 29.59 90.1838 29.33C90.1838 27.91 90.6038 27.2 91.4438 27.2C92.1038 27.2 92.8638 27.33 93.7238 27.59C94.6038 27.85 95.0438 28.16 95.0438 28.52C95.0438 28.72 94.9538 28.91 94.7738 29.09C94.6138 29.25 94.4138 29.38 94.1738 29.48C93.3338 29.18 92.5738 28.98 91.8938 28.88C91.9138 29.18 91.9238 29.61 91.9238 30.17C91.9238 30.97 91.9138 31.69 91.8938 32.33C91.8338 33.29 91.8038 34.01 91.8038 34.49L91.8938 34.97L92.3738 34.94C92.5338 34.92 92.7338 34.91 92.9738 34.91C93.9338 34.91 94.4138 35.19 94.4138 35.75C94.4138 35.97 94.3238 36.16 94.1438 36.32C93.9638 36.46 93.7338 36.53 93.4538 36.53C93.0938 36.53 92.8138 36.51 92.6138 36.47H91.8638C91.9038 36.99 91.9238 37.75 91.9238 38.75C91.9238 39.75 91.9138 40.65 91.8938 41.45C91.8338 42.67 91.8038 43.58 91.8038 44.18C91.8038 45.3 91.8238 45.86 91.8638 45.86L92.8538 45.83C93.1938 45.81 93.6038 45.8 94.0838 45.8C94.8438 45.8 95.2238 46.04 95.2238 46.52C95.2238 46.8 95.0938 47.01 94.8338 47.15C94.5938 47.31 94.2938 47.39 93.9338 47.39H91.3838Z" fill="black"/>
</svg>
