<svg width="138" height="64" viewBox="0 0 138 64" fill="none" xmlns="http://www.w3.org/2000/svg">
<path d="M18.5 0.0716513C30.5 0.0716847 61.3615 0.0716662 65.5126 0.0716513C67.8378 0.0716429 91.6885 -0.0527341 111.266 0.0262698C127.119 0.0902471 135.258 11.0972 132.644 26.7339L132.065 30.1956C131.608 32.9303 131.703 35.7288 132.345 38.4261L133.355 42.6648C135.382 51.1774 130.301 59.7658 121.864 62.0885C117.443 63.3057 112.713 62.5974 108.843 60.1384L106.443 58.6142C99.5208 54.2165 90.762 53.9034 83.5431 57.7956L82.5619 58.3246C76.031 61.8459 68.1318 61.6848 61.7499 57.9001C55.0906 53.9509 46.8049 53.9587 40.1531 57.9205L35.7403 60.5488C31.9792 62.7889 27.5924 63.7474 23.2398 63.2802C10.9862 61.965 2.75671 50.0802 5.16086 37.9931C5.49575 36.3094 5.82319 34.6012 6.13451 32.8949C6.4335 31.2561 6.54209 29.5903 6.5068 27.9249C6.22328 14.5466 7.20912 0.0716198 18.5 0.0716513Z" fill="#73D88B"/>
<path d="M46.35 44.3C45.97 44.3 45.6 44.03 45.24 43.49V43.4C45.18 42.34 45 41.16 44.7 39.86C44.4 38.56 43.96 36.99 43.38 35.15C42.94 33.77 42.57 32.53 42.27 31.43V43.25C42.27 43.57 42.21 43.81 42.09 43.97C41.99 44.11 41.78 44.18 41.46 44.18C41.22 44.18 41.03 44.11 40.89 43.97C40.75 43.81 40.68 43.61 40.68 43.37V43.13L40.74 34.31C40.78 31.71 40.8 28.78 40.8 25.52V21.83C40.8 21.59 40.85 21.43 40.95 21.35C41.05 21.25 41.26 21.2 41.58 21.2C42.08 21.2 42.54 21.3 42.96 21.5C43.38 21.68 43.74 21.94 44.04 22.28C44.66 22.98 45.06 23.82 45.24 24.8C45.32 25.2 45.36 25.66 45.36 26.18C45.36 26.48 45.33 26.81 45.27 27.17C45.23 27.53 45.2 27.76 45.18 27.86C45.14 28.06 45.05 28.36 44.91 28.76C44.77 29.16 44.68 29.42 44.64 29.54L44.28 30.38L43.98 31.16C44 31.88 44.12 32.79 44.34 33.89C44.58 34.99 44.84 36.01 45.12 36.95C45.32 37.61 45.68 38.71 46.2 40.25L47.07 42.89V42.95C47.07 43.29 47.04 43.58 46.98 43.82C46.92 44.14 46.71 44.3 46.35 44.3ZM42.21 30.08C42.49 29.8 42.83 29.41 43.23 28.91L43.68 26.33C43.7 26.23 43.71 26.09 43.71 25.91C43.71 25.33 43.6 24.66 43.38 23.9C43.26 23.54 43.1 23.24 42.9 23C42.72 22.74 42.53 22.6 42.33 22.58L42.27 25.58C42.21 26.92 42.18 27.96 42.18 28.7C42.18 29.4 42.19 29.86 42.21 30.08ZM50.8819 44.39C50.6219 44.39 50.3819 44.3 50.1619 44.12C49.9619 43.94 49.8519 43.72 49.8319 43.46V42.68V42.08C49.8119 41.9 49.8019 41.69 49.8019 41.45C49.8019 41.03 49.7719 40.39 49.7119 39.53L49.6519 37.61C49.6519 36.63 49.6819 35.17 49.7419 33.23C49.8219 31.49 49.8619 30.03 49.8619 28.85C49.8619 28.57 49.8319 28.15 49.7719 27.59C49.7119 27.01 49.6819 26.59 49.6819 26.33C49.6819 24.91 50.1019 24.2 50.9419 24.2C51.6019 24.2 52.3619 24.33 53.2219 24.59C54.1019 24.85 54.5419 25.16 54.5419 25.52C54.5419 25.72 54.4519 25.91 54.2719 26.09C54.1119 26.25 53.9119 26.38 53.6719 26.48C52.8319 26.18 52.0719 25.98 51.3919 25.88C51.4119 26.18 51.4219 26.61 51.4219 27.17C51.4219 27.97 51.4119 28.69 51.3919 29.33C51.3319 30.29 51.3019 31.01 51.3019 31.49L51.3919 31.97L51.8719 31.94C52.0319 31.92 52.2319 31.91 52.4719 31.91C53.4319 31.91 53.9119 32.19 53.9119 32.75C53.9119 32.97 53.8219 33.16 53.6419 33.32C53.4619 33.46 53.2319 33.53 52.9519 33.53C52.5919 33.53 52.3119 33.51 52.1119 33.47H51.3619C51.4019 33.99 51.4219 34.75 51.4219 35.75C51.4219 36.75 51.4119 37.65 51.3919 38.45C51.3319 39.67 51.3019 40.58 51.3019 41.18C51.3019 42.3 51.3219 42.86 51.3619 42.86L52.3519 42.83C52.6919 42.81 53.1019 42.8 53.5819 42.8C54.3419 42.8 54.7219 43.04 54.7219 43.52C54.7219 43.8 54.5919 44.01 54.3319 44.15C54.0919 44.31 53.7919 44.39 53.4319 44.39H50.8819ZM62.0473 44.42C61.6073 44.42 61.1373 44.35 60.6373 44.21C60.1573 44.09 59.7873 43.95 59.5273 43.79C58.1873 42.93 57.5173 40.58 57.5173 36.74V35.93V35V34.28C57.5173 33.48 57.5273 32.77 57.5473 32.15C57.5673 31.51 57.6073 30.82 57.6673 30.08C57.7273 29.3 57.8173 28.67 57.9373 28.19C58.0573 27.69 58.2573 27.13 58.5373 26.51C58.7773 25.93 59.0673 25.48 59.4073 25.16C59.7673 24.84 60.2273 24.57 60.7873 24.35C61.2873 24.13 61.9073 24.02 62.6473 24.02C62.9473 24.02 63.1773 24.09 63.3373 24.23C63.4973 24.37 63.5773 24.55 63.5773 24.77C63.5773 24.97 63.5073 25.15 63.3673 25.31C63.2473 25.47 63.0973 25.56 62.9173 25.58H61.5073C61.1073 25.58 60.7573 25.83 60.4573 26.33C60.1573 26.83 59.9473 27.48 59.8273 28.28C59.5673 29.76 59.4373 30.96 59.4373 31.88V32.03L59.3773 34.91C59.3373 35.77 59.3173 36.74 59.3173 37.82C59.3173 38.58 59.3473 39.2 59.4073 39.68C59.5073 40.4 59.6773 41 59.9173 41.48C60.1573 42.02 60.5673 42.41 61.1473 42.65C61.4473 42.77 61.7773 42.83 62.1373 42.83C62.3573 42.83 62.5773 42.75 62.7973 42.59C63.0573 42.59 63.2673 42.65 63.4273 42.77C63.6073 42.87 63.6973 43.03 63.6973 43.25C63.6973 44.03 63.1473 44.42 62.0473 44.42ZM68.8662 44.42C68.5262 44.42 68.2462 44.2 68.0262 43.76C68.2462 43.34 68.3562 41.64 68.3562 38.66C68.3562 37.96 68.3062 37.2 68.2062 36.38L68.1162 35.51C68.0562 34.97 68.0262 34.56 68.0262 34.28V33.5C67.8262 33 67.4562 32.07 66.9162 30.71C66.3962 29.35 65.9762 28.21 65.6562 27.29C65.2762 26.23 65.0862 25.51 65.0862 25.13V24.98L65.7762 24.47C66.1162 24.51 66.4762 24.95 66.8562 25.79C67.1762 26.53 67.5262 27.59 67.9062 28.97C68.3062 30.35 68.5062 31.08 68.5062 31.16C68.5862 30.94 68.7462 30.19 68.9862 28.91C69.2262 27.63 69.4962 26.5 69.7962 25.52C70.1362 24.54 70.4862 24.05 70.8462 24.05C71.0462 24.05 71.2162 24.11 71.3562 24.23C71.5162 24.35 71.5962 24.5 71.5962 24.68C71.5962 25.7 71.3162 27.14 70.7562 29C70.1562 31.02 69.8562 32.48 69.8562 33.38V42.41C69.8562 43.75 69.5262 44.42 68.8662 44.42ZM78.9223 44.42C78.4823 44.42 78.0123 44.35 77.5123 44.21C77.0323 44.09 76.6623 43.95 76.4023 43.79C75.0623 42.93 74.3923 40.58 74.3923 36.74V35.93V35V34.28C74.3923 33.48 74.4023 32.77 74.4223 32.15C74.4423 31.51 74.4823 30.82 74.5423 30.08C74.6023 29.3 74.6923 28.67 74.8123 28.19C74.9323 27.69 75.1323 27.13 75.4123 26.51C75.6523 25.93 75.9423 25.48 76.2823 25.16C76.6423 24.84 77.1023 24.57 77.6623 24.35C78.1623 24.13 78.7823 24.02 79.5223 24.02C79.8223 24.02 80.0523 24.09 80.2123 24.23C80.3723 24.37 80.4523 24.55 80.4523 24.77C80.4523 24.97 80.3823 25.15 80.2423 25.31C80.1223 25.47 79.9723 25.56 79.7923 25.58H78.3823C77.9823 25.58 77.6323 25.83 77.3323 26.33C77.0323 26.83 76.8223 27.48 76.7023 28.28C76.4423 29.76 76.3123 30.96 76.3123 31.88V32.03L76.2523 34.91C76.2123 35.77 76.1923 36.74 76.1923 37.82C76.1923 38.58 76.2223 39.2 76.2823 39.68C76.3823 40.4 76.5523 41 76.7923 41.48C77.0323 42.02 77.4423 42.41 78.0223 42.65C78.3223 42.77 78.6523 42.83 79.0123 42.83C79.2323 42.83 79.4523 42.75 79.6723 42.59C79.9323 42.59 80.1423 42.65 80.3023 42.77C80.4823 42.87 80.5723 43.03 80.5723 43.25C80.5723 44.03 80.0223 44.42 78.9223 44.42ZM87.9012 44.48C87.1812 44.24 86.2912 44.12 85.2312 44.12C84.9112 44.32 84.5712 44.42 84.2112 44.42C83.9712 44.42 83.7612 44.31 83.5812 44.09C83.4212 43.89 83.3412 43.67 83.3412 43.43C83.3412 41.75 83.4112 39.51 83.5512 36.71C83.6712 33.73 83.7312 31.5 83.7312 30.02V29.81C83.6112 28.55 83.5512 27.61 83.5512 26.99C83.5512 25.09 83.9012 24.14 84.6012 24.14C84.8012 24.14 84.9712 24.22 85.1112 24.38C85.2712 24.52 85.3512 24.69 85.3512 24.89C85.3512 25.13 85.3212 25.51 85.2612 26.03C85.2012 26.53 85.1712 26.91 85.1712 27.17C85.1712 28.51 85.1812 29.72 85.2012 30.8C85.2212 31.86 85.2312 33.06 85.2312 34.4C85.1312 34.7 85.0812 35.12 85.0812 35.66V36.02L85.0212 38.39C84.9812 39.09 84.9612 39.89 84.9612 40.79C84.9612 42.17 85.2912 42.86 85.9512 42.86C85.9912 42.86 86.0512 42.86 86.1312 42.86C86.2312 42.84 86.3612 42.83 86.5212 42.83C86.7012 42.81 86.9312 42.8 87.2112 42.8C88.2912 42.8 88.8312 43.1 88.8312 43.7C88.8312 43.9 88.7412 44.07 88.5612 44.21C88.3812 44.35 88.1612 44.44 87.9012 44.48ZM92.6885 44.39C92.4285 44.39 92.1885 44.3 91.9685 44.12C91.7685 43.94 91.6585 43.72 91.6385 43.46V42.68V42.08C91.6185 41.9 91.6085 41.69 91.6085 41.45C91.6085 41.03 91.5785 40.39 91.5185 39.53L91.4585 37.61C91.4585 36.63 91.4885 35.17 91.5485 33.23C91.6285 31.49 91.6685 30.03 91.6685 28.85C91.6685 28.57 91.6385 28.15 91.5785 27.59C91.5185 27.01 91.4885 26.59 91.4885 26.33C91.4885 24.91 91.9085 24.2 92.7485 24.2C93.4085 24.2 94.1685 24.33 95.0285 24.59C95.9085 24.85 96.3485 25.16 96.3485 25.52C96.3485 25.72 96.2585 25.91 96.0785 26.09C95.9185 26.25 95.7185 26.38 95.4785 26.48C94.6385 26.18 93.8785 25.98 93.1985 25.88C93.2185 26.18 93.2285 26.61 93.2285 27.17C93.2285 27.97 93.2185 28.69 93.1985 29.33C93.1385 30.29 93.1085 31.01 93.1085 31.49L93.1985 31.97L93.6785 31.94C93.8385 31.92 94.0385 31.91 94.2785 31.91C95.2385 31.91 95.7185 32.19 95.7185 32.75C95.7185 32.97 95.6285 33.16 95.4485 33.32C95.2685 33.46 95.0385 33.53 94.7585 33.53C94.3985 33.53 94.1185 33.51 93.9185 33.47H93.1685C93.2085 33.99 93.2285 34.75 93.2285 35.75C93.2285 36.75 93.2185 37.65 93.1985 38.45C93.1385 39.67 93.1085 40.58 93.1085 41.18C93.1085 42.3 93.1285 42.86 93.1685 42.86L94.1585 42.83C94.4985 42.81 94.9085 42.8 95.3885 42.8C96.1485 42.8 96.5285 43.04 96.5285 43.52C96.5285 43.8 96.3985 44.01 96.1385 44.15C95.8985 44.31 95.5985 44.39 95.2385 44.39H92.6885Z" fill="white"/>
</svg>
