<svg width="141" height="67" viewBox="0 0 141 67" fill="none" xmlns="http://www.w3.org/2000/svg">
<g clip-path="url(#clip0_143_568)">
<path d="M133.53 19.3904C134.53 20.4109 135.32 21.258 136.1 22.1459C141.26 27.963 141.94 35.2599 137.96 42.0159C136.022 45.1562 133.509 47.8865 130.56 50.0578C123.926 55.042 116.402 58.6544 108.41 60.6918C83.0198 67.5091 57.4098 67.8356 31.7298 62.6309C24.8962 61.3578 18.2976 59.0098 12.1698 55.6707C8.74325 53.8707 5.7328 51.3446 3.33982 48.2616C-0.580183 42.9446 -1.00018 37.3009 1.85982 31.392C3.88423 27.5384 6.71855 24.1893 10.1598 21.5846C16.1351 16.8345 22.7584 13.001 29.8198 10.2055C55.5598 -0.489814 82.0998 -2.51049 109.25 2.88819C116.625 4.22134 123.673 7.01207 130 11.1036C131.347 11.9832 132.628 12.9657 133.83 14.0427C136.2 16.2063 136.15 16.9105 133.53 19.3904ZM109.44 8.25625C109.44 8.13379 109.44 8.02153 109.44 7.89906C107.88 7.55208 106.34 7.14386 104.78 6.87852C83.7703 3.12855 62.1915 4.46386 41.7798 10.777C32.7367 13.4083 24.1624 17.4941 16.3798 22.8807C13.3883 24.9614 10.6579 27.4085 8.24982 30.1673C2.92982 36.5662 3.51982 43.067 9.99982 48.2922C12.8872 50.5186 16.0388 52.3635 19.3798 53.7827C26.4598 56.9362 33.9998 58.5181 41.6298 59.5896C59.7205 62.1836 78.0962 61.8944 96.0998 58.7324C105.83 57.0179 115.19 54.0991 123.76 48.9352C127.325 46.9356 130.463 44.2293 132.99 40.9749C137.1 35.3619 136.71 29.4223 131.82 24.5339C130.285 23.0134 128.61 21.6464 126.82 20.4518C118.632 14.987 108.975 12.2715 99.1998 12.6854C97.0698 12.7364 94.9398 12.9303 92.8098 13.012C91.4898 13.063 90.4198 12.5221 90.3398 11.0627C90.3192 10.7821 90.3556 10.5002 90.4468 10.2346C90.538 9.96899 90.682 9.72552 90.8698 9.51947C91.0577 9.31341 91.2852 9.14922 91.5382 9.03721C91.7911 8.9252 92.0641 8.86779 92.3398 8.86858C94.4244 8.42704 96.5359 8.1304 98.6598 7.98071C102.25 7.91947 105.84 8.1644 109.44 8.25625Z" fill="black"/>
<path d="M30.468 47C30.276 47 30.108 46.94 29.964 46.82C29.844 46.7 29.784 46.556 29.784 46.388V41.672C29.784 41.384 29.172 41.12 27.948 40.88C26.724 40.64 25.716 40.52 24.924 40.52C24.876 40.52 24.792 40.7 24.672 41.06C24.576 41.42 24.504 41.684 24.456 41.852C24.144 43.1 23.832 44.432 23.52 45.848L23.34 46.64C23.292 46.832 23.172 46.928 22.98 46.928C22.788 46.928 22.608 46.868 22.44 46.748C22.296 46.628 22.224 46.484 22.224 46.316L22.26 46.244V46.208L22.656 44.408C22.944 43.28 23.196 42.176 23.412 41.096C23.652 39.872 23.832 39.08 23.952 38.72C24.144 37.928 24.528 35.948 25.104 32.78L25.32 31.592C25.944 27.896 26.376 25.568 26.616 24.608C26.736 24.032 26.952 23.18 27.264 22.052C27.384 21.572 27.552 21.092 27.768 20.612C27.984 20.204 28.164 20 28.308 20C28.692 20 28.968 20.12 29.136 20.36C29.256 20.576 29.436 21.764 29.676 23.924C29.94 26.084 30.168 28.268 30.36 30.476L30.828 36.452C30.828 37.484 30.9 39.044 31.044 41.132C31.188 43.244 31.26 44.816 31.26 45.848V45.992C31.26 46.256 31.224 46.496 31.152 46.712C31.056 46.904 30.828 47 30.468 47ZM29.028 40.052C29.508 40.052 29.748 39.932 29.748 39.692C29.748 38.204 29.664 36.176 29.496 33.608C29.328 31.016 29.148 28.736 28.956 26.768C28.908 25.928 28.812 25.004 28.668 23.996L28.524 22.592C28.524 22.616 28.5 22.484 28.452 22.196L28.38 21.764C28.188 22.292 27.996 23.024 27.804 23.96C27.636 24.896 27.456 26 27.264 27.272C26.688 30.848 26.196 33.536 25.788 35.336L25.464 36.56C25.104 37.76 24.924 38.672 24.924 39.296V39.512C25.98 39.848 27.192 40.016 28.56 40.016H28.776C28.848 40.04 28.932 40.052 29.028 40.052ZM36.7874 47.432C36.5234 45.92 36.3914 44.192 36.3914 42.248C36.3914 41.48 36.4274 40.364 36.4994 38.9L36.5714 35.552C36.4034 35.216 36.3194 34.94 36.3194 34.724C36.5594 34.34 36.6794 33.236 36.6794 31.412C36.6794 27.044 36.6194 24.716 36.4994 24.428C36.7154 23.828 36.8834 23.528 37.0034 23.528H38.5874C38.8514 23.528 39.2234 23.66 39.7034 23.924C40.2074 24.164 40.6274 24.428 40.9634 24.716C41.5634 25.268 41.8634 26.684 41.8634 28.964C41.8634 30.188 41.8274 31.124 41.7554 31.772C41.7074 32.228 41.6234 32.588 41.5034 32.852C41.4074 33.116 41.2514 33.416 41.0354 33.752C40.6754 34.304 40.0634 34.784 39.1994 35.192C38.8394 35.384 38.3354 35.576 37.6874 35.768V40.052C37.6874 40.652 37.7474 41.828 37.8674 43.58L37.9394 44.732L38.0114 47.072C38.0114 47.504 37.7834 47.72 37.3274 47.72L36.7874 47.432ZM37.9394 34.544C38.6354 34.544 39.2234 34.22 39.7034 33.572C39.8714 33.332 40.0274 33.008 40.1714 32.6C40.3154 32.192 40.4114 31.796 40.4594 31.412C40.6034 30.716 40.6754 29.912 40.6754 29V28.028C40.6754 27.692 40.6634 27.368 40.6394 27.056C40.6154 26.744 40.5674 26.444 40.4954 26.156C40.3994 25.844 40.2674 25.592 40.0994 25.4C39.9554 25.184 39.7514 25.004 39.4874 24.86C39.1994 24.716 38.8514 24.644 38.4434 24.644C38.1554 24.644 37.9514 24.716 37.8314 24.86C37.7114 25.004 37.6514 25.256 37.6514 25.616C37.6514 26.192 37.6874 27.056 37.7594 28.208L37.8314 30.8C37.8314 31.424 37.8074 31.988 37.7594 32.492L37.6874 34.184L37.9394 34.544ZM46.2444 47.432C45.9804 45.92 45.8484 44.192 45.8484 42.248C45.8484 41.48 45.8844 40.364 45.9564 38.9L46.0284 35.552C45.8604 35.216 45.7764 34.94 45.7764 34.724C46.0164 34.34 46.1364 33.236 46.1364 31.412C46.1364 27.044 46.0764 24.716 45.9564 24.428C46.1724 23.828 46.3404 23.528 46.4604 23.528H48.0444C48.3084 23.528 48.6804 23.66 49.1604 23.924C49.6644 24.164 50.0844 24.428 50.4204 24.716C51.0204 25.268 51.3204 26.684 51.3204 28.964C51.3204 30.188 51.2844 31.124 51.2124 31.772C51.1644 32.228 51.0804 32.588 50.9604 32.852C50.8644 33.116 50.7084 33.416 50.4924 33.752C50.1324 34.304 49.5204 34.784 48.6564 35.192C48.2964 35.384 47.7924 35.576 47.1444 35.768V40.052C47.1444 40.652 47.2044 41.828 47.3244 43.58L47.3964 44.732L47.4684 47.072C47.4684 47.504 47.2404 47.72 46.7844 47.72L46.2444 47.432ZM47.3964 34.544C48.0924 34.544 48.6804 34.22 49.1604 33.572C49.3284 33.332 49.4844 33.008 49.6284 32.6C49.7724 32.192 49.8684 31.796 49.9164 31.412C50.0604 30.716 50.1324 29.912 50.1324 29V28.028C50.1324 27.692 50.1204 27.368 50.0964 27.056C50.0724 26.744 50.0244 26.444 49.9524 26.156C49.8564 25.844 49.7244 25.592 49.5564 25.4C49.4124 25.184 49.2084 25.004 48.9444 24.86C48.6564 24.716 48.3084 24.644 47.9004 24.644C47.6124 24.644 47.4084 24.716 47.2884 24.86C47.1684 25.004 47.1084 25.256 47.1084 25.616C47.1084 26.192 47.1444 27.056 47.2164 28.208L47.2884 30.8C47.2884 31.424 47.2644 31.988 47.2164 32.492L47.1444 34.184L47.3964 34.544ZM55.8455 47.468C55.5095 47.468 55.3055 47.192 55.2335 46.64C55.2815 46.496 55.3055 46.1 55.3055 45.452C55.3055 43.244 55.3415 39.968 55.4135 35.624C55.4855 31.304 55.5215 28.184 55.5215 26.264L55.5935 24.968L55.7015 23.888C55.7015 23.72 55.7855 23.636 55.9535 23.636C56.0735 23.636 56.2415 23.672 56.4575 23.744L56.5655 23.78C56.5655 24.308 56.5535 24.788 56.5295 25.22V26.624V30.548C56.5535 31.7 56.5655 33.008 56.5655 34.472C56.5415 34.592 56.5295 34.856 56.5295 35.264L56.4935 36.02C56.4695 36.5 56.4575 36.992 56.4575 37.496C56.4575 38.048 56.4695 38.552 56.4935 39.008L56.5295 40.556L56.4215 40.844L56.4575 40.808C56.4575 40.88 56.4455 40.928 56.4215 40.952V41.096C56.4215 41.288 56.4575 41.456 56.5295 41.6L56.4215 45.056V45.272C56.4215 45.68 56.4335 45.92 56.4575 45.992C56.4575 46.112 56.5175 46.172 56.6375 46.172L58.5095 46.244C59.0615 46.244 59.4335 46.256 59.6255 46.28C59.8415 46.28 59.9735 46.28 60.0215 46.28H60.1295C60.2495 46.28 60.3695 46.352 60.4895 46.496C60.6095 46.616 60.6695 46.748 60.6695 46.892C60.6695 47.18 60.4775 47.336 60.0935 47.36C59.6855 47.336 58.6895 47.324 57.1055 47.324L57.1775 47.36C56.9375 47.36 56.7095 47.372 56.4935 47.396C56.3015 47.444 56.0855 47.468 55.8455 47.468ZM66.5383 47.54C66.4663 47.54 66.3703 47.492 66.2503 47.396C66.1303 47.3 66.0583 47.216 66.0343 47.144C66.2503 46.568 66.3583 44.468 66.3583 40.844C66.3583 40.148 66.3223 39.152 66.2503 37.856L66.0703 35.3L65.8543 34.832L65.9623 34.4C65.8183 34.064 65.6023 33.5 65.3143 32.708C65.0263 31.916 64.7383 31.112 64.4503 30.296C63.5863 28.016 63.0223 26.372 62.7583 25.364C62.6143 24.884 62.5063 24.44 62.4343 24.032L62.9383 23.636C63.1783 23.684 63.5263 24.452 63.9823 25.94C64.3423 26.996 64.6663 28.04 64.9543 29.072L65.3863 30.44C65.8183 31.928 66.1303 32.696 66.3223 32.744L66.4663 32.096L66.3943 31.916C66.5863 31.676 66.8263 30.824 67.1143 29.36C67.4263 27.68 67.7263 26.264 68.0143 25.112C68.3263 23.768 68.6383 23.096 68.9503 23.096C69.0703 23.096 69.1783 23.132 69.2743 23.204C69.3703 23.276 69.4183 23.36 69.4183 23.456C69.4183 23.816 69.0583 25.232 68.3383 27.704C67.9783 28.88 67.6783 29.984 67.4383 31.016C67.1503 32.24 67.0063 33.332 67.0063 34.292C67.1263 34.532 67.1863 34.736 67.1863 34.904C67.1863 35.024 67.1503 35.192 67.0783 35.408C67.0063 35.624 66.9703 35.804 66.9703 35.948C66.9703 36.068 67.0183 36.608 67.1143 37.568C67.2103 38.216 67.2583 38.768 67.2583 39.224C67.2583 40.28 67.2703 41.228 67.2943 42.068V44.948V45.092C67.2943 46.724 67.0423 47.54 66.5383 47.54ZM89.0923 47.144C88.9003 47.144 88.7563 47.072 88.6603 46.928C88.5883 46.784 88.5163 46.568 88.4443 46.28C88.4203 46.088 88.3723 45.92 88.3003 45.776L88.3363 45.668C88.1443 44.54 87.7363 43.16 87.1123 41.528L86.4643 39.656C86.4163 39.608 86.1883 38.996 85.7803 37.82L85.4923 36.956C83.3323 30.284 81.9763 26.672 81.4243 26.12C81.2323 26.768 81.1363 27.608 81.1363 28.64C81.1363 29.192 81.1483 29.672 81.1723 30.08L81.2083 31.484L81.1723 32.348C81.1483 32.612 81.1363 32.9 81.1363 33.212C81.1363 33.74 81.1603 34.196 81.2083 34.58C81.2563 35.348 81.2803 35.732 81.2803 35.732H81.1723C81.1723 39.74 81.2563 41.948 81.4243 42.356V45.596C81.5203 45.788 81.5683 46.04 81.5683 46.352C81.5683 46.544 81.4963 46.712 81.3523 46.856C81.2323 47 81.0763 47.072 80.8843 47.072C80.3803 47.072 80.1283 46.424 80.1283 45.128L80.2003 43.976C80.2483 43.616 80.2723 43.22 80.2723 42.788C80.2723 41.636 80.2363 39.908 80.1643 37.604C80.0923 35.3 80.0563 33.572 80.0563 32.42C80.0563 31.724 80.0923 30.656 80.1643 29.216C80.2363 27.8 80.2723 26.744 80.2723 26.048V25.58C80.2723 24.404 80.4883 23.636 80.9203 23.276L81.0283 23.384L81.3883 23.312C81.4843 23.336 81.5923 23.408 81.7123 23.528C81.8083 23.624 81.8563 23.732 81.8563 23.852L81.9283 24.068C81.9283 24.116 81.9283 24.164 81.9283 24.212C81.9523 24.236 81.9643 24.248 81.9643 24.248C82.3483 25.952 83.2123 28.34 84.5563 31.412C85.9243 34.652 86.7763 36.8 87.1123 37.856C87.3523 38.696 87.5443 39.44 87.6883 40.088C88.1443 42.128 88.6843 43.7 89.3083 44.804L89.3803 44.696C89.9323 39.368 90.2083 32.828 90.2083 25.076L90.1723 24.644C90.1483 24.524 90.1363 24.368 90.1363 24.176C90.1363 23.672 90.3043 23.42 90.6403 23.42C90.8563 23.42 91.0363 23.528 91.1803 23.744C91.3483 23.96 91.4323 24.2 91.4323 24.464V26.876L91.2523 27.164C91.2523 29.444 91.1203 33.188 90.8563 38.396C90.5923 43.604 90.3403 46.436 90.1003 46.892L89.4883 47.036V47.072L89.4523 47.036L89.0923 47.144ZM100.215 47.684C97.4069 47.684 96.0029 43.268 96.0029 34.436V33.176C96.0029 26.48 96.8669 23.132 98.5949 23.132C98.7149 23.132 98.8829 23.168 99.0989 23.24C99.8669 23.504 100.623 23.672 101.367 23.744C101.823 23.84 102.279 24.308 102.735 25.148C103.239 26.012 103.611 27.152 103.851 28.568C104.115 29.984 104.247 31.436 104.247 32.924L104.175 33.104C104.175 33.896 104.187 34.604 104.211 35.228L104.247 37.388C104.247 38.612 104.199 39.716 104.103 40.7C103.959 42.188 103.719 43.472 103.383 44.552C103.167 45.2 102.915 45.74 102.627 46.172C102.363 46.604 102.027 46.964 101.619 47.252C101.235 47.54 100.767 47.684 100.215 47.684ZM100.071 46.64C101.007 46.64 101.703 45.98 102.159 44.66C102.615 43.316 102.891 41.948 102.987 40.556C103.083 39.116 103.131 37.964 103.131 37.1C103.131 36.14 103.059 34.724 102.915 32.852C102.795 30.764 102.735 29.348 102.735 28.604L102.591 28.316L102.663 28.136C102.663 27.08 102.363 26.168 101.763 25.4C101.187 24.632 100.479 24.248 99.6389 24.248C98.5349 24.248 97.8749 24.776 97.6589 25.832C97.6109 26.192 97.5629 26.708 97.5149 27.38C97.5149 29.156 97.4429 30.368 97.2989 31.016C97.2989 31.376 97.2629 31.94 97.1909 32.708L97.1189 34.4C97.1189 34.928 97.1309 35.396 97.1549 35.804L97.1909 37.244C97.1909 38.372 97.2869 39.668 97.4789 41.132C97.6229 42.212 97.7909 43.124 97.9829 43.868C98.1749 44.612 98.4509 45.248 98.8109 45.776C99.1709 46.352 99.5909 46.64 100.071 46.64ZM116.692 48.188C116.428 48.188 116.26 48.044 116.188 47.756C116.116 47.468 116.08 47.192 116.08 46.928V46.604C115.984 45.644 115.852 44.744 115.684 43.904C115.468 42.728 115.324 41.816 115.252 41.168C115.18 40.52 115.072 39.344 114.928 37.64C114.712 34.952 114.508 32.912 114.316 31.52C114.1 29.744 113.872 28.736 113.632 28.496L113.416 30.44C113.296 31.592 113.236 32.408 113.236 32.888C113.236 33.896 113.188 34.904 113.092 35.912C112.996 36.92 112.828 38.204 112.588 39.764L112.156 42.752C112.132 42.8 112.108 42.896 112.084 43.04C112.084 43.16 112.072 43.316 112.048 43.508C112 44.18 111.868 45.068 111.652 46.172C111.58 46.652 111.472 47.036 111.328 47.324C111.232 47.612 111.088 47.756 110.896 47.756C110.56 47.756 110.284 47.216 110.068 46.136C109.9 45.176 109.744 43.652 109.6 41.564C109.528 40.244 109.468 39.26 109.42 38.612C109.372 37.964 109.276 37.196 109.132 36.308L108.988 35.192C108.796 33.896 108.676 32.972 108.628 32.42C108.58 31.868 108.532 31.064 108.484 30.008C108.46 29.216 108.424 28.508 108.376 27.884C108.328 27.236 108.244 26.564 108.124 25.868C108.028 25.268 107.872 24.632 107.656 23.96C107.752 23.768 107.944 23.672 108.232 23.672C108.52 23.672 108.724 23.948 108.844 24.5C108.868 24.596 108.904 25.076 108.952 25.94V26.408C108.976 26.912 109.252 29.288 109.78 33.536C110.26 37.376 110.536 40.508 110.608 42.932C110.704 43.148 110.764 43.472 110.788 43.904C110.836 44.384 110.896 44.708 110.968 44.876H111.004L111.58 41.096C111.58 40.76 111.652 40.184 111.796 39.368C111.964 38.096 112.108 36.848 112.228 35.624C112.348 34.16 112.42 32.888 112.444 31.808C112.516 30.08 112.6 28.928 112.696 28.352L112.804 27.452C112.9 26.54 112.948 26.096 112.948 26.12L113.596 25.832C113.764 25.832 113.908 25.88 114.028 25.976C114.148 26.072 114.208 26.192 114.208 26.336C114.208 26.408 114.172 26.504 114.1 26.624C115.06 29.864 115.708 33.74 116.044 38.252L116.116 39.584C116.14 40.664 116.224 41.588 116.368 42.356C116.512 42.98 116.644 43.436 116.764 43.724C117.052 42.908 117.292 40.916 117.484 37.748C117.676 34.58 117.772 31.832 117.772 29.504C117.772 29.072 117.856 28.148 118.024 26.732C118.192 25.556 118.276 24.62 118.276 23.924C118.276 23.708 118.228 23.504 118.132 23.312C118.132 22.928 118.372 22.736 118.852 22.736C119.044 22.736 119.164 22.76 119.212 22.808C119.284 22.856 119.32 22.976 119.32 23.168C119.32 23.84 119.26 24.356 119.14 24.716L119.212 24.932C119.02 25.964 118.924 27.092 118.924 28.316C118.924 28.532 118.948 28.664 118.996 28.712L118.78 29.432L118.888 29.684C118.816 29.828 118.78 29.972 118.78 30.116L118.888 30.8L118.78 30.944C118.78 31.784 118.684 33.656 118.492 36.56C118.3 39.464 118.156 41.312 118.06 42.104L117.844 43.076C117.7 43.58 117.628 43.976 117.628 44.264C117.628 45.032 117.592 45.764 117.52 46.46C117.496 46.94 117.4 47.36 117.232 47.72C117.064 48.032 116.884 48.188 116.692 48.188ZM116.8 43.904L116.764 43.868V43.904H116.8Z" fill="black"/>
</g>
<defs>
<clipPath id="clip0_143_568">
<rect width="140.53" height="66.1925" fill="white"/>
</clipPath>
</defs>
</svg>
