<svg width="22" height="20" viewBox="0 0 22 20" fill="none" xmlns="http://www.w3.org/2000/svg">
<path d="M10.7483 20C16.6845 20 21.4966 15.5229 21.4966 10C21.4966 4.4771 16.6845 0 10.7483 0C4.81212 0 0 4.4771 0 10C0 15.5229 4.81212 20 10.7483 20Z" fill="#EDEDED"/>
<path d="M13.9804 5.51139L11.7397 8.60767C11.5852 8.81942 11.8814 9.07511 12.096 8.89533L14.3023 7.10947C14.3624 7.06552 14.444 7.09748 14.444 7.17739V12.7627C14.444 12.8386 14.3367 12.8746 14.2894 12.8186L7.61898 5.37954C7.40435 5.13584 7.0953 5.004 6.74761 5.004H6.50723C5.88912 5.004 5.37402 5.48342 5.37402 6.07072V13.9333C5.37402 14.5206 5.88483 15 6.52011 15C6.91501 15 7.28416 14.8122 7.49879 14.4886L9.73945 11.3923C9.89398 11.1806 9.5978 10.9249 9.38317 11.1047L7.17685 12.8746C7.11676 12.9185 7.0352 12.8865 7.0352 12.8066V7.23332C7.0352 7.15741 7.14251 7.12145 7.18973 7.17739L13.8645 14.6165C14.0791 14.8602 14.401 14.996 14.7359 14.996H14.9762C15.6072 14.996 16.1223 14.5166 16.1223 13.9293V6.06672C16.1223 5.47942 15.6115 5 14.9762 5C14.5642 5 14.195 5.19177 13.9804 5.51139Z" fill="black"/>
</svg>
