<svg width="330" height="329" viewBox="0 0 330 329" fill="none" xmlns="http://www.w3.org/2000/svg">
<path d="M181.567 323.981C180.499 318.056 179.466 312.131 178.358 306.212C177.202 300.022 175.947 293.852 174.805 287.657C174.421 285.565 174.313 283.425 173.954 281.323C173.27 277.081 172.433 272.863 171.808 268.611C171.109 263.853 170.632 259.066 169.953 254.308C169.372 250.235 168.865 246.113 167.901 242.131C166.986 238.318 167.207 234.645 167.665 230.813C168.309 225.375 168.383 219.87 168.683 214.731C165.347 214.013 162.256 213.767 159.53 212.653C156.385 211.371 155.101 208.58 156.139 205.422L150.327 204.651C150.327 207.606 150.327 210.624 150.327 213.641C150.324 214.521 150.267 215.4 150.155 216.274C149.722 219.561 149.402 219.759 145.987 219.899C143.472 220 140.967 220.294 138.295 220.516C138.787 221.673 139.245 222.685 139.722 223.76C135.904 225.023 134.176 221.952 131.745 220.752C129.934 219.855 128.542 218.178 126.898 216.924C125.023 215.478 124.998 214.543 126.731 213.015C128.62 211.352 130.264 209.53 129.983 206.748C129.792 204.858 128.3 203.195 126.381 203.374C123.96 203.51 121.566 203.952 119.26 204.69C118.069 205.119 116.839 206.517 116.406 207.741C114.438 213.352 115.053 218.631 118.557 223.712C121.199 227.534 123.286 231.728 125.545 235.802C127.336 239.032 129.368 242.194 130.667 245.612C133.748 253.483 135.239 261.865 135.057 270.293C134.89 276.44 135.589 282.605 135.584 288.761C135.584 293.789 134.983 298.817 134.875 303.85C134.718 310.555 134.816 317.265 134.816 323.981H130.879C130.879 317.714 130.781 311.408 130.943 305.127C131.125 298.258 131.883 291.393 131.799 284.533C131.676 274.116 131.981 263.626 129.462 253.392C128.522 249.574 127.518 245.679 125.82 242.165C123.891 238.154 121.13 234.529 118.773 230.711C116.918 227.708 115.205 224.618 113.261 221.668C112.634 220.77 111.728 220.093 110.678 219.74C107.233 218.674 103.517 218.293 100.309 216.789C95.4419 214.533 93.4193 209.804 94.1427 204.579C94.731 200.482 95.9854 196.505 97.8582 192.797C102.002 184.457 105.781 175.915 109.866 167.508C110.653 165.888 109.999 165.58 108.719 164.881C106.583 163.723 104.544 162.399 102.622 160.923C101.082 159.761 101.529 158.513 103.114 157.761C109.064 154.941 115.053 152.193 121.012 149.392C124.142 147.946 127.193 146.283 130.392 144.981C131.376 144.567 132.572 143.916 133.443 143.887C134.314 143.858 135.702 145.174 136.007 146.153C137.227 150.106 138.005 154.184 139.152 158.156C140.495 162.832 142.07 167.441 143.502 172.088C143.654 172.57 143.748 173.462 143.502 173.621C142.957 173.925 142.313 174.009 141.706 173.857C139.737 173.303 137.838 172.579 135.889 171.987C135.242 171.842 134.583 171.751 133.92 171.717L131.814 178.118C134.403 179.696 136.676 181.077 138.635 182.259C141.095 181.695 143.684 180.476 146.09 180.736C148.389 180.982 150.519 182.77 152.926 183.985C156.799 180.832 158.62 181.618 162.552 184.708C163.944 185.802 164.604 188.058 165.091 189.91C165.475 191.356 165.75 191.954 167.428 191.722C168.413 191.592 169.456 192.228 170.76 192.599C172.729 189.129 174.638 185.532 176.803 182.1C178.683 179.121 180.834 176.315 182.955 173.481C183.358 172.941 184.461 172.232 184.736 172.401C185.602 172.922 186.749 173.761 186.862 174.599C187.477 179.203 187.812 183.84 188.245 188.463C188.274 188.777 188.279 189.09 188.299 189.384C191.503 189.384 194.697 189.64 197.782 189.307C200.415 189.032 202.994 188.145 205.562 187.408C206.896 187.022 207.723 186.482 207.098 184.621C205.395 179.56 203.993 174.402 202.585 169.253C201.675 165.937 202.718 164.5 206.32 164.476C210.941 164.437 215.587 164.577 220.188 164.958C221.876 165.108 223.633 166.019 225.065 166.983C225.921 167.556 226.497 168.848 226.748 169.919C227.516 173.25 227.959 176.667 228.716 179.979C229.922 185.166 231.335 190.305 232.585 195.482C233.424 198.963 234.194 202.458 234.893 205.967C235.321 208.112 234.469 209.558 232.343 210.561C227.048 213.068 221.517 213.241 215.828 212.735C208.938 212.118 202.014 211.607 195.1 211.101C193.579 210.99 192.039 211.101 190.4 211.101C189.662 216.437 190.563 221.861 188.629 227.168C185.356 225.548 182.782 223.837 181.336 220.795C180.976 220.043 180.066 219.566 179.554 218.867C178.211 216.997 176.985 215.039 175.617 213.179C174.859 212.286 174.047 211.437 173.186 210.638C172.857 216.423 172.625 221.658 172.202 226.884C171.96 228.861 171.594 230.822 171.105 232.755C170.258 236.833 171.183 240.709 171.961 244.72C173.334 251.782 173.988 258.979 175.032 266.109C175.671 270.448 176.508 274.786 177.217 279.125C178.742 288.665 180.169 298.214 181.764 307.745C182.256 310.762 183.132 313.713 183.732 316.716C184.224 319.126 184.549 321.57 184.953 324L181.567 323.981ZM207.157 168.699C207.134 169.073 207.159 169.449 207.231 169.817C208.494 173.401 209.782 176.974 211.094 180.538C212.117 183.392 211.586 186.241 211.399 189.158C211.276 191.245 210.907 192.195 208.83 192.214C201.837 192.277 194.844 192.387 187.856 192.243C186.946 192.243 185.538 190.951 185.273 190.011C184.431 187.07 184.023 184.009 183.368 180.562C178.726 185.794 174.987 191.732 172.296 198.143C171.134 200.804 172.123 202.925 173.491 204.776C175.814 207.915 178.56 210.744 181.149 213.69C182.226 214.919 183.343 216.1 184.746 217.657C185.061 214.422 185.332 211.67 185.592 208.912C185.72 207.553 186.281 207.071 187.827 207.206C193.525 207.688 199.214 207.929 204.903 208.941C210.454 209.934 216.222 209.906 221.906 209.973C224.287 209.973 227.471 210.204 228.342 207.216C229.121 204.719 229.307 202.081 228.889 199.503C227.944 194.774 226.428 190.141 224.912 185.523C223.17 180.162 221.271 174.855 219.268 169.586C218.987 168.839 217.742 167.947 216.965 167.966C213.707 168.029 210.469 168.419 207.157 168.699ZM125.422 200.124C124.039 197.483 122.858 195.333 121.804 193.12C121.541 192.509 121.502 191.827 121.696 191.192C122.858 187.875 124.191 184.612 125.323 181.286C126.662 177.342 127.784 173.327 129.142 169.383C129.668 167.831 130.387 166.385 132.665 167.59C133.945 168.27 135.5 168.453 137.149 168.921C135.111 162.172 133.172 155.712 131.076 148.732L107.656 159.434C109.94 161.159 111.819 162.427 113.488 163.917C114.049 164.423 114.521 165.667 114.275 166.289C112.73 170.237 111.007 174.093 109.275 177.95C107.543 181.806 105.693 185.629 103.946 189.485C102.922 191.737 101.736 193.959 101.072 196.316C99.8758 200.607 98.2912 204.945 99.6938 209.486C100.083 210.725 101.047 212.205 102.154 212.74C104.659 213.936 107.41 214.668 110.112 215.415C110.471 215.517 111.455 214.615 111.588 214.046C111.849 212.986 111.588 211.814 111.746 210.72C112.444 206.232 114.152 202.434 119.226 201.277C121.14 200.843 123.074 200.568 125.422 200.124ZM146.302 217.209V205.35C142.739 205.712 140.17 204.087 138.468 201.253L133.394 204.868C135.136 208.802 132.523 211.757 130.333 214.991C135.121 219.634 140.835 216.033 146.302 217.228V217.209ZM137.026 194.19C136.351 190.464 135.889 187.398 135.195 184.385C135.008 183.575 134.171 182.37 133.546 182.317C132.562 182.235 130.717 182.775 130.564 183.373C129.58 187.302 125.594 190.671 128.104 195.294C128.281 195.617 127.931 196.176 127.956 196.62C128.064 198.457 128.108 200.476 130.072 201.373C132.036 202.27 133.694 200.963 134.649 199.507C135.761 197.777 136.361 195.714 137.026 194.19ZM149.629 192.961C149.191 189.784 149.097 187.523 148.482 185.412C148.236 184.578 146.765 183.484 145.943 183.556C144.57 183.672 142.434 184.323 142.075 185.277C140.283 190.025 139.614 194.981 141.868 199.816C143.399 203.07 145.067 203.239 146.966 200.043C148.364 197.685 148.945 194.856 149.629 192.961ZM152.719 202.4C160.672 201.156 163.196 192.908 160.942 187.432C160.367 186.039 158.836 184.139 157.06 185.383C155.436 186.521 153.772 188.502 153.447 190.339C152.749 194.263 152.911 198.326 152.719 202.4ZM166.041 193.988C164.564 196.658 163.27 199.093 161.902 201.503C161.144 202.838 159.973 204.034 159.56 205.456C159.092 207.085 158.718 209.433 160.721 210.122C162.404 210.696 164.85 210.604 166.346 209.799C167.709 209.038 168.255 206.864 169.131 205.369L165.785 202.896C166.474 201.219 167.168 199.479 167.891 197.753C168.059 197.39 168.144 196.995 168.139 196.597C168.134 196.198 168.04 195.806 167.864 195.447C167.687 195.088 167.433 194.771 167.118 194.519C166.803 194.267 166.435 194.086 166.041 193.988Z" fill="#73D88B"/>
<path d="M170.199 122.624C168.659 125.815 167.178 128.992 165.608 132.12C163.702 135.909 161.755 139.676 159.766 143.42C158.812 145.213 157.035 144.866 155.628 144.418C154.033 143.936 152.596 142.943 151.12 142.123C148.02 140.407 144.944 138.647 141.839 136.936C140.082 135.972 138.227 135.162 136.529 134.102C135.264 133.311 135.668 132.443 136.79 131.691C137.774 131.036 138.935 130.414 139.575 129.488C144.157 122.894 148.433 116.092 153.192 109.618C156.126 105.733 159.36 102.074 162.867 98.6749C166.42 95.1366 170.46 95.5078 174.308 97.4842C175.165 97.9229 175.701 98.9738 176.356 99.7644C180.829 105.159 185.332 110.5 189.702 115.952C190.991 117.562 191.872 119.49 192.994 121.255C195.824 125.637 198.471 126.297 203.924 124.224C206.272 123.343 208.665 122.582 211.094 121.944C212.905 121.462 214.864 124.046 214.411 126.514C213.614 130.853 212.551 135.138 211.724 139.467C210.897 143.796 210.188 148.231 209.465 152.622C208.973 155.664 208.264 156.508 205.149 156.113C201.542 155.631 197.802 155.148 194.48 153.794C187.723 151.051 181.193 147.768 174.609 144.635C172.202 143.492 172.187 142.224 174.451 140.932C176.715 139.641 178.998 138.426 181.292 137.206C182.586 136.517 182.546 135.596 181.71 134.661C178.24 130.804 174.737 126.982 171.233 123.154C170.911 122.938 170.564 122.76 170.199 122.624ZM191.813 133.272C191.439 130.742 191.591 128.794 190.829 127.28C189.215 124.16 187.389 121.15 185.361 118.271C181.916 113.243 178.747 107.984 174.732 103.433C169.86 97.9036 169.555 98.6123 165.5 103.631C162.773 107.005 159.634 110.22 157.626 113.98C154.437 119.91 150.456 124.971 145.096 129.098C143.591 130.26 142.464 131.899 141.204 133.268C145.948 135.572 150.2 137.553 154.368 139.703C155.933 140.508 156.661 139.838 157.321 138.676C160.815 132.371 164.304 126.058 167.788 119.736C169.018 117.504 171.326 117.528 173.009 119.543C177.333 124.721 181.743 129.835 186.237 134.887C187.714 136.555 187.748 137.187 185.908 138.329C183.732 139.679 181.611 141.111 179.052 142.779L205.415 152.545C206.719 143.516 207.959 134.96 209.303 125.666C203.481 129.84 197.413 131.542 191.813 133.272Z" fill="#73D88B"/>
<path d="M327 164.5C327 253.685 254.479 326 165 326C75.5213 326 3 253.685 3 164.5C3 75.3146 75.5213 3 165 3C254.479 3 327 75.3146 327 164.5Z" stroke="#73D88B" stroke-width="6"/>
</svg>
