<svg width="1089" height="345" viewBox="0 0 1089 345" fill="none" xmlns="http://www.w3.org/2000/svg">
<rect x="69.9263" y="61.9956" width="957" height="227" stroke="black"/>
<path d="M178.51 120.186C177.624 120.186 177.18 119.672 177.18 118.646C177.18 116.686 177.53 114.516 178.23 112.136C178.93 109.709 179.794 107.679 180.82 106.046C181.8 104.366 182.734 103.526 183.62 103.526C184.04 103.666 184.25 104.109 184.25 104.856C184.25 105.789 183.994 107.446 183.48 109.826C182.967 112.206 182.29 114.469 181.45 116.616C180.47 118.996 179.49 120.186 178.51 120.186ZM169.13 120.536C168.664 120.536 168.43 120.022 168.43 118.996C168.43 117.129 168.827 114.936 169.62 112.416C170.46 109.896 171.417 107.796 172.49 106.116C173.564 104.436 174.404 103.596 175.01 103.596C175.477 103.596 175.71 104.062 175.71 104.996C175.71 105.976 175.547 107.306 175.22 108.986C174.94 110.666 174.544 112.346 174.03 114.026C173.424 115.939 172.677 117.502 171.79 118.716C170.95 119.929 170.064 120.536 169.13 120.536ZM198.387 157.986C197.687 157.986 197.127 157.659 196.707 157.006C196.334 156.306 196.147 155.466 196.147 154.486C196.147 152.946 196.24 151.056 196.427 148.816L196.567 146.996L196.707 143.286C196.707 141.652 196.544 138.012 196.217 132.366C195.89 126.719 195.727 123.079 195.727 121.446C195.727 121.306 195.727 121.049 195.727 120.676C195.774 120.256 195.797 119.626 195.797 118.786C195.844 117.852 195.867 116.709 195.867 115.356C195.867 111.949 195.634 109.779 195.167 108.846C194.887 108.846 194.28 108.916 193.347 109.056L191.387 109.196C190.78 109.196 190.244 109.032 189.777 108.706C189.31 108.332 189.077 107.866 189.077 107.306C189.077 106.746 189.637 106.256 190.757 105.836C192.39 105.276 195.167 104.879 199.087 104.646C200.674 104.552 201.63 104.506 201.957 104.506C202.517 104.506 203.03 104.692 203.497 105.066C203.964 105.439 204.197 105.906 204.197 106.466C204.197 107.026 203.987 107.492 203.567 107.866C203.194 108.192 202.704 108.356 202.097 108.356L200.837 108.286C200.464 108.239 200.044 108.216 199.577 108.216H198.877C199.204 111.389 199.367 114.259 199.367 116.826L199.297 121.306C199.25 122.659 199.227 124.176 199.227 125.856C199.227 128.096 199.32 130.779 199.507 133.906C199.74 137.779 199.857 140.462 199.857 141.956C199.857 143.729 199.95 145.829 200.137 148.256C200.324 150.729 200.417 152.829 200.417 154.556C200.417 156.842 199.74 157.986 198.387 157.986ZM223.847 157.496C222.261 157.496 221.467 153.646 221.467 145.946L221.537 141.956L221.607 138.736V138.526V137.826C221.654 137.452 221.677 137.009 221.677 136.496C221.677 136.402 221.607 136.286 221.467 136.146C221.327 136.006 221.257 135.889 221.257 135.796V135.726C221.024 135.819 220.604 135.866 219.997 135.866C219.391 135.866 218.644 135.772 217.757 135.586C217.477 135.539 216.731 135.422 215.517 135.236V143.286C215.517 144.499 215.587 146.412 215.727 149.026C215.867 151.592 215.937 153.506 215.937 154.766C215.937 155.466 215.751 156.072 215.377 156.586C215.004 157.099 214.514 157.356 213.907 157.356C213.021 157.356 212.391 156.492 212.017 154.766C211.644 152.992 211.457 150.682 211.457 147.836L211.597 142.166C211.644 140.579 211.667 138.899 211.667 137.126V135.936V134.956C211.667 134.209 211.644 133.719 211.597 133.486V133.136L211.807 129.076C211.807 127.302 211.737 124.666 211.597 121.166C211.457 117.666 211.387 115.029 211.387 113.256C211.387 112.696 211.574 112.206 211.947 111.786C212.321 111.366 212.787 111.156 213.347 111.156C214.841 111.156 215.587 112.556 215.587 115.356L215.447 124.036C215.354 126.649 215.307 129.566 215.307 132.786C216.007 133.019 217.267 133.136 219.087 133.136H221.677C221.771 132.856 221.817 132.576 221.817 132.296C221.817 130.056 221.677 126.742 221.397 122.356C221.071 118.249 220.907 114.912 220.907 112.346C220.907 111.832 221.094 111.412 221.467 111.086C221.887 110.712 222.377 110.526 222.937 110.526C223.264 110.526 223.731 110.642 224.337 110.876L224.967 111.156C224.967 117.782 225.201 126.626 225.667 137.686L226.297 155.396C226.297 156.049 226.041 156.562 225.527 156.936C225.061 157.309 224.501 157.496 223.847 157.496ZM237.921 158.406C237.314 158.406 236.754 158.196 236.241 157.776C235.774 157.356 235.518 156.842 235.471 156.236V154.416V153.016C235.424 152.596 235.401 152.106 235.401 151.546C235.401 150.566 235.331 149.072 235.191 147.066L235.051 142.586C235.051 140.299 235.121 136.892 235.261 132.366C235.448 128.306 235.541 124.899 235.541 122.146C235.541 121.492 235.471 120.512 235.331 119.206C235.191 117.852 235.121 116.872 235.121 116.266C235.121 112.952 236.101 111.296 238.061 111.296C239.601 111.296 241.374 111.599 243.381 112.206C245.434 112.812 246.461 113.536 246.461 114.376C246.461 114.842 246.251 115.286 245.831 115.706C245.458 116.079 244.991 116.382 244.431 116.616C242.471 115.916 240.698 115.449 239.111 115.216C239.158 115.916 239.181 116.919 239.181 118.226C239.181 120.092 239.158 121.772 239.111 123.266C238.971 125.506 238.901 127.186 238.901 128.306L239.111 129.426L240.231 129.356C240.604 129.309 241.071 129.286 241.631 129.286C243.871 129.286 244.991 129.939 244.991 131.246C244.991 131.759 244.781 132.202 244.361 132.576C243.941 132.902 243.404 133.066 242.751 133.066C241.911 133.066 241.258 133.019 240.791 132.926H239.041C239.134 134.139 239.181 135.912 239.181 138.246C239.181 140.579 239.158 142.679 239.111 144.546C238.971 147.392 238.901 149.516 238.901 150.916C238.901 153.529 238.948 154.836 239.041 154.836L241.351 154.766C242.144 154.719 243.101 154.696 244.221 154.696C245.994 154.696 246.881 155.256 246.881 156.376C246.881 157.029 246.578 157.519 245.971 157.846C245.411 158.219 244.711 158.406 243.871 158.406H237.921ZM266.844 158.686C265.817 158.686 264.884 157.566 264.044 155.326C263.064 152.899 262.34 150.402 261.874 147.836L261.384 145.456C260.03 138.782 259.167 134.979 258.794 134.046H257.954C257.954 135.399 257.93 136.636 257.884 137.756V141.606C257.884 147.859 258.327 152.736 259.214 156.236L258.444 158.126H256.484L255.574 157.076L255.644 152.386C255.644 148.186 255.434 141.816 255.014 133.276C254.64 124.176 254.454 117.806 254.454 114.166C254.454 111.926 255.224 110.806 256.764 110.806C259.284 110.806 261.337 111.459 262.924 112.766C264.557 114.072 265.374 115.892 265.374 118.226V123.126C265.374 123.826 265.257 124.642 265.024 125.576C264.79 126.462 264.534 127.186 264.254 127.746L262.924 130.266L261.804 132.366L262.154 134.046L263.134 139.016C263.787 142.609 264.417 145.526 265.024 147.766C265.63 150.006 266.377 152.036 267.264 153.856L267.684 154.696C268.15 155.629 268.384 156.376 268.384 156.936C268.384 157.402 268.244 157.799 267.964 158.126C267.684 158.499 267.31 158.686 266.844 158.686ZM258.234 130.616C259.26 130.102 260.124 128.702 260.824 126.416C261.57 124.082 261.944 121.936 261.944 119.976C261.944 118.482 261.757 117.082 261.384 115.776C261.15 115.029 260.754 114.469 260.194 114.096C259.68 113.676 259.027 113.466 258.234 113.466L258.094 113.816L257.954 114.446L258.094 122.706C258.187 125.132 258.234 127.769 258.234 130.616ZM278.458 158.406C277.852 158.406 277.292 158.196 276.778 157.776C276.312 157.356 276.055 156.842 276.008 156.236V154.416V153.016C275.962 152.596 275.938 152.106 275.938 151.546C275.938 150.566 275.868 149.072 275.728 147.066L275.588 142.586C275.588 140.299 275.658 136.892 275.798 132.366C275.985 128.306 276.078 124.899 276.078 122.146C276.078 121.492 276.008 120.512 275.868 119.206C275.728 117.852 275.658 116.872 275.658 116.266C275.658 112.952 276.638 111.296 278.598 111.296C280.138 111.296 281.912 111.599 283.918 112.206C285.972 112.812 286.998 113.536 286.998 114.376C286.998 114.842 286.788 115.286 286.368 115.706C285.995 116.079 285.528 116.382 284.968 116.616C283.008 115.916 281.235 115.449 279.648 115.216C279.695 115.916 279.718 116.919 279.718 118.226C279.718 120.092 279.695 121.772 279.648 123.266C279.508 125.506 279.438 127.186 279.438 128.306L279.648 129.426L280.768 129.356C281.142 129.309 281.608 129.286 282.168 129.286C284.408 129.286 285.528 129.939 285.528 131.246C285.528 131.759 285.318 132.202 284.898 132.576C284.478 132.902 283.942 133.066 283.288 133.066C282.448 133.066 281.795 133.019 281.328 132.926H279.578C279.672 134.139 279.718 135.912 279.718 138.246C279.718 140.579 279.695 142.679 279.648 144.546C279.508 147.392 279.438 149.516 279.438 150.916C279.438 153.529 279.485 154.836 279.578 154.836L281.888 154.766C282.682 154.719 283.638 154.696 284.758 154.696C286.532 154.696 287.418 155.256 287.418 156.376C287.418 157.029 287.115 157.519 286.508 157.846C285.948 158.219 285.248 158.406 284.408 158.406H278.458ZM311.414 157.426C307.354 157.426 305.324 156.726 305.324 155.326C305.324 154.206 306.047 153.646 307.494 153.646H308.264L308.964 153.716C309.337 153.716 309.594 153.599 309.734 153.366C309.874 153.132 309.944 152.712 309.944 152.106C309.944 151.312 309.897 150.076 309.804 148.396C309.664 147.276 309.501 145.269 309.314 142.376C308.894 135.236 308.684 129.846 308.684 126.206C308.684 124.899 308.707 123.709 308.754 122.636L308.824 119.066C308.824 117.526 308.754 116.242 308.614 115.216C307.867 115.402 307.331 115.496 307.004 115.496C305.884 115.496 305.324 114.936 305.324 113.816C305.324 113.256 305.674 112.766 306.374 112.346C307.074 111.926 307.961 111.622 309.034 111.436C310.901 111.062 312.557 110.876 314.004 110.876C314.564 110.876 315.031 111.086 315.404 111.506C315.824 111.879 316.034 112.322 316.034 112.836C316.034 113.349 315.871 113.792 315.544 114.166C315.264 114.539 314.891 114.726 314.424 114.726C314.144 114.726 313.911 114.702 313.724 114.656H313.164C312.697 114.656 312.347 114.772 312.114 115.006C311.927 115.192 311.834 115.566 311.834 116.126C311.834 120.652 312.114 127.466 312.674 136.566C312.767 138.246 312.954 140.719 313.234 143.986C313.467 146.132 313.584 148.326 313.584 150.566V153.226C313.864 153.179 314.331 153.156 314.984 153.156C316.944 153.156 317.924 153.972 317.924 155.606V156.026L316.174 157.216C316.127 157.216 315.964 157.239 315.684 157.286C315.451 157.286 314.984 157.286 314.284 157.286C312.791 157.379 311.834 157.426 311.414 157.426ZM324.965 158.476C324.125 158.336 323.402 158.032 322.795 157.566C322.235 157.099 321.908 156.492 321.815 155.746L322.585 154.556C322.865 154.556 323.308 154.649 323.915 154.836C324.615 154.976 325.152 155.046 325.525 155.046C326.365 155.046 327.112 154.672 327.765 153.926C328.465 153.179 328.978 152.199 329.305 150.986C329.912 148.746 330.215 146.739 330.215 144.966C330.215 141.886 329.235 138.642 327.275 135.236L326.505 133.906C325.618 132.366 324.872 130.989 324.265 129.776C323.658 128.562 323.145 127.256 322.725 125.856C322.165 124.036 321.885 122.216 321.885 120.396C321.885 118.342 322.352 116.196 323.285 113.956C323.752 112.882 324.405 112.019 325.245 111.366C326.132 110.666 327.112 110.316 328.185 110.316C329.025 110.316 329.795 110.596 330.495 111.156C331.242 111.669 331.615 112.299 331.615 113.046C331.615 113.466 331.452 113.792 331.125 114.026C330.798 114.259 330.402 114.376 329.935 114.376C329.422 114.376 328.932 114.236 328.465 113.956C327.438 114.002 326.622 114.912 326.015 116.686C325.502 118.319 325.245 119.672 325.245 120.746C325.245 122.099 325.455 123.476 325.875 124.876C326.295 126.229 326.832 127.466 327.485 128.586L329.025 131.386L331.475 136.006C332.128 137.312 332.642 138.829 333.015 140.556C333.435 142.282 333.645 144.032 333.645 145.806C333.645 148.652 332.992 151.359 331.685 153.926C331.032 155.232 330.098 156.282 328.885 157.076C327.718 157.869 326.412 158.266 324.965 158.266V158.476ZM372.893 157.706C372.333 157.706 371.913 157.566 371.633 157.286C371.353 156.959 371.143 156.422 371.003 155.676L370.583 154.346V154.206V153.996C370.583 152.456 368.973 147.206 365.753 138.246C362.58 129.286 360.083 122.659 358.263 118.366V153.576L358.543 154.066C358.59 154.159 358.683 154.322 358.823 154.556C358.963 154.789 359.033 155.022 359.033 155.256C359.033 155.862 358.823 156.376 358.403 156.796C357.983 157.216 357.47 157.426 356.863 157.426C355.37 157.426 354.623 156.002 354.623 153.156L354.553 141.186C354.507 137.592 354.483 133.579 354.483 129.146C354.483 127.652 354.553 125.482 354.693 122.636C354.833 119.696 354.903 117.526 354.903 116.126C354.903 113.932 355.743 112.206 357.423 110.946V111.366C357.703 111.272 357.89 111.226 357.983 111.226C359.057 111.226 360.41 113.092 362.043 116.826C363.35 119.812 364.517 122.962 365.543 126.276C366.617 129.589 368.017 134.302 369.743 140.416L370.443 142.936C371.517 146.716 372.333 149.422 372.893 151.056C373.827 141.022 374.293 129.169 374.293 115.496V114.586C374.247 114.306 374.223 114.002 374.223 113.676C374.223 112.276 374.783 111.576 375.903 111.576C376.557 111.576 377.047 111.832 377.373 112.346C377.747 112.859 377.933 113.512 377.933 114.306V119.556C377.84 126.742 377.56 134.536 377.093 142.936C376.627 151.336 376.067 156.072 375.413 157.146C374.06 157.519 373.22 157.706 372.893 157.706ZM395.469 158.826C394.256 158.826 393.136 158.429 392.109 157.636C391.083 156.889 390.243 155.862 389.589 154.556C388.236 151.709 387.396 148.606 387.069 145.246C386.649 142.072 386.439 139.016 386.439 136.076C386.439 135.516 386.463 135.049 386.509 134.676V133.416C386.509 133.182 386.486 133.066 386.439 133.066V131.806L386.509 126.906C386.556 125.412 386.743 123.032 387.069 119.766C387.303 117.526 387.839 115.356 388.679 113.256C389.006 112.322 389.426 111.622 389.939 111.156C390.453 110.642 391.036 110.386 391.689 110.386C393.556 110.386 395.236 110.736 396.729 111.436C398.223 112.089 399.483 113.022 400.509 114.236C401.443 115.402 402.236 116.849 402.889 118.576C403.543 120.256 404.009 122.052 404.289 123.966C404.569 125.926 404.709 128.002 404.709 130.196V130.756C404.709 132.202 404.733 133.509 404.779 134.676L404.849 138.666C404.849 152.106 401.723 158.826 395.469 158.826ZM395.189 155.886C396.029 155.886 396.799 155.559 397.499 154.906C398.199 154.206 398.736 153.272 399.109 152.106C399.996 149.726 400.533 147.159 400.719 144.406C400.953 142.026 401.069 139.972 401.069 138.246C401.069 136.146 400.906 133.392 400.579 129.986C400.299 126.392 400.159 123.709 400.159 121.936V120.676C400.066 118.902 399.459 117.362 398.339 116.056C397.266 114.749 395.936 114.096 394.349 114.096C392.763 114.096 391.713 115.006 391.199 116.826C390.733 118.272 390.499 120.139 390.499 122.426C390.499 123.312 390.523 124.059 390.569 124.666V126.556L390.429 129.776C390.336 130.756 390.289 131.829 390.289 132.996C390.289 135.516 390.359 138.012 390.499 140.486C390.686 143.986 391.153 147.392 391.899 150.706C392.646 154.159 393.743 155.886 395.189 155.886ZM426.547 158.476C425.707 158.336 424.984 158.032 424.377 157.566C423.817 157.099 423.49 156.492 423.397 155.746L424.167 154.556C424.447 154.556 424.89 154.649 425.497 154.836C426.197 154.976 426.734 155.046 427.107 155.046C427.947 155.046 428.694 154.672 429.347 153.926C430.047 153.179 430.56 152.199 430.887 150.986C431.494 148.746 431.797 146.739 431.797 144.966C431.797 141.886 430.817 138.642 428.857 135.236L428.087 133.906C427.2 132.366 426.454 130.989 425.847 129.776C425.24 128.562 424.727 127.256 424.307 125.856C423.747 124.036 423.467 122.216 423.467 120.396C423.467 118.342 423.934 116.196 424.867 113.956C425.334 112.882 425.987 112.019 426.827 111.366C427.714 110.666 428.694 110.316 429.767 110.316C430.607 110.316 431.377 110.596 432.077 111.156C432.824 111.669 433.197 112.299 433.197 113.046C433.197 113.466 433.034 113.792 432.707 114.026C432.38 114.259 431.984 114.376 431.517 114.376C431.004 114.376 430.514 114.236 430.047 113.956C429.02 114.002 428.204 114.912 427.597 116.686C427.084 118.319 426.827 119.672 426.827 120.746C426.827 122.099 427.037 123.476 427.457 124.876C427.877 126.229 428.414 127.466 429.067 128.586L430.607 131.386L433.057 136.006C433.71 137.312 434.224 138.829 434.597 140.556C435.017 142.282 435.227 144.032 435.227 145.806C435.227 148.652 434.574 151.359 433.267 153.926C432.614 155.232 431.68 156.282 430.467 157.076C429.3 157.869 427.994 158.266 426.547 158.266V158.476ZM450.072 158.546C448.952 158.546 447.949 158.289 447.062 157.776C446.175 157.309 445.452 156.609 444.892 155.676C443.772 153.716 443.049 151.499 442.722 149.026C442.395 146.879 442.232 144.312 442.232 141.326C442.092 136.286 442.022 130.126 442.022 122.846L441.952 117.456C441.905 117.176 441.882 116.709 441.882 116.056C441.789 114.282 441.742 113.209 441.742 112.836C442.162 111.856 442.652 111.366 443.212 111.366C443.772 111.366 444.262 111.786 444.682 112.626C445.149 113.466 445.382 114.376 445.382 115.356V134.396C445.382 136.262 445.545 138.736 445.872 141.816C446.199 145.642 446.362 148.116 446.362 149.236C446.362 152.689 447.832 154.416 450.772 154.416C454.132 154.416 455.812 141.862 455.812 116.756V112.836V112.206C455.765 112.066 455.742 111.879 455.742 111.646C455.742 111.086 455.859 110.689 456.092 110.456C456.372 110.176 456.885 110.036 457.632 110.036C458.239 110.036 458.705 110.222 459.032 110.596C459.405 110.922 459.639 111.319 459.732 111.786C459.779 112.066 459.802 112.602 459.802 113.396C459.802 114.142 459.732 115.332 459.592 116.966C459.405 118.319 459.312 119.486 459.312 120.466C459.312 121.539 459.265 122.496 459.172 123.336L459.032 126.276V126.836C459.079 127.022 459.102 127.232 459.102 127.466C459.102 148.186 456.092 158.546 450.072 158.546ZM477.255 158.476C476.228 158.476 475.132 158.312 473.965 157.986C472.845 157.706 471.982 157.379 471.375 157.006C468.248 154.999 466.685 149.516 466.685 140.556V138.666V136.496V134.816C466.685 132.949 466.708 131.292 466.755 129.846C466.802 128.352 466.895 126.742 467.035 125.016C467.175 123.196 467.385 121.726 467.665 120.606C467.945 119.439 468.412 118.132 469.065 116.686C469.625 115.332 470.302 114.282 471.095 113.536C471.935 112.789 473.008 112.159 474.315 111.646C475.482 111.132 476.928 110.876 478.655 110.876C479.355 110.876 479.892 111.039 480.265 111.366C480.638 111.692 480.825 112.112 480.825 112.626C480.825 113.092 480.662 113.512 480.335 113.886C480.055 114.259 479.705 114.469 479.285 114.516H475.995C475.062 114.516 474.245 115.099 473.545 116.266C472.845 117.432 472.355 118.949 472.075 120.816C471.468 124.269 471.165 127.069 471.165 129.216V129.566L471.025 136.286C470.932 138.292 470.885 140.556 470.885 143.076C470.885 144.849 470.955 146.296 471.095 147.416C471.328 149.096 471.725 150.496 472.285 151.616C472.845 152.876 473.802 153.786 475.155 154.346C475.855 154.626 476.625 154.766 477.465 154.766C477.978 154.766 478.492 154.579 479.005 154.206C479.612 154.206 480.102 154.346 480.475 154.626C480.895 154.859 481.105 155.232 481.105 155.746C481.105 157.566 479.822 158.476 477.255 158.476ZM499.746 157.496C498.159 157.496 497.366 153.646 497.366 145.946L497.436 141.956L497.506 138.736V138.526V137.826C497.552 137.452 497.576 137.009 497.576 136.496C497.576 136.402 497.506 136.286 497.366 136.146C497.226 136.006 497.156 135.889 497.156 135.796V135.726C496.922 135.819 496.502 135.866 495.896 135.866C495.289 135.866 494.542 135.772 493.656 135.586C493.376 135.539 492.629 135.422 491.416 135.236V143.286C491.416 144.499 491.486 146.412 491.626 149.026C491.766 151.592 491.836 153.506 491.836 154.766C491.836 155.466 491.649 156.072 491.276 156.586C490.902 157.099 490.412 157.356 489.806 157.356C488.919 157.356 488.289 156.492 487.916 154.766C487.542 152.992 487.356 150.682 487.356 147.836L487.496 142.166C487.542 140.579 487.566 138.899 487.566 137.126V135.936V134.956C487.566 134.209 487.542 133.719 487.496 133.486V133.136L487.706 129.076C487.706 127.302 487.636 124.666 487.496 121.166C487.356 117.666 487.286 115.029 487.286 113.256C487.286 112.696 487.472 112.206 487.846 111.786C488.219 111.366 488.686 111.156 489.246 111.156C490.739 111.156 491.486 112.556 491.486 115.356L491.346 124.036C491.252 126.649 491.206 129.566 491.206 132.786C491.906 133.019 493.166 133.136 494.986 133.136H497.576C497.669 132.856 497.716 132.576 497.716 132.296C497.716 130.056 497.576 126.742 497.296 122.356C496.969 118.249 496.806 114.912 496.806 112.346C496.806 111.832 496.992 111.412 497.366 111.086C497.786 110.712 498.276 110.526 498.836 110.526C499.162 110.526 499.629 110.642 500.236 110.876L500.866 111.156C500.866 117.782 501.099 126.626 501.566 137.686L502.196 155.396C502.196 156.049 501.939 156.562 501.426 156.936C500.959 157.309 500.399 157.496 499.746 157.496ZM527.303 156.376L527.233 153.646C527.186 152.852 527.163 151.966 527.163 150.986L527.233 148.606C527.093 148.092 526.743 142.982 526.183 133.276C525.623 123.569 525.296 117.339 525.203 114.586C522.496 114.492 520.769 114.212 520.023 113.746C519.509 113.372 519.253 112.952 519.253 112.486C519.253 112.112 519.486 111.786 519.953 111.506C520.466 111.179 520.979 111.016 521.493 111.016C522.799 111.016 524.386 111.109 526.253 111.296C528.026 111.529 529.613 111.646 531.013 111.646H531.573H532.133C533.579 111.646 534.303 112.206 534.303 113.326C534.303 113.886 534.069 114.352 533.603 114.726C533.136 115.052 532.599 115.216 531.993 115.216C531.573 115.216 530.966 115.146 530.173 115.006L528.773 114.726L528.703 115.076L528.633 115.426C528.633 119.579 529.029 126.206 529.823 135.306C530.569 143.846 530.943 150.472 530.943 155.186C530.943 155.746 530.686 156.236 530.173 156.656C529.706 157.076 529.169 157.286 528.563 157.286L527.303 156.376ZM553.613 157.496C552.026 157.496 551.233 153.646 551.233 145.946L551.303 141.956L551.373 138.736V138.526V137.826C551.42 137.452 551.443 137.009 551.443 136.496C551.443 136.402 551.373 136.286 551.233 136.146C551.093 136.006 551.023 135.889 551.023 135.796V135.726C550.79 135.819 550.37 135.866 549.763 135.866C549.156 135.866 548.41 135.772 547.523 135.586C547.243 135.539 546.496 135.422 545.283 135.236V143.286C545.283 144.499 545.353 146.412 545.493 149.026C545.633 151.592 545.703 153.506 545.703 154.766C545.703 155.466 545.516 156.072 545.143 156.586C544.77 157.099 544.28 157.356 543.673 157.356C542.786 157.356 542.156 156.492 541.783 154.766C541.41 152.992 541.223 150.682 541.223 147.836L541.363 142.166C541.41 140.579 541.433 138.899 541.433 137.126V135.936V134.956C541.433 134.209 541.41 133.719 541.363 133.486V133.136L541.573 129.076C541.573 127.302 541.503 124.666 541.363 121.166C541.223 117.666 541.153 115.029 541.153 113.256C541.153 112.696 541.34 112.206 541.713 111.786C542.086 111.366 542.553 111.156 543.113 111.156C544.606 111.156 545.353 112.556 545.353 115.356L545.213 124.036C545.12 126.649 545.073 129.566 545.073 132.786C545.773 133.019 547.033 133.136 548.853 133.136H551.443C551.536 132.856 551.583 132.576 551.583 132.296C551.583 130.056 551.443 126.742 551.163 122.356C550.836 118.249 550.673 114.912 550.673 112.346C550.673 111.832 550.86 111.412 551.233 111.086C551.653 110.712 552.143 110.526 552.703 110.526C553.03 110.526 553.496 110.642 554.103 110.876L554.733 111.156C554.733 117.782 554.966 126.626 555.433 137.686L556.063 155.396C556.063 156.049 555.806 156.562 555.293 156.936C554.826 157.309 554.266 157.496 553.613 157.496ZM567.967 157.426C563.907 157.426 561.877 156.726 561.877 155.326C561.877 154.206 562.6 153.646 564.047 153.646H564.817L565.517 153.716C565.89 153.716 566.147 153.599 566.287 153.366C566.427 153.132 566.497 152.712 566.497 152.106C566.497 151.312 566.45 150.076 566.357 148.396C566.217 147.276 566.053 145.269 565.867 142.376C565.447 135.236 565.237 129.846 565.237 126.206C565.237 124.899 565.26 123.709 565.307 122.636L565.377 119.066C565.377 117.526 565.307 116.242 565.167 115.216C564.42 115.402 563.883 115.496 563.557 115.496C562.437 115.496 561.877 114.936 561.877 113.816C561.877 113.256 562.227 112.766 562.927 112.346C563.627 111.926 564.513 111.622 565.587 111.436C567.453 111.062 569.11 110.876 570.557 110.876C571.117 110.876 571.583 111.086 571.957 111.506C572.377 111.879 572.587 112.322 572.587 112.836C572.587 113.349 572.423 113.792 572.097 114.166C571.817 114.539 571.443 114.726 570.977 114.726C570.697 114.726 570.463 114.702 570.277 114.656H569.717C569.25 114.656 568.9 114.772 568.667 115.006C568.48 115.192 568.387 115.566 568.387 116.126C568.387 120.652 568.667 127.466 569.227 136.566C569.32 138.246 569.507 140.719 569.787 143.986C570.02 146.132 570.137 148.326 570.137 150.566V153.226C570.417 153.179 570.883 153.156 571.537 153.156C573.497 153.156 574.477 153.972 574.477 155.606V156.026L572.727 157.216C572.68 157.216 572.517 157.239 572.237 157.286C572.003 157.286 571.537 157.286 570.837 157.286C569.343 157.379 568.387 157.426 567.967 157.426ZM599.368 157.706C598.808 157.706 598.388 157.566 598.108 157.286C597.828 156.959 597.618 156.422 597.478 155.676L597.058 154.346V154.206V153.996C597.058 152.456 595.448 147.206 592.228 138.246C589.054 129.286 586.558 122.659 584.738 118.366V153.576L585.018 154.066C585.064 154.159 585.158 154.322 585.298 154.556C585.438 154.789 585.508 155.022 585.508 155.256C585.508 155.862 585.298 156.376 584.878 156.796C584.458 157.216 583.944 157.426 583.338 157.426C581.844 157.426 581.098 156.002 581.098 153.156L581.028 141.186C580.981 137.592 580.958 133.579 580.958 129.146C580.958 127.652 581.028 125.482 581.168 122.636C581.308 119.696 581.378 117.526 581.378 116.126C581.378 113.932 582.218 112.206 583.898 110.946V111.366C584.178 111.272 584.364 111.226 584.458 111.226C585.531 111.226 586.884 113.092 588.518 116.826C589.824 119.812 590.991 122.962 592.018 126.276C593.091 129.589 594.491 134.302 596.218 140.416L596.918 142.936C597.991 146.716 598.808 149.422 599.368 151.056C600.301 141.022 600.768 129.169 600.768 115.496V114.586C600.721 114.306 600.698 114.002 600.698 113.676C600.698 112.276 601.258 111.576 602.378 111.576C603.031 111.576 603.521 111.832 603.848 112.346C604.221 112.859 604.408 113.512 604.408 114.306V119.556C604.314 126.742 604.034 134.536 603.568 142.936C603.101 151.336 602.541 156.072 601.888 157.146C600.534 157.519 599.694 157.706 599.368 157.706ZM622.854 158.056C621.547 158.056 620.357 157.822 619.284 157.356C618.211 156.842 617.301 156.189 616.554 155.396C615.947 154.742 615.387 153.786 614.874 152.526C614.361 151.266 613.987 150.052 613.754 148.886C613.521 147.999 613.334 146.716 613.194 145.036C613.054 143.356 612.961 141.909 612.914 140.696V136.636V133.836C612.914 131.129 612.961 128.912 613.054 127.186C613.147 125.086 613.451 122.869 613.964 120.536C614.384 118.436 615.107 116.592 616.134 115.006C617.114 113.419 618.491 112.322 620.264 111.716C621.104 111.389 622.084 111.226 623.204 111.226C625.211 111.226 626.214 111.809 626.214 112.976C626.214 113.536 625.981 114.002 625.514 114.376C625.094 114.702 624.581 114.866 623.974 114.866C623.694 114.866 623.437 114.842 623.204 114.796C623.017 114.749 622.784 114.726 622.504 114.726C621.711 114.726 621.011 115.146 620.404 115.986C619.797 116.826 619.284 117.992 618.864 119.486C618.117 122.379 617.604 125.529 617.324 128.936C617.137 132.109 617.044 134.466 617.044 136.006C617.044 137.592 617.114 139.762 617.254 142.516C617.441 145.082 617.837 147.322 618.444 149.236C618.771 150.356 619.144 151.266 619.564 151.966C620.031 152.619 620.614 153.179 621.314 153.646C622.107 154.159 622.924 154.416 623.764 154.416C626.004 154.416 627.124 150.682 627.124 143.216V139.996C626.797 139.856 626.261 139.786 625.514 139.786H624.884H624.114C622.481 139.786 621.664 139.249 621.664 138.176C621.664 137.522 621.874 137.032 622.294 136.706C622.761 136.332 623.344 136.146 624.044 136.146V136.216H625.024C629.224 136.216 631.324 136.939 631.324 138.386C631.324 138.806 631.207 139.646 630.974 140.906C630.694 142.026 630.554 142.866 630.554 143.426C630.554 144.219 630.624 145.456 630.764 147.136L630.904 150.846C630.904 153.086 630.111 154.859 628.524 156.166C626.984 157.426 625.094 158.056 622.854 158.056ZM664.526 158.126C663.453 158.126 662.66 157.962 662.146 157.636C661.633 157.309 661.376 156.702 661.376 155.816C661.376 154.416 661.143 152.036 660.676 148.676L660.396 147.206L653.466 146.156C653.186 147.229 652.79 149.399 652.276 152.666C651.996 154.952 651.553 156.469 650.946 157.216C650.62 157.636 650.153 157.846 649.546 157.846C648.986 157.846 648.473 157.682 648.006 157.356C647.54 156.982 647.306 156.539 647.306 156.026L647.446 155.676L647.516 155.396C650.596 143.402 652.93 131.572 654.516 119.906C654.516 119.719 654.54 119.416 654.586 118.996C654.633 118.529 654.68 117.876 654.726 117.036C654.866 115.309 655.006 113.932 655.146 112.906C655.333 111.879 655.613 111.109 655.986 110.596H658.366C659.02 110.596 659.58 110.759 660.046 111.086C660.513 111.366 660.746 111.786 660.746 112.346C660.746 115.892 661.236 121.166 662.216 128.166C663.15 135.352 663.616 140.392 663.616 143.286C663.616 143.566 663.733 144.289 663.966 145.456C664.2 146.529 664.316 147.229 664.316 147.556C664.316 147.882 664.55 149.282 665.016 151.756C665.436 153.996 665.646 155.442 665.646 156.096V156.166C665.646 157.192 665.273 157.846 664.526 158.126ZM659.906 144.686C659.766 143.986 659.696 143.122 659.696 142.096C659.696 137.896 659.323 132.529 658.576 125.996L657.876 118.716C655.87 129.682 654.493 137.966 653.746 143.566C654.446 144.032 656.5 144.406 659.906 144.686ZM672.914 158.476C672.074 158.336 671.351 158.032 670.744 157.566C670.184 157.099 669.858 156.492 669.764 155.746L670.534 154.556C670.814 154.556 671.258 154.649 671.864 154.836C672.564 154.976 673.101 155.046 673.474 155.046C674.314 155.046 675.061 154.672 675.714 153.926C676.414 153.179 676.928 152.199 677.254 150.986C677.861 148.746 678.164 146.739 678.164 144.966C678.164 141.886 677.184 138.642 675.224 135.236L674.454 133.906C673.568 132.366 672.821 130.989 672.214 129.776C671.608 128.562 671.094 127.256 670.674 125.856C670.114 124.036 669.834 122.216 669.834 120.396C669.834 118.342 670.301 116.196 671.234 113.956C671.701 112.882 672.354 112.019 673.194 111.366C674.081 110.666 675.061 110.316 676.134 110.316C676.974 110.316 677.744 110.596 678.444 111.156C679.191 111.669 679.564 112.299 679.564 113.046C679.564 113.466 679.401 113.792 679.074 114.026C678.748 114.259 678.351 114.376 677.884 114.376C677.371 114.376 676.881 114.236 676.414 113.956C675.388 114.002 674.571 114.912 673.964 116.686C673.451 118.319 673.194 119.672 673.194 120.746C673.194 122.099 673.404 123.476 673.824 124.876C674.244 126.229 674.781 127.466 675.434 128.586L676.974 131.386L679.424 136.006C680.078 137.312 680.591 138.829 680.964 140.556C681.384 142.282 681.594 144.032 681.594 145.806C681.594 148.652 680.941 151.359 679.634 153.926C678.981 155.232 678.048 156.282 676.834 157.076C675.668 157.869 674.361 158.266 672.914 158.266V158.476ZM715.522 158.126C714.449 158.126 713.656 157.962 713.142 157.636C712.629 157.309 712.372 156.702 712.372 155.816C712.372 154.416 712.139 152.036 711.672 148.676L711.392 147.206L704.462 146.156C704.182 147.229 703.786 149.399 703.272 152.666C702.992 154.952 702.549 156.469 701.942 157.216C701.616 157.636 701.149 157.846 700.542 157.846C699.982 157.846 699.469 157.682 699.002 157.356C698.536 156.982 698.302 156.539 698.302 156.026L698.442 155.676L698.512 155.396C701.592 143.402 703.926 131.572 705.512 119.906C705.512 119.719 705.536 119.416 705.582 118.996C705.629 118.529 705.676 117.876 705.722 117.036C705.862 115.309 706.002 113.932 706.142 112.906C706.329 111.879 706.609 111.109 706.982 110.596H709.362C710.016 110.596 710.576 110.759 711.042 111.086C711.509 111.366 711.742 111.786 711.742 112.346C711.742 115.892 712.232 121.166 713.212 128.166C714.146 135.352 714.612 140.392 714.612 143.286C714.612 143.566 714.729 144.289 714.962 145.456C715.196 146.529 715.312 147.229 715.312 147.556C715.312 147.882 715.546 149.282 716.012 151.756C716.432 153.996 716.642 155.442 716.642 156.096V156.166C716.642 157.192 716.269 157.846 715.522 158.126ZM710.902 144.686C710.762 143.986 710.692 143.122 710.692 142.096C710.692 137.896 710.319 132.529 709.572 125.996L708.872 118.716C706.866 129.682 705.489 137.966 704.742 143.566C705.442 144.032 707.496 144.406 710.902 144.686ZM727.76 158.966C726.827 158.966 726.01 157.566 725.31 154.766C724.704 152.292 724.19 149.236 723.77 145.596C723.397 141.909 723 137.266 722.58 131.666C722.347 128.026 722.02 124.129 721.6 119.976C721.274 116.522 720.877 114.306 720.41 113.326C720.83 112.486 721.507 112.066 722.44 112.066C723.934 112.066 724.68 113.606 724.68 116.686C724.68 120.326 725.17 125.646 726.15 132.646C727.13 139.599 727.69 144.662 727.83 147.836L728.18 145.456C728.647 142.329 729.044 139.389 729.37 136.636C729.744 133.836 730.047 130.826 730.28 127.606C730.607 124.012 730.77 120.466 730.77 116.966L732.66 116.126C733.267 116.126 733.757 116.289 734.13 116.616C734.55 116.896 734.76 117.316 734.76 117.876V118.436C735.507 121.049 736.114 123.919 736.58 127.046C737.094 130.126 737.537 133.766 737.91 137.966C738.19 141.186 738.517 144.196 738.89 146.996C739.777 140.742 740.22 133.042 740.22 123.896C740.22 122.449 740.407 120.676 740.78 118.576C741.107 116.429 741.27 114.679 741.27 113.326C741.13 112.906 741.06 112.509 741.06 112.136C741.06 111.016 741.76 110.456 743.16 110.456C743.72 110.456 744.164 110.596 744.49 110.876C744.817 111.156 744.98 111.552 744.98 112.066V113.116C744.98 113.816 744.91 114.422 744.77 114.936V115.286C744.164 117.152 743.86 119.299 743.86 121.726V126.836C743.86 129.776 743.51 134.162 742.81 139.996C742.064 145.689 741.69 149.936 741.69 152.736V153.996C741.69 155.069 741.574 155.979 741.34 156.726C741.06 157.659 740.384 158.126 739.31 158.126C738.564 158.126 737.98 157.892 737.56 157.426C737.187 156.912 737 156.282 737 155.536C737 151.756 736.604 146.856 735.81 140.836C735.39 138.129 734.947 135.399 734.48 132.646L733.36 125.296C733.174 126.649 733.08 127.979 733.08 129.286C733.08 131.899 732.894 135.352 732.52 139.646C732.147 143.939 731.564 148.116 730.77 152.176C729.884 156.702 728.88 158.966 727.76 158.966ZM766.45 158.126C765.377 158.126 764.583 157.962 764.07 157.636C763.557 157.309 763.3 156.702 763.3 155.816C763.3 154.416 763.067 152.036 762.6 148.676L762.32 147.206L755.39 146.156C755.11 147.229 754.713 149.399 754.2 152.666C753.92 154.952 753.477 156.469 752.87 157.216C752.543 157.636 752.077 157.846 751.47 157.846C750.91 157.846 750.397 157.682 749.93 157.356C749.463 156.982 749.23 156.539 749.23 156.026L749.37 155.676L749.44 155.396C752.52 143.402 754.853 131.572 756.44 119.906C756.44 119.719 756.463 119.416 756.51 118.996C756.557 118.529 756.603 117.876 756.65 117.036C756.79 115.309 756.93 113.932 757.07 112.906C757.257 111.879 757.537 111.109 757.91 110.596H760.29C760.943 110.596 761.503 110.759 761.97 111.086C762.437 111.366 762.67 111.786 762.67 112.346C762.67 115.892 763.16 121.166 764.14 128.166C765.073 135.352 765.54 140.392 765.54 143.286C765.54 143.566 765.657 144.289 765.89 145.456C766.123 146.529 766.24 147.229 766.24 147.556C766.24 147.882 766.473 149.282 766.94 151.756C767.36 153.996 767.57 155.442 767.57 156.096V156.166C767.57 157.192 767.197 157.846 766.45 158.126ZM761.83 144.686C761.69 143.986 761.62 143.122 761.62 142.096C761.62 137.896 761.247 132.529 760.5 125.996L759.8 118.716C757.793 129.682 756.417 137.966 755.67 143.566C756.37 144.032 758.423 144.406 761.83 144.686ZM779.318 158.476C778.525 158.476 777.871 157.962 777.358 156.936C777.871 155.956 778.128 151.989 778.128 145.036C778.128 143.402 778.011 141.629 777.778 139.716L777.568 137.686C777.428 136.426 777.358 135.469 777.358 134.816V132.996C776.891 131.829 776.028 129.659 774.768 126.486C773.555 123.312 772.575 120.652 771.828 118.506C770.941 116.032 770.498 114.352 770.498 113.466V113.116L772.108 111.926C772.901 112.019 773.741 113.046 774.628 115.006C775.375 116.732 776.191 119.206 777.078 122.426C778.011 125.646 778.478 127.349 778.478 127.536C778.665 127.022 779.038 125.272 779.598 122.286C780.158 119.299 780.788 116.662 781.488 114.376C782.281 112.089 783.098 110.946 783.938 110.946C784.405 110.946 784.801 111.086 785.128 111.366C785.501 111.646 785.688 111.996 785.688 112.416C785.688 114.796 785.035 118.156 783.728 122.496C782.328 127.209 781.628 130.616 781.628 132.716V153.786C781.628 156.912 780.858 158.476 779.318 158.476ZM798.722 158.616C798.116 158.616 797.579 158.359 797.112 157.846C796.646 157.332 796.412 156.749 796.412 156.096C796.412 155.396 796.669 154.766 797.182 154.206C797.696 153.646 798.302 153.366 799.002 153.366C799.656 153.366 800.239 153.646 800.752 154.206C801.266 154.766 801.522 155.372 801.522 156.026C801.522 156.772 801.242 157.379 800.682 157.846C800.169 158.359 799.516 158.616 798.722 158.616ZM833.35 158.476C831.623 158.476 830.76 156.702 830.76 153.156C830.76 150.916 829.78 142.912 827.82 129.146C825.907 115.332 824.693 107.796 824.18 106.536C824.787 105.416 825.603 104.856 826.63 104.856C827.703 104.856 828.707 107.282 829.64 112.136C830.527 117.269 831.273 123.149 831.88 129.776L832.37 135.446C832.65 138.619 832.813 140.229 832.86 140.276L833.56 134.396L833.98 130.756C834.587 125.436 834.983 121.679 835.17 119.486C835.403 116.592 835.52 114.609 835.52 113.536V112.206C835.52 111.692 835.707 111.202 836.08 110.736C836.453 110.269 836.873 110.036 837.34 110.036C839.02 110.036 839.86 110.736 839.86 112.136V113.186C839.86 115.846 840.117 118.716 840.63 121.796C841.19 124.829 841.983 128.469 843.01 132.716C843.663 135.189 844.317 138.199 844.97 141.746C845.11 140.206 845.553 136.472 846.3 130.546C847.047 125.132 847.583 120.536 847.91 116.756C848.283 112.929 848.47 109.359 848.47 106.046C848.47 104.972 848.633 104.226 848.96 103.806C849.333 103.339 850.01 103.106 850.99 103.106C851.55 103.106 852.04 103.292 852.46 103.666C852.927 103.992 853.16 104.436 853.16 104.996C853.16 105.509 852.927 106.046 852.46 106.606C852.46 109.966 852.203 113.909 851.69 118.436C851.177 122.916 850.547 127.186 849.8 131.246C849.053 135.212 848.423 139.482 847.91 144.056C847.397 148.582 847.14 152.572 847.14 156.026C847.14 156.772 846.953 157.356 846.58 157.776C846.253 158.242 845.74 158.476 845.04 158.476C844.527 158.476 843.92 157.519 843.22 155.606C842.333 152.946 841.237 147.649 839.93 139.716L838.67 131.526L838.04 126.976C837.433 131.222 836.967 134.652 836.64 137.266C836.36 139.832 836.08 142.889 835.8 146.436C835.473 149.842 835.31 153.202 835.31 156.516C835.31 156.982 835.1 157.426 834.68 157.846C834.307 158.266 833.863 158.476 833.35 158.476ZM873.33 157.496C871.743 157.496 870.95 153.646 870.95 145.946L871.02 141.956L871.09 138.736V138.526V137.826C871.136 137.452 871.16 137.009 871.16 136.496C871.16 136.402 871.09 136.286 870.95 136.146C870.81 136.006 870.74 135.889 870.74 135.796V135.726C870.506 135.819 870.086 135.866 869.48 135.866C868.873 135.866 868.126 135.772 867.24 135.586C866.96 135.539 866.213 135.422 865 135.236V143.286C865 144.499 865.07 146.412 865.21 149.026C865.35 151.592 865.42 153.506 865.42 154.766C865.42 155.466 865.233 156.072 864.86 156.586C864.486 157.099 863.996 157.356 863.39 157.356C862.503 157.356 861.873 156.492 861.5 154.766C861.126 152.992 860.94 150.682 860.94 147.836L861.08 142.166C861.126 140.579 861.15 138.899 861.15 137.126V135.936V134.956C861.15 134.209 861.126 133.719 861.08 133.486V133.136L861.29 129.076C861.29 127.302 861.22 124.666 861.08 121.166C860.94 117.666 860.87 115.029 860.87 113.256C860.87 112.696 861.056 112.206 861.43 111.786C861.803 111.366 862.27 111.156 862.83 111.156C864.323 111.156 865.07 112.556 865.07 115.356L864.93 124.036C864.836 126.649 864.79 129.566 864.79 132.786C865.49 133.019 866.75 133.136 868.57 133.136H871.16C871.253 132.856 871.3 132.576 871.3 132.296C871.3 130.056 871.16 126.742 870.88 122.356C870.553 118.249 870.39 114.912 870.39 112.346C870.39 111.832 870.576 111.412 870.95 111.086C871.37 110.712 871.86 110.526 872.42 110.526C872.746 110.526 873.213 110.642 873.82 110.876L874.45 111.156C874.45 117.782 874.683 126.626 875.15 137.686L875.78 155.396C875.78 156.049 875.523 156.562 875.01 156.936C874.543 157.309 873.983 157.496 873.33 157.496ZM887.404 158.406C886.797 158.406 886.237 158.196 885.724 157.776C885.257 157.356 885 156.842 884.954 156.236V154.416V153.016C884.907 152.596 884.884 152.106 884.884 151.546C884.884 150.566 884.814 149.072 884.674 147.066L884.534 142.586C884.534 140.299 884.604 136.892 884.744 132.366C884.93 128.306 885.024 124.899 885.024 122.146C885.024 121.492 884.954 120.512 884.814 119.206C884.674 117.852 884.604 116.872 884.604 116.266C884.604 112.952 885.584 111.296 887.544 111.296C889.084 111.296 890.857 111.599 892.864 112.206C894.917 112.812 895.944 113.536 895.944 114.376C895.944 114.842 895.734 115.286 895.314 115.706C894.94 116.079 894.474 116.382 893.914 116.616C891.954 115.916 890.18 115.449 888.594 115.216C888.64 115.916 888.664 116.919 888.664 118.226C888.664 120.092 888.64 121.772 888.594 123.266C888.454 125.506 888.384 127.186 888.384 128.306L888.594 129.426L889.714 129.356C890.087 129.309 890.554 129.286 891.114 129.286C893.354 129.286 894.474 129.939 894.474 131.246C894.474 131.759 894.264 132.202 893.844 132.576C893.424 132.902 892.887 133.066 892.234 133.066C891.394 133.066 890.74 133.019 890.274 132.926H888.524C888.617 134.139 888.664 135.912 888.664 138.246C888.664 140.579 888.64 142.679 888.594 144.546C888.454 147.392 888.384 149.516 888.384 150.916C888.384 153.529 888.43 154.836 888.524 154.836L890.834 154.766C891.627 154.719 892.584 154.696 893.704 154.696C895.477 154.696 896.364 155.256 896.364 156.376C896.364 157.029 896.06 157.519 895.454 157.846C894.894 158.219 894.194 158.406 893.354 158.406H887.404ZM923.186 157.706C922.626 157.706 922.206 157.566 921.926 157.286C921.646 156.959 921.436 156.422 921.296 155.676L920.876 154.346V154.206V153.996C920.876 152.456 919.266 147.206 916.046 138.246C912.873 129.286 910.376 122.659 908.556 118.366V153.576L908.836 154.066C908.883 154.159 908.976 154.322 909.116 154.556C909.256 154.789 909.326 155.022 909.326 155.256C909.326 155.862 909.116 156.376 908.696 156.796C908.276 157.216 907.763 157.426 907.156 157.426C905.663 157.426 904.916 156.002 904.916 153.156L904.846 141.186C904.799 137.592 904.776 133.579 904.776 129.146C904.776 127.652 904.846 125.482 904.986 122.636C905.126 119.696 905.196 117.526 905.196 116.126C905.196 113.932 906.036 112.206 907.716 110.946V111.366C907.996 111.272 908.183 111.226 908.276 111.226C909.349 111.226 910.703 113.092 912.336 116.826C913.643 119.812 914.809 122.962 915.836 126.276C916.909 129.589 918.309 134.302 920.036 140.416L920.736 142.936C921.809 146.716 922.626 149.422 923.186 151.056C924.119 141.022 924.586 129.169 924.586 115.496V114.586C924.539 114.306 924.516 114.002 924.516 113.676C924.516 112.276 925.076 111.576 926.196 111.576C926.849 111.576 927.339 111.832 927.666 112.346C928.039 112.859 928.226 113.512 928.226 114.306V119.556C928.133 126.742 927.853 134.536 927.386 142.936C926.919 151.336 926.359 156.072 925.706 157.146C924.353 157.519 923.513 157.706 923.186 157.706ZM177.126 246.966C176.192 246.966 175.376 245.566 174.676 242.766C174.069 240.292 173.556 237.236 173.136 233.596C172.762 229.909 172.366 225.266 171.946 219.666C171.712 216.026 171.386 212.129 170.966 207.976C170.639 204.522 170.242 202.306 169.776 201.326C170.196 200.486 170.872 200.066 171.806 200.066C173.299 200.066 174.046 201.606 174.046 204.686C174.046 208.326 174.536 213.646 175.516 220.646C176.496 227.599 177.056 232.662 177.196 235.836L177.546 233.456C178.012 230.329 178.409 227.389 178.736 224.636C179.109 221.836 179.412 218.826 179.646 215.606C179.972 212.012 180.136 208.466 180.136 204.966L182.026 204.126C182.632 204.126 183.122 204.289 183.496 204.616C183.916 204.896 184.126 205.316 184.126 205.876V206.436C184.872 209.049 185.479 211.919 185.946 215.046C186.459 218.126 186.902 221.766 187.276 225.966C187.556 229.186 187.882 232.196 188.256 234.996C189.142 228.742 189.586 221.042 189.586 211.896C189.586 210.449 189.772 208.676 190.146 206.576C190.472 204.429 190.636 202.679 190.636 201.326C190.496 200.906 190.426 200.509 190.426 200.136C190.426 199.016 191.126 198.456 192.526 198.456C193.086 198.456 193.529 198.596 193.856 198.876C194.182 199.156 194.346 199.552 194.346 200.066V201.116C194.346 201.816 194.276 202.422 194.136 202.936V203.286C193.529 205.152 193.226 207.299 193.226 209.726V214.836C193.226 217.776 192.876 222.162 192.176 227.996C191.429 233.689 191.056 237.936 191.056 240.736V241.996C191.056 243.069 190.939 243.979 190.706 244.726C190.426 245.659 189.749 246.126 188.676 246.126C187.929 246.126 187.346 245.892 186.926 245.426C186.552 244.912 186.366 244.282 186.366 243.536C186.366 239.756 185.969 234.856 185.176 228.836C184.756 226.129 184.312 223.399 183.846 220.646L182.726 213.296C182.539 214.649 182.446 215.979 182.446 217.286C182.446 219.899 182.259 223.352 181.886 227.646C181.512 231.939 180.929 236.116 180.136 240.176C179.249 244.702 178.246 246.966 177.126 246.966ZM205.245 246.406C204.639 246.406 204.079 246.196 203.565 245.776C203.099 245.356 202.842 244.842 202.795 244.236V242.416V241.016C202.749 240.596 202.725 240.106 202.725 239.546C202.725 238.566 202.655 237.072 202.515 235.066L202.375 230.586C202.375 228.299 202.445 224.892 202.585 220.366C202.772 216.306 202.865 212.899 202.865 210.146C202.865 209.492 202.795 208.512 202.655 207.206C202.515 205.852 202.445 204.872 202.445 204.266C202.445 200.952 203.425 199.296 205.385 199.296C206.925 199.296 208.699 199.599 210.705 200.206C212.759 200.812 213.785 201.536 213.785 202.376C213.785 202.842 213.575 203.286 213.155 203.706C212.782 204.079 212.315 204.382 211.755 204.616C209.795 203.916 208.022 203.449 206.435 203.216C206.482 203.916 206.505 204.919 206.505 206.226C206.505 208.092 206.482 209.772 206.435 211.266C206.295 213.506 206.225 215.186 206.225 216.306L206.435 217.426L207.555 217.356C207.929 217.309 208.395 217.286 208.955 217.286C211.195 217.286 212.315 217.939 212.315 219.246C212.315 219.759 212.105 220.202 211.685 220.576C211.265 220.902 210.729 221.066 210.075 221.066C209.235 221.066 208.582 221.019 208.115 220.926H206.365C206.459 222.139 206.505 223.912 206.505 226.246C206.505 228.579 206.482 230.679 206.435 232.546C206.295 235.392 206.225 237.516 206.225 238.916C206.225 241.529 206.272 242.836 206.365 242.836L208.675 242.766C209.469 242.719 210.425 242.696 211.545 242.696C213.319 242.696 214.205 243.256 214.205 244.376C214.205 245.029 213.902 245.519 213.295 245.846C212.735 246.219 212.035 246.406 211.195 246.406H205.245ZM238.621 244.376L238.551 241.646C238.504 240.852 238.481 239.966 238.481 238.986L238.551 236.606C238.411 236.092 238.061 230.982 237.501 221.276C236.941 211.569 236.614 205.339 236.521 202.586C233.814 202.492 232.088 202.212 231.341 201.746C230.828 201.372 230.571 200.952 230.571 200.486C230.571 200.112 230.804 199.786 231.271 199.506C231.784 199.179 232.298 199.016 232.811 199.016C234.118 199.016 235.704 199.109 237.571 199.296C239.344 199.529 240.931 199.646 242.331 199.646H242.891H243.451C244.898 199.646 245.621 200.206 245.621 201.326C245.621 201.886 245.388 202.352 244.921 202.726C244.454 203.052 243.918 203.216 243.311 203.216C242.891 203.216 242.284 203.146 241.491 203.006L240.091 202.726L240.021 203.076L239.951 203.426C239.951 207.579 240.348 214.206 241.141 223.306C241.888 231.846 242.261 238.472 242.261 243.186C242.261 243.746 242.004 244.236 241.491 244.656C241.024 245.076 240.488 245.286 239.881 245.286L238.621 244.376ZM264.931 245.496C263.345 245.496 262.551 241.646 262.551 233.946L262.621 229.956L262.691 226.736V226.526V225.826C262.738 225.452 262.761 225.009 262.761 224.496C262.761 224.402 262.691 224.286 262.551 224.146C262.411 224.006 262.341 223.889 262.341 223.796V223.726C262.108 223.819 261.688 223.866 261.081 223.866C260.475 223.866 259.728 223.772 258.841 223.586C258.561 223.539 257.815 223.422 256.601 223.236V231.286C256.601 232.499 256.671 234.412 256.811 237.026C256.951 239.592 257.021 241.506 257.021 242.766C257.021 243.466 256.835 244.072 256.461 244.586C256.088 245.099 255.598 245.356 254.991 245.356C254.105 245.356 253.475 244.492 253.101 242.766C252.728 240.992 252.541 238.682 252.541 235.836L252.681 230.166C252.728 228.579 252.751 226.899 252.751 225.126V223.936V222.956C252.751 222.209 252.728 221.719 252.681 221.486V221.136L252.891 217.076C252.891 215.302 252.821 212.666 252.681 209.166C252.541 205.666 252.471 203.029 252.471 201.256C252.471 200.696 252.658 200.206 253.031 199.786C253.405 199.366 253.871 199.156 254.431 199.156C255.925 199.156 256.671 200.556 256.671 203.356L256.531 212.036C256.438 214.649 256.391 217.566 256.391 220.786C257.091 221.019 258.351 221.136 260.171 221.136H262.761C262.855 220.856 262.901 220.576 262.901 220.296C262.901 218.056 262.761 214.742 262.481 210.356C262.155 206.249 261.991 202.912 261.991 200.346C261.991 199.832 262.178 199.412 262.551 199.086C262.971 198.712 263.461 198.526 264.021 198.526C264.348 198.526 264.815 198.642 265.421 198.876L266.051 199.156C266.051 205.782 266.285 214.626 266.751 225.686L267.381 243.396C267.381 244.049 267.125 244.562 266.611 244.936C266.145 245.309 265.585 245.496 264.931 245.496ZM288.035 246.686C287.008 246.686 286.075 245.566 285.235 243.326C284.255 240.899 283.532 238.402 283.065 235.836L282.575 233.456C281.222 226.782 280.358 222.979 279.985 222.046H279.145C279.145 223.399 279.122 224.636 279.075 225.756V229.606C279.075 235.859 279.518 240.736 280.405 244.236L279.635 246.126H277.675L276.765 245.076L276.835 240.386C276.835 236.186 276.625 229.816 276.205 221.276C275.832 212.176 275.645 205.806 275.645 202.166C275.645 199.926 276.415 198.806 277.955 198.806C280.475 198.806 282.528 199.459 284.115 200.766C285.748 202.072 286.565 203.892 286.565 206.226V211.126C286.565 211.826 286.448 212.642 286.215 213.576C285.982 214.462 285.725 215.186 285.445 215.746L284.115 218.266L282.995 220.366L283.345 222.046L284.325 227.016C284.978 230.609 285.608 233.526 286.215 235.766C286.822 238.006 287.568 240.036 288.455 241.856L288.875 242.696C289.342 243.629 289.575 244.376 289.575 244.936C289.575 245.402 289.435 245.799 289.155 246.126C288.875 246.499 288.502 246.686 288.035 246.686ZM279.425 218.616C280.452 218.102 281.315 216.702 282.015 214.416C282.762 212.082 283.135 209.936 283.135 207.976C283.135 206.482 282.948 205.082 282.575 203.776C282.342 203.029 281.945 202.469 281.385 202.096C280.872 201.676 280.218 201.466 279.425 201.466L279.285 201.816L279.145 202.446L279.285 210.706C279.378 213.132 279.425 215.769 279.425 218.616ZM304.62 246.826C303.406 246.826 302.286 246.429 301.26 245.636C300.233 244.889 299.393 243.862 298.74 242.556C297.386 239.709 296.546 236.606 296.22 233.246C295.8 230.072 295.59 227.016 295.59 224.076C295.59 223.516 295.613 223.049 295.66 222.676V221.416C295.66 221.182 295.636 221.066 295.59 221.066V219.806L295.66 214.906C295.706 213.412 295.893 211.032 296.22 207.766C296.453 205.526 296.99 203.356 297.83 201.256C298.156 200.322 298.576 199.622 299.09 199.156C299.603 198.642 300.186 198.386 300.84 198.386C302.706 198.386 304.386 198.736 305.88 199.436C307.373 200.089 308.633 201.022 309.66 202.236C310.593 203.402 311.386 204.849 312.04 206.576C312.693 208.256 313.16 210.052 313.44 211.966C313.72 213.926 313.86 216.002 313.86 218.196V218.756C313.86 220.202 313.883 221.509 313.93 222.676L314 226.666C314 240.106 310.873 246.826 304.62 246.826ZM304.34 243.886C305.18 243.886 305.95 243.559 306.65 242.906C307.35 242.206 307.886 241.272 308.26 240.106C309.146 237.726 309.683 235.159 309.87 232.406C310.103 230.026 310.22 227.972 310.22 226.246C310.22 224.146 310.056 221.392 309.73 217.986C309.45 214.392 309.31 211.709 309.31 209.936V208.676C309.216 206.902 308.61 205.362 307.49 204.056C306.416 202.749 305.086 202.096 303.5 202.096C301.913 202.096 300.863 203.006 300.35 204.826C299.883 206.272 299.65 208.139 299.65 210.426C299.65 211.312 299.673 212.059 299.72 212.666V214.556L299.58 217.776C299.486 218.756 299.44 219.829 299.44 220.996C299.44 223.516 299.51 226.012 299.65 228.486C299.836 231.986 300.303 235.392 301.05 238.706C301.796 242.159 302.893 243.886 304.34 243.886ZM326.764 246.966C325.831 246.966 325.014 245.566 324.314 242.766C323.708 240.292 323.194 237.236 322.774 233.596C322.401 229.909 322.004 225.266 321.584 219.666C321.351 216.026 321.024 212.129 320.604 207.976C320.278 204.522 319.881 202.306 319.414 201.326C319.834 200.486 320.511 200.066 321.444 200.066C322.938 200.066 323.684 201.606 323.684 204.686C323.684 208.326 324.174 213.646 325.154 220.646C326.134 227.599 326.694 232.662 326.834 235.836L327.184 233.456C327.651 230.329 328.048 227.389 328.374 224.636C328.748 221.836 329.051 218.826 329.284 215.606C329.611 212.012 329.774 208.466 329.774 204.966L331.664 204.126C332.271 204.126 332.761 204.289 333.134 204.616C333.554 204.896 333.764 205.316 333.764 205.876V206.436C334.511 209.049 335.118 211.919 335.584 215.046C336.098 218.126 336.541 221.766 336.914 225.966C337.194 229.186 337.521 232.196 337.894 234.996C338.781 228.742 339.224 221.042 339.224 211.896C339.224 210.449 339.411 208.676 339.784 206.576C340.111 204.429 340.274 202.679 340.274 201.326C340.134 200.906 340.064 200.509 340.064 200.136C340.064 199.016 340.764 198.456 342.164 198.456C342.724 198.456 343.168 198.596 343.494 198.876C343.821 199.156 343.984 199.552 343.984 200.066V201.116C343.984 201.816 343.914 202.422 343.774 202.936V203.286C343.168 205.152 342.864 207.299 342.864 209.726V214.836C342.864 217.776 342.514 222.162 341.814 227.996C341.068 233.689 340.694 237.936 340.694 240.736V241.996C340.694 243.069 340.578 243.979 340.344 244.726C340.064 245.659 339.388 246.126 338.314 246.126C337.568 246.126 336.984 245.892 336.564 245.426C336.191 244.912 336.004 244.282 336.004 243.536C336.004 239.756 335.608 234.856 334.814 228.836C334.394 226.129 333.951 223.399 333.484 220.646L332.364 213.296C332.178 214.649 332.084 215.979 332.084 217.286C332.084 219.899 331.898 223.352 331.524 227.646C331.151 231.939 330.568 236.116 329.774 240.176C328.888 244.702 327.884 246.966 326.764 246.966ZM378.237 246.126C377.164 246.126 376.371 245.962 375.857 245.636C375.344 245.309 375.087 244.702 375.087 243.816C375.087 242.416 374.854 240.036 374.387 236.676L374.107 235.206L367.177 234.156C366.897 235.229 366.501 237.399 365.987 240.666C365.707 242.952 365.264 244.469 364.657 245.216C364.331 245.636 363.864 245.846 363.257 245.846C362.697 245.846 362.184 245.682 361.717 245.356C361.251 244.982 361.017 244.539 361.017 244.026L361.157 243.676L361.227 243.396C364.307 231.402 366.641 219.572 368.227 207.906C368.227 207.719 368.251 207.416 368.297 206.996C368.344 206.529 368.391 205.876 368.437 205.036C368.577 203.309 368.717 201.932 368.857 200.906C369.044 199.879 369.324 199.109 369.697 198.596H372.077C372.731 198.596 373.291 198.759 373.757 199.086C374.224 199.366 374.457 199.786 374.457 200.346C374.457 203.892 374.947 209.166 375.927 216.166C376.861 223.352 377.327 228.392 377.327 231.286C377.327 231.566 377.444 232.289 377.677 233.456C377.911 234.529 378.027 235.229 378.027 235.556C378.027 235.882 378.261 237.282 378.727 239.756C379.147 241.996 379.357 243.442 379.357 244.096V244.166C379.357 245.192 378.984 245.846 378.237 246.126ZM373.617 232.686C373.477 231.986 373.407 231.122 373.407 230.096C373.407 225.896 373.034 220.529 372.287 213.996L371.587 206.716C369.581 217.682 368.204 225.966 367.457 231.566C368.157 232.032 370.211 232.406 373.617 232.686ZM390.475 246.966C389.542 246.966 388.725 245.566 388.025 242.766C387.419 240.292 386.905 237.236 386.485 233.596C386.112 229.909 385.715 225.266 385.295 219.666C385.062 216.026 384.735 212.129 384.315 207.976C383.989 204.522 383.592 202.306 383.125 201.326C383.545 200.486 384.222 200.066 385.155 200.066C386.649 200.066 387.395 201.606 387.395 204.686C387.395 208.326 387.885 213.646 388.865 220.646C389.845 227.599 390.405 232.662 390.545 235.836L390.895 233.456C391.362 230.329 391.759 227.389 392.085 224.636C392.459 221.836 392.762 218.826 392.995 215.606C393.322 212.012 393.485 208.466 393.485 204.966L395.375 204.126C395.982 204.126 396.472 204.289 396.845 204.616C397.265 204.896 397.475 205.316 397.475 205.876V206.436C398.222 209.049 398.829 211.919 399.295 215.046C399.809 218.126 400.252 221.766 400.625 225.966C400.905 229.186 401.232 232.196 401.605 234.996C402.492 228.742 402.935 221.042 402.935 211.896C402.935 210.449 403.122 208.676 403.495 206.576C403.822 204.429 403.985 202.679 403.985 201.326C403.845 200.906 403.775 200.509 403.775 200.136C403.775 199.016 404.475 198.456 405.875 198.456C406.435 198.456 406.879 198.596 407.205 198.876C407.532 199.156 407.695 199.552 407.695 200.066V201.116C407.695 201.816 407.625 202.422 407.485 202.936V203.286C406.879 205.152 406.575 207.299 406.575 209.726V214.836C406.575 217.776 406.225 222.162 405.525 227.996C404.779 233.689 404.405 237.936 404.405 240.736V241.996C404.405 243.069 404.289 243.979 404.055 244.726C403.775 245.659 403.099 246.126 402.025 246.126C401.279 246.126 400.695 245.892 400.275 245.426C399.902 244.912 399.715 244.282 399.715 243.536C399.715 239.756 399.319 234.856 398.525 228.836C398.105 226.129 397.662 223.399 397.195 220.646L396.075 213.296C395.889 214.649 395.795 215.979 395.795 217.286C395.795 219.899 395.609 223.352 395.235 227.646C394.862 231.939 394.279 236.116 393.485 240.176C392.599 244.702 391.595 246.966 390.475 246.966ZM429.165 246.126C428.092 246.126 427.298 245.962 426.785 245.636C426.272 245.309 426.015 244.702 426.015 243.816C426.015 242.416 425.782 240.036 425.315 236.676L425.035 235.206L418.105 234.156C417.825 235.229 417.428 237.399 416.915 240.666C416.635 242.952 416.192 244.469 415.585 245.216C415.258 245.636 414.792 245.846 414.185 245.846C413.625 245.846 413.112 245.682 412.645 245.356C412.178 244.982 411.945 244.539 411.945 244.026L412.085 243.676L412.155 243.396C415.235 231.402 417.568 219.572 419.155 207.906C419.155 207.719 419.178 207.416 419.225 206.996C419.272 206.529 419.318 205.876 419.365 205.036C419.505 203.309 419.645 201.932 419.785 200.906C419.972 199.879 420.252 199.109 420.625 198.596H423.005C423.658 198.596 424.218 198.759 424.685 199.086C425.152 199.366 425.385 199.786 425.385 200.346C425.385 203.892 425.875 209.166 426.855 216.166C427.788 223.352 428.255 228.392 428.255 231.286C428.255 231.566 428.372 232.289 428.605 233.456C428.838 234.529 428.955 235.229 428.955 235.556C428.955 235.882 429.188 237.282 429.655 239.756C430.075 241.996 430.285 243.442 430.285 244.096V244.166C430.285 245.192 429.912 245.846 429.165 246.126ZM424.545 232.686C424.405 231.986 424.335 231.122 424.335 230.096C424.335 225.896 423.962 220.529 423.215 213.996L422.515 206.716C420.508 217.682 419.132 225.966 418.385 231.566C419.085 232.032 421.138 232.406 424.545 232.686ZM442.033 246.476C441.24 246.476 440.586 245.962 440.073 244.936C440.586 243.956 440.843 239.989 440.843 233.036C440.843 231.402 440.726 229.629 440.493 227.716L440.283 225.686C440.143 224.426 440.073 223.469 440.073 222.816V220.996C439.606 219.829 438.743 217.659 437.483 214.486C436.27 211.312 435.29 208.652 434.543 206.506C433.656 204.032 433.213 202.352 433.213 201.466V201.116L434.823 199.926C435.616 200.019 436.456 201.046 437.343 203.006C438.09 204.732 438.906 207.206 439.793 210.426C440.726 213.646 441.193 215.349 441.193 215.536C441.38 215.022 441.753 213.272 442.313 210.286C442.873 207.299 443.503 204.662 444.203 202.376C444.996 200.089 445.813 198.946 446.653 198.946C447.12 198.946 447.516 199.086 447.843 199.366C448.216 199.646 448.403 199.996 448.403 200.416C448.403 202.796 447.75 206.156 446.443 210.496C445.043 215.209 444.343 218.616 444.343 220.716V241.786C444.343 244.912 443.573 246.476 442.033 246.476ZM472.4 245.426C468.34 245.426 466.31 244.726 466.31 243.326C466.31 242.206 467.034 241.646 468.48 241.646H469.25L469.95 241.716C470.324 241.716 470.58 241.599 470.72 241.366C470.86 241.132 470.93 240.712 470.93 240.106C470.93 239.312 470.884 238.076 470.79 236.396C470.65 235.276 470.487 233.269 470.3 230.376C469.88 223.236 469.67 217.846 469.67 214.206C469.67 212.899 469.694 211.709 469.74 210.636L469.81 207.066C469.81 205.526 469.74 204.242 469.6 203.216C468.854 203.402 468.317 203.496 467.99 203.496C466.87 203.496 466.31 202.936 466.31 201.816C466.31 201.256 466.66 200.766 467.36 200.346C468.06 199.926 468.947 199.622 470.02 199.436C471.887 199.062 473.544 198.876 474.99 198.876C475.55 198.876 476.017 199.086 476.39 199.506C476.81 199.879 477.02 200.322 477.02 200.836C477.02 201.349 476.857 201.792 476.53 202.166C476.25 202.539 475.877 202.726 475.41 202.726C475.13 202.726 474.897 202.702 474.71 202.656H474.15C473.684 202.656 473.334 202.772 473.1 203.006C472.914 203.192 472.82 203.566 472.82 204.126C472.82 208.652 473.1 215.466 473.66 224.566C473.754 226.246 473.94 228.719 474.22 231.986C474.454 234.132 474.57 236.326 474.57 238.566V241.226C474.85 241.179 475.317 241.156 475.97 241.156C477.93 241.156 478.91 241.972 478.91 243.606V244.026L477.16 245.216C477.114 245.216 476.95 245.239 476.67 245.286C476.437 245.286 475.97 245.286 475.27 245.286C473.777 245.379 472.82 245.426 472.4 245.426ZM488.611 244.376L488.541 241.646C488.495 240.852 488.471 239.966 488.471 238.986L488.541 236.606C488.401 236.092 488.051 230.982 487.491 221.276C486.931 211.569 486.605 205.339 486.511 202.586C483.805 202.492 482.078 202.212 481.331 201.746C480.818 201.372 480.561 200.952 480.561 200.486C480.561 200.112 480.795 199.786 481.261 199.506C481.775 199.179 482.288 199.016 482.801 199.016C484.108 199.016 485.695 199.109 487.561 199.296C489.335 199.529 490.921 199.646 492.321 199.646H492.881H493.441C494.888 199.646 495.611 200.206 495.611 201.326C495.611 201.886 495.378 202.352 494.911 202.726C494.445 203.052 493.908 203.216 493.301 203.216C492.881 203.216 492.275 203.146 491.481 203.006L490.081 202.726L490.011 203.076L489.941 203.426C489.941 207.579 490.338 214.206 491.131 223.306C491.878 231.846 492.251 238.472 492.251 243.186C492.251 243.746 491.995 244.236 491.481 244.656C491.015 245.076 490.478 245.286 489.871 245.286L488.611 244.376ZM543.595 249.136C542.148 249.136 541.425 247.689 541.425 244.796V240.316V235.836C541.425 233.502 541.261 230.446 540.935 226.666C540.561 222.419 540.375 219.502 540.375 217.916L540.515 213.576C540.608 212.316 540.655 210.892 540.655 209.306C540.468 209.912 539.698 213.132 538.345 218.966C536.991 224.612 535.591 229.839 534.145 234.646C532.745 239.266 531.601 241.576 530.715 241.576C529.828 241.576 529.105 241.319 528.545 240.806C528.031 240.246 527.775 239.499 527.775 238.566C527.775 236.512 526.935 232.149 525.255 225.476C523.621 218.802 522.128 213.342 520.775 209.096L520.355 217.006C519.981 223.679 519.725 229.232 519.585 233.666C519.491 237.959 519.445 240.899 519.445 242.486C519.445 242.859 519.468 243.209 519.515 243.536V244.516C519.515 245.309 519.351 245.892 519.025 246.266C518.698 246.686 518.091 246.896 517.205 246.896C516.738 246.896 516.295 246.709 515.875 246.336C515.455 246.009 515.245 245.636 515.245 245.216C515.245 240.456 515.595 233.316 516.295 223.796C516.995 214.276 517.345 207.136 517.345 202.376C517.065 201.956 516.925 201.512 516.925 201.046C516.925 200.486 517.181 200.066 517.695 199.786C518.255 199.459 518.908 199.296 519.655 199.296C520.261 199.296 521.381 201.489 523.015 205.876C524.648 210.262 526.281 215.232 527.915 220.786C529.548 226.339 530.598 230.352 531.065 232.826C531.438 231.566 531.741 230.399 531.975 229.326L532.395 227.646C533.888 221.112 535.381 215.209 536.875 209.936C537.761 206.716 538.625 204.196 539.465 202.376C540.305 200.416 541.075 199.436 541.775 199.436C542.428 199.436 543.011 199.622 543.525 199.996C544.085 200.322 544.365 200.766 544.365 201.326C544.365 204.686 544.505 209.726 544.785 216.446C545.111 222.699 545.275 227.552 545.275 231.006L545.205 234.716L545.065 238.426C545.065 238.986 545.135 239.826 545.275 240.946L545.485 243.396C545.531 243.816 545.555 244.142 545.555 244.376C545.601 244.609 545.625 244.749 545.625 244.796C545.858 245.402 545.975 245.846 545.975 246.126C545.975 246.919 545.741 247.619 545.275 248.226C544.808 248.832 544.248 249.136 543.595 249.136ZM562.113 246.546C560.993 246.546 559.99 246.289 559.103 245.776C558.216 245.309 557.493 244.609 556.933 243.676C555.813 241.716 555.09 239.499 554.763 237.026C554.436 234.879 554.273 232.312 554.273 229.326C554.133 224.286 554.063 218.126 554.063 210.846L553.993 205.456C553.946 205.176 553.923 204.709 553.923 204.056C553.83 202.282 553.783 201.209 553.783 200.836C554.203 199.856 554.693 199.366 555.253 199.366C555.813 199.366 556.303 199.786 556.723 200.626C557.19 201.466 557.423 202.376 557.423 203.356V222.396C557.423 224.262 557.586 226.736 557.913 229.816C558.24 233.642 558.403 236.116 558.403 237.236C558.403 240.689 559.873 242.416 562.813 242.416C566.173 242.416 567.853 229.862 567.853 204.756V200.836V200.206C567.806 200.066 567.783 199.879 567.783 199.646C567.783 199.086 567.9 198.689 568.133 198.456C568.413 198.176 568.926 198.036 569.673 198.036C570.28 198.036 570.746 198.222 571.073 198.596C571.446 198.922 571.68 199.319 571.773 199.786C571.82 200.066 571.843 200.602 571.843 201.396C571.843 202.142 571.773 203.332 571.633 204.966C571.446 206.319 571.353 207.486 571.353 208.466C571.353 209.539 571.306 210.496 571.213 211.336L571.073 214.276V214.836C571.12 215.022 571.143 215.232 571.143 215.466C571.143 236.186 568.133 246.546 562.113 246.546ZM581.176 246.476C580.336 246.336 579.613 246.032 579.006 245.566C578.446 245.099 578.119 244.492 578.026 243.746L578.796 242.556C579.076 242.556 579.519 242.649 580.126 242.836C580.826 242.976 581.363 243.046 581.736 243.046C582.576 243.046 583.323 242.672 583.976 241.926C584.676 241.179 585.189 240.199 585.516 238.986C586.123 236.746 586.426 234.739 586.426 232.966C586.426 229.886 585.446 226.642 583.486 223.236L582.716 221.906C581.829 220.366 581.083 218.989 580.476 217.776C579.869 216.562 579.356 215.256 578.936 213.856C578.376 212.036 578.096 210.216 578.096 208.396C578.096 206.342 578.563 204.196 579.496 201.956C579.963 200.882 580.616 200.019 581.456 199.366C582.343 198.666 583.323 198.316 584.396 198.316C585.236 198.316 586.006 198.596 586.706 199.156C587.453 199.669 587.826 200.299 587.826 201.046C587.826 201.466 587.663 201.792 587.336 202.026C587.009 202.259 586.613 202.376 586.146 202.376C585.633 202.376 585.143 202.236 584.676 201.956C583.649 202.002 582.833 202.912 582.226 204.686C581.713 206.319 581.456 207.672 581.456 208.746C581.456 210.099 581.666 211.476 582.086 212.876C582.506 214.229 583.043 215.466 583.696 216.586L585.236 219.386L587.686 224.006C588.339 225.312 588.853 226.829 589.226 228.556C589.646 230.282 589.856 232.032 589.856 233.806C589.856 236.652 589.203 239.359 587.896 241.926C587.243 243.232 586.309 244.282 585.096 245.076C583.929 245.869 582.623 246.266 581.176 246.266V246.476ZM601.131 244.376L601.061 241.646C601.014 240.852 600.991 239.966 600.991 238.986L601.061 236.606C600.921 236.092 600.571 230.982 600.011 221.276C599.451 211.569 599.124 205.339 599.031 202.586C596.324 202.492 594.598 202.212 593.851 201.746C593.338 201.372 593.081 200.952 593.081 200.486C593.081 200.112 593.314 199.786 593.781 199.506C594.294 199.179 594.808 199.016 595.321 199.016C596.628 199.016 598.214 199.109 600.081 199.296C601.854 199.529 603.441 199.646 604.841 199.646H605.401H605.961C607.408 199.646 608.131 200.206 608.131 201.326C608.131 201.886 607.898 202.352 607.431 202.726C606.964 203.052 606.428 203.216 605.821 203.216C605.401 203.216 604.794 203.146 604.001 203.006L602.601 202.726L602.531 203.076L602.461 203.426C602.461 207.579 602.858 214.206 603.651 223.306C604.398 231.846 604.771 238.472 604.771 243.186C604.771 243.746 604.514 244.236 604.001 244.656C603.534 245.076 602.998 245.286 602.391 245.286L601.131 244.376ZM637.004 246.056C635.698 246.056 634.508 245.822 633.434 245.356C632.361 244.842 631.451 244.189 630.704 243.396C630.098 242.742 629.538 241.786 629.024 240.526C628.511 239.266 628.138 238.052 627.904 236.886C627.671 235.999 627.484 234.716 627.344 233.036C627.204 231.356 627.111 229.909 627.064 228.696V224.636V221.836C627.064 219.129 627.111 216.912 627.204 215.186C627.298 213.086 627.601 210.869 628.114 208.536C628.534 206.436 629.258 204.592 630.284 203.006C631.264 201.419 632.641 200.322 634.414 199.716C635.254 199.389 636.234 199.226 637.354 199.226C639.361 199.226 640.364 199.809 640.364 200.976C640.364 201.536 640.131 202.002 639.664 202.376C639.244 202.702 638.731 202.866 638.124 202.866C637.844 202.866 637.588 202.842 637.354 202.796C637.168 202.749 636.934 202.726 636.654 202.726C635.861 202.726 635.161 203.146 634.554 203.986C633.948 204.826 633.434 205.992 633.014 207.486C632.268 210.379 631.754 213.529 631.474 216.936C631.288 220.109 631.194 222.466 631.194 224.006C631.194 225.592 631.264 227.762 631.404 230.516C631.591 233.082 631.988 235.322 632.594 237.236C632.921 238.356 633.294 239.266 633.714 239.966C634.181 240.619 634.764 241.179 635.464 241.646C636.258 242.159 637.074 242.416 637.914 242.416C640.154 242.416 641.274 238.682 641.274 231.216V227.996C640.948 227.856 640.411 227.786 639.664 227.786H639.034H638.264C636.631 227.786 635.814 227.249 635.814 226.176C635.814 225.522 636.024 225.032 636.444 224.706C636.911 224.332 637.494 224.146 638.194 224.146V224.216H639.174C643.374 224.216 645.474 224.939 645.474 226.386C645.474 226.806 645.358 227.646 645.124 228.906C644.844 230.026 644.704 230.866 644.704 231.426C644.704 232.219 644.774 233.456 644.914 235.136L645.054 238.846C645.054 241.086 644.261 242.859 642.674 244.166C641.134 245.426 639.244 246.056 637.004 246.056ZM660.293 246.826C659.08 246.826 657.96 246.429 656.933 245.636C655.907 244.889 655.067 243.862 654.413 242.556C653.06 239.709 652.22 236.606 651.893 233.246C651.473 230.072 651.263 227.016 651.263 224.076C651.263 223.516 651.287 223.049 651.333 222.676V221.416C651.333 221.182 651.31 221.066 651.263 221.066V219.806L651.333 214.906C651.38 213.412 651.567 211.032 651.893 207.766C652.127 205.526 652.663 203.356 653.503 201.256C653.83 200.322 654.25 199.622 654.763 199.156C655.277 198.642 655.86 198.386 656.513 198.386C658.38 198.386 660.06 198.736 661.553 199.436C663.047 200.089 664.307 201.022 665.333 202.236C666.267 203.402 667.06 204.849 667.713 206.576C668.367 208.256 668.833 210.052 669.113 211.966C669.393 213.926 669.533 216.002 669.533 218.196V218.756C669.533 220.202 669.557 221.509 669.603 222.676L669.673 226.666C669.673 240.106 666.547 246.826 660.293 246.826ZM660.013 243.886C660.853 243.886 661.623 243.559 662.323 242.906C663.023 242.206 663.56 241.272 663.933 240.106C664.82 237.726 665.357 235.159 665.543 232.406C665.777 230.026 665.893 227.972 665.893 226.246C665.893 224.146 665.73 221.392 665.403 217.986C665.123 214.392 664.983 211.709 664.983 209.936V208.676C664.89 206.902 664.283 205.362 663.163 204.056C662.09 202.749 660.76 202.096 659.173 202.096C657.587 202.096 656.537 203.006 656.023 204.826C655.557 206.272 655.323 208.139 655.323 210.426C655.323 211.312 655.347 212.059 655.393 212.666V214.556L655.253 217.776C655.16 218.756 655.113 219.829 655.113 220.996C655.113 223.516 655.183 226.012 655.323 228.486C655.51 231.986 655.977 235.392 656.723 238.706C657.47 242.159 658.567 243.886 660.013 243.886ZM691.371 246.476C690.531 246.336 689.808 246.032 689.201 245.566C688.641 245.099 688.315 244.492 688.221 243.746L688.991 242.556C689.271 242.556 689.715 242.649 690.321 242.836C691.021 242.976 691.558 243.046 691.931 243.046C692.771 243.046 693.518 242.672 694.171 241.926C694.871 241.179 695.385 240.199 695.711 238.986C696.318 236.746 696.621 234.739 696.621 232.966C696.621 229.886 695.641 226.642 693.681 223.236L692.911 221.906C692.025 220.366 691.278 218.989 690.671 217.776C690.065 216.562 689.551 215.256 689.131 213.856C688.571 212.036 688.291 210.216 688.291 208.396C688.291 206.342 688.758 204.196 689.691 201.956C690.158 200.882 690.811 200.019 691.651 199.366C692.538 198.666 693.518 198.316 694.591 198.316C695.431 198.316 696.201 198.596 696.901 199.156C697.648 199.669 698.021 200.299 698.021 201.046C698.021 201.466 697.858 201.792 697.531 202.026C697.205 202.259 696.808 202.376 696.341 202.376C695.828 202.376 695.338 202.236 694.871 201.956C693.845 202.002 693.028 202.912 692.421 204.686C691.908 206.319 691.651 207.672 691.651 208.746C691.651 210.099 691.861 211.476 692.281 212.876C692.701 214.229 693.238 215.466 693.891 216.586L695.431 219.386L697.881 224.006C698.535 225.312 699.048 226.829 699.421 228.556C699.841 230.282 700.051 232.032 700.051 233.806C700.051 236.652 699.398 239.359 698.091 241.926C697.438 243.232 696.505 244.282 695.291 245.076C694.125 245.869 692.818 246.266 691.371 246.266V246.476ZM715.596 246.826C714.383 246.826 713.263 246.429 712.236 245.636C711.21 244.889 710.37 243.862 709.716 242.556C708.363 239.709 707.523 236.606 707.196 233.246C706.776 230.072 706.566 227.016 706.566 224.076C706.566 223.516 706.59 223.049 706.636 222.676V221.416C706.636 221.182 706.613 221.066 706.566 221.066V219.806L706.636 214.906C706.683 213.412 706.87 211.032 707.196 207.766C707.43 205.526 707.966 203.356 708.806 201.256C709.133 200.322 709.553 199.622 710.066 199.156C710.58 198.642 711.163 198.386 711.816 198.386C713.683 198.386 715.363 198.736 716.856 199.436C718.35 200.089 719.61 201.022 720.636 202.236C721.57 203.402 722.363 204.849 723.016 206.576C723.67 208.256 724.136 210.052 724.416 211.966C724.696 213.926 724.836 216.002 724.836 218.196V218.756C724.836 220.202 724.86 221.509 724.906 222.676L724.976 226.666C724.976 240.106 721.85 246.826 715.596 246.826ZM715.316 243.886C716.156 243.886 716.926 243.559 717.626 242.906C718.326 242.206 718.863 241.272 719.236 240.106C720.123 237.726 720.66 235.159 720.846 232.406C721.08 230.026 721.196 227.972 721.196 226.246C721.196 224.146 721.033 221.392 720.706 217.986C720.426 214.392 720.286 211.709 720.286 209.936V208.676C720.193 206.902 719.586 205.362 718.466 204.056C717.393 202.749 716.063 202.096 714.476 202.096C712.89 202.096 711.84 203.006 711.326 204.826C710.86 206.272 710.626 208.139 710.626 210.426C710.626 211.312 710.65 212.059 710.696 212.666V214.556L710.556 217.776C710.463 218.756 710.416 219.829 710.416 220.996C710.416 223.516 710.486 226.012 710.626 228.486C710.813 231.986 711.28 235.392 712.026 238.706C712.773 242.159 713.87 243.886 715.316 243.886ZM760.841 249.136C759.394 249.136 758.671 247.689 758.671 244.796V240.316V235.836C758.671 233.502 758.508 230.446 758.181 226.666C757.808 222.419 757.621 219.502 757.621 217.916L757.761 213.576C757.854 212.316 757.901 210.892 757.901 209.306C757.714 209.912 756.944 213.132 755.591 218.966C754.238 224.612 752.838 229.839 751.391 234.646C749.991 239.266 748.848 241.576 747.961 241.576C747.074 241.576 746.351 241.319 745.791 240.806C745.278 240.246 745.021 239.499 745.021 238.566C745.021 236.512 744.181 232.149 742.501 225.476C740.868 218.802 739.374 213.342 738.021 209.096L737.601 217.006C737.228 223.679 736.971 229.232 736.831 233.666C736.738 237.959 736.691 240.899 736.691 242.486C736.691 242.859 736.714 243.209 736.761 243.536V244.516C736.761 245.309 736.598 245.892 736.271 246.266C735.944 246.686 735.338 246.896 734.451 246.896C733.984 246.896 733.541 246.709 733.121 246.336C732.701 246.009 732.491 245.636 732.491 245.216C732.491 240.456 732.841 233.316 733.541 223.796C734.241 214.276 734.591 207.136 734.591 202.376C734.311 201.956 734.171 201.512 734.171 201.046C734.171 200.486 734.428 200.066 734.941 199.786C735.501 199.459 736.154 199.296 736.901 199.296C737.508 199.296 738.628 201.489 740.261 205.876C741.894 210.262 743.528 215.232 745.161 220.786C746.794 226.339 747.844 230.352 748.311 232.826C748.684 231.566 748.988 230.399 749.221 229.326L749.641 227.646C751.134 221.112 752.628 215.209 754.121 209.936C755.008 206.716 755.871 204.196 756.711 202.376C757.551 200.416 758.321 199.436 759.021 199.436C759.674 199.436 760.258 199.622 760.771 199.996C761.331 200.322 761.611 200.766 761.611 201.326C761.611 204.686 761.751 209.726 762.031 216.446C762.358 222.699 762.521 227.552 762.521 231.006L762.451 234.716L762.311 238.426C762.311 238.986 762.381 239.826 762.521 240.946L762.731 243.396C762.778 243.816 762.801 244.142 762.801 244.376C762.848 244.609 762.871 244.749 762.871 244.796C763.104 245.402 763.221 245.846 763.221 246.126C763.221 246.919 762.988 247.619 762.521 248.226C762.054 248.832 761.494 249.136 760.841 249.136ZM775.089 246.406C774.482 246.406 773.922 246.196 773.409 245.776C772.942 245.356 772.686 244.842 772.639 244.236V242.416V241.016C772.592 240.596 772.569 240.106 772.569 239.546C772.569 238.566 772.499 237.072 772.359 235.066L772.219 230.586C772.219 228.299 772.289 224.892 772.429 220.366C772.616 216.306 772.709 212.899 772.709 210.146C772.709 209.492 772.639 208.512 772.499 207.206C772.359 205.852 772.289 204.872 772.289 204.266C772.289 200.952 773.269 199.296 775.229 199.296C776.769 199.296 778.542 199.599 780.549 200.206C782.602 200.812 783.629 201.536 783.629 202.376C783.629 202.842 783.419 203.286 782.999 203.706C782.626 204.079 782.159 204.382 781.599 204.616C779.639 203.916 777.866 203.449 776.279 203.216C776.326 203.916 776.349 204.919 776.349 206.226C776.349 208.092 776.326 209.772 776.279 211.266C776.139 213.506 776.069 215.186 776.069 216.306L776.279 217.426L777.399 217.356C777.772 217.309 778.239 217.286 778.799 217.286C781.039 217.286 782.159 217.939 782.159 219.246C782.159 219.759 781.949 220.202 781.529 220.576C781.109 220.902 780.572 221.066 779.919 221.066C779.079 221.066 778.426 221.019 777.959 220.926H776.209C776.302 222.139 776.349 223.912 776.349 226.246C776.349 228.579 776.326 230.679 776.279 232.546C776.139 235.392 776.069 237.516 776.069 238.916C776.069 241.529 776.116 242.836 776.209 242.836L778.519 242.766C779.312 242.719 780.269 242.696 781.389 242.696C783.162 242.696 784.049 243.256 784.049 244.376C784.049 245.029 783.746 245.519 783.139 245.846C782.579 246.219 781.879 246.406 781.039 246.406H775.089ZM796.872 246.966C795.938 246.966 795.122 245.566 794.422 242.766C793.815 240.292 793.302 237.236 792.882 233.596C792.508 229.909 792.112 225.266 791.692 219.666C791.458 216.026 791.132 212.129 790.712 207.976C790.385 204.522 789.988 202.306 789.522 201.326C789.942 200.486 790.618 200.066 791.552 200.066C793.045 200.066 793.792 201.606 793.792 204.686C793.792 208.326 794.282 213.646 795.262 220.646C796.242 227.599 796.802 232.662 796.942 235.836L797.292 233.456C797.758 230.329 798.155 227.389 798.482 224.636C798.855 221.836 799.158 218.826 799.392 215.606C799.718 212.012 799.882 208.466 799.882 204.966L801.772 204.126C802.378 204.126 802.868 204.289 803.242 204.616C803.662 204.896 803.872 205.316 803.872 205.876V206.436C804.618 209.049 805.225 211.919 805.692 215.046C806.205 218.126 806.648 221.766 807.022 225.966C807.302 229.186 807.628 232.196 808.002 234.996C808.888 228.742 809.332 221.042 809.332 211.896C809.332 210.449 809.518 208.676 809.892 206.576C810.218 204.429 810.382 202.679 810.382 201.326C810.242 200.906 810.172 200.509 810.172 200.136C810.172 199.016 810.872 198.456 812.272 198.456C812.832 198.456 813.275 198.596 813.602 198.876C813.928 199.156 814.092 199.552 814.092 200.066V201.116C814.092 201.816 814.022 202.422 813.882 202.936V203.286C813.275 205.152 812.972 207.299 812.972 209.726V214.836C812.972 217.776 812.622 222.162 811.922 227.996C811.175 233.689 810.802 237.936 810.802 240.736V241.996C810.802 243.069 810.685 243.979 810.452 244.726C810.172 245.659 809.495 246.126 808.422 246.126C807.675 246.126 807.092 245.892 806.672 245.426C806.298 244.912 806.112 244.282 806.112 243.536C806.112 239.756 805.715 234.856 804.922 228.836C804.502 226.129 804.058 223.399 803.592 220.646L802.472 213.296C802.285 214.649 802.192 215.979 802.192 217.286C802.192 219.899 802.005 223.352 801.632 227.646C801.258 231.939 800.675 236.116 799.882 240.176C798.995 244.702 797.992 246.966 796.872 246.966ZM834.091 245.496C832.505 245.496 831.711 241.646 831.711 233.946L831.781 229.956L831.851 226.736V226.526V225.826C831.898 225.452 831.921 225.009 831.921 224.496C831.921 224.402 831.851 224.286 831.711 224.146C831.571 224.006 831.501 223.889 831.501 223.796V223.726C831.268 223.819 830.848 223.866 830.241 223.866C829.635 223.866 828.888 223.772 828.001 223.586C827.721 223.539 826.975 223.422 825.761 223.236V231.286C825.761 232.499 825.831 234.412 825.971 237.026C826.111 239.592 826.181 241.506 826.181 242.766C826.181 243.466 825.995 244.072 825.621 244.586C825.248 245.099 824.758 245.356 824.151 245.356C823.265 245.356 822.635 244.492 822.261 242.766C821.888 240.992 821.701 238.682 821.701 235.836L821.841 230.166C821.888 228.579 821.911 226.899 821.911 225.126V223.936V222.956C821.911 222.209 821.888 221.719 821.841 221.486V221.136L822.051 217.076C822.051 215.302 821.981 212.666 821.841 209.166C821.701 205.666 821.631 203.029 821.631 201.256C821.631 200.696 821.818 200.206 822.191 199.786C822.565 199.366 823.031 199.156 823.591 199.156C825.085 199.156 825.831 200.556 825.831 203.356L825.691 212.036C825.598 214.649 825.551 217.566 825.551 220.786C826.251 221.019 827.511 221.136 829.331 221.136H831.921C832.015 220.856 832.061 220.576 832.061 220.296C832.061 218.056 831.921 214.742 831.641 210.356C831.315 206.249 831.151 202.912 831.151 200.346C831.151 199.832 831.338 199.412 831.711 199.086C832.131 198.712 832.621 198.526 833.181 198.526C833.508 198.526 833.975 198.642 834.581 198.876L835.211 199.156C835.211 205.782 835.445 214.626 835.911 225.686L836.541 243.396C836.541 244.049 836.285 244.562 835.771 244.936C835.305 245.309 834.745 245.496 834.091 245.496ZM848.165 246.406C847.559 246.406 846.999 246.196 846.485 245.776C846.019 245.356 845.762 244.842 845.715 244.236V242.416V241.016C845.669 240.596 845.645 240.106 845.645 239.546C845.645 238.566 845.575 237.072 845.435 235.066L845.295 230.586C845.295 228.299 845.365 224.892 845.505 220.366C845.692 216.306 845.785 212.899 845.785 210.146C845.785 209.492 845.715 208.512 845.575 207.206C845.435 205.852 845.365 204.872 845.365 204.266C845.365 200.952 846.345 199.296 848.305 199.296C849.845 199.296 851.619 199.599 853.625 200.206C855.679 200.812 856.705 201.536 856.705 202.376C856.705 202.842 856.495 203.286 856.075 203.706C855.702 204.079 855.235 204.382 854.675 204.616C852.715 203.916 850.942 203.449 849.355 203.216C849.402 203.916 849.425 204.919 849.425 206.226C849.425 208.092 849.402 209.772 849.355 211.266C849.215 213.506 849.145 215.186 849.145 216.306L849.355 217.426L850.475 217.356C850.849 217.309 851.315 217.286 851.875 217.286C854.115 217.286 855.235 217.939 855.235 219.246C855.235 219.759 855.025 220.202 854.605 220.576C854.185 220.902 853.649 221.066 852.995 221.066C852.155 221.066 851.502 221.019 851.035 220.926H849.285C849.379 222.139 849.425 223.912 849.425 226.246C849.425 228.579 849.402 230.679 849.355 232.546C849.215 235.392 849.145 237.516 849.145 238.916C849.145 241.529 849.192 242.836 849.285 242.836L851.595 242.766C852.389 242.719 853.345 242.696 854.465 242.696C856.239 242.696 857.125 243.256 857.125 244.376C857.125 245.029 856.822 245.519 856.215 245.846C855.655 246.219 854.955 246.406 854.115 246.406H848.165ZM877.088 246.686C876.061 246.686 875.128 245.566 874.288 243.326C873.308 240.899 872.585 238.402 872.118 235.836L871.628 233.456C870.275 226.782 869.411 222.979 869.038 222.046H868.198C868.198 223.399 868.175 224.636 868.128 225.756V229.606C868.128 235.859 868.571 240.736 869.458 244.236L868.688 246.126H866.728L865.818 245.076L865.888 240.386C865.888 236.186 865.678 229.816 865.258 221.276C864.885 212.176 864.698 205.806 864.698 202.166C864.698 199.926 865.468 198.806 867.008 198.806C869.528 198.806 871.581 199.459 873.168 200.766C874.801 202.072 875.618 203.892 875.618 206.226V211.126C875.618 211.826 875.501 212.642 875.268 213.576C875.035 214.462 874.778 215.186 874.498 215.746L873.168 218.266L872.048 220.366L872.398 222.046L873.378 227.016C874.031 230.609 874.661 233.526 875.268 235.766C875.875 238.006 876.621 240.036 877.508 241.856L877.928 242.696C878.395 243.629 878.628 244.376 878.628 244.936C878.628 245.402 878.488 245.799 878.208 246.126C877.928 246.499 877.555 246.686 877.088 246.686ZM868.478 218.616C869.505 218.102 870.368 216.702 871.068 214.416C871.815 212.082 872.188 209.936 872.188 207.976C872.188 206.482 872.001 205.082 871.628 203.776C871.395 203.029 870.998 202.469 870.438 202.096C869.925 201.676 869.271 201.466 868.478 201.466L868.338 201.816L868.198 202.446L868.338 210.706C868.431 213.132 868.478 215.769 868.478 218.616ZM888.702 246.406C888.096 246.406 887.536 246.196 887.022 245.776C886.556 245.356 886.299 244.842 886.252 244.236V242.416V241.016C886.206 240.596 886.182 240.106 886.182 239.546C886.182 238.566 886.112 237.072 885.972 235.066L885.832 230.586C885.832 228.299 885.902 224.892 886.042 220.366C886.229 216.306 886.322 212.899 886.322 210.146C886.322 209.492 886.252 208.512 886.112 207.206C885.972 205.852 885.902 204.872 885.902 204.266C885.902 200.952 886.882 199.296 888.842 199.296C890.382 199.296 892.156 199.599 894.162 200.206C896.216 200.812 897.242 201.536 897.242 202.376C897.242 202.842 897.032 203.286 896.612 203.706C896.239 204.079 895.772 204.382 895.212 204.616C893.252 203.916 891.479 203.449 889.892 203.216C889.939 203.916 889.962 204.919 889.962 206.226C889.962 208.092 889.939 209.772 889.892 211.266C889.752 213.506 889.682 215.186 889.682 216.306L889.892 217.426L891.012 217.356C891.386 217.309 891.852 217.286 892.412 217.286C894.652 217.286 895.772 217.939 895.772 219.246C895.772 219.759 895.562 220.202 895.142 220.576C894.722 220.902 894.186 221.066 893.532 221.066C892.692 221.066 892.039 221.019 891.572 220.926H889.822C889.916 222.139 889.962 223.912 889.962 226.246C889.962 228.579 889.939 230.679 889.892 232.546C889.752 235.392 889.682 237.516 889.682 238.916C889.682 241.529 889.729 242.836 889.822 242.836L892.132 242.766C892.926 242.719 893.882 242.696 895.002 242.696C896.776 242.696 897.662 243.256 897.662 244.376C897.662 245.029 897.359 245.519 896.752 245.846C896.192 246.219 895.492 246.406 894.652 246.406H888.702ZM916.575 208.536C916.062 208.536 915.805 208.069 915.805 207.136C916.505 204.242 917.018 201.582 917.345 199.156C917.812 196.589 918.348 194.746 918.955 193.626C919.795 192.226 920.962 191.526 922.455 191.526C922.922 191.526 923.155 192.039 923.155 193.066C923.155 194.979 922.735 197.172 921.895 199.646C921.102 202.119 920.168 204.242 919.095 206.016C918.022 207.696 917.182 208.536 916.575 208.536ZM907.615 208.536C907.195 208.442 906.985 208.022 906.985 207.276C906.985 206.342 907.242 204.686 907.755 202.306C908.315 199.926 909.015 197.639 909.855 195.446C910.788 193.066 911.768 191.876 912.795 191.876C913.635 191.876 914.055 192.389 914.055 193.416C914.055 195.422 913.705 197.616 913.005 199.996C912.352 202.376 911.488 204.406 910.415 206.086C909.435 207.719 908.502 208.536 907.615 208.536Z" fill="black"/>
<path d="M1074.29 93.5431C1075.22 99.7913 1072.55 106.501 1066.43 113.585C1060.32 120.665 1050.82 128.054 1038.26 135.631C1013.13 150.782 975.827 166.623 929.105 182.222C835.67 213.419 704.65 243.621 558.195 265.43C411.74 287.238 277.604 296.519 179.133 293.899C129.894 292.589 89.5964 288.303 61.1421 281.131C46.9128 277.544 35.6751 273.243 27.7668 268.25C19.8546 263.255 15.3433 257.615 14.4129 251.367C13.4825 245.118 16.1547 238.408 22.2683 231.325C28.379 224.245 37.8758 216.856 50.4428 209.279C75.5728 194.127 112.873 178.287 159.595 162.687C253.03 131.491 384.05 101.288 530.505 79.48C676.96 57.6717 811.096 48.3906 909.567 51.0107C958.807 52.3209 999.104 56.6063 1027.56 63.7788C1041.79 67.3656 1053.02 71.6672 1060.93 76.6596C1068.85 81.6543 1073.36 87.2948 1074.29 93.5431Z" stroke="black"/>
</svg>
