<svg width="280" height="279" viewBox="0 0 280 279" fill="none" xmlns="http://www.w3.org/2000/svg">
<path d="M8.25116 201.26C-16.9811 137.864 18.7653 64.8882 73.3131 30.2446C92.6322 17.0446 113.082 3.49484 137.08 1.96504C175.494 -4.65248 210.783 5.2869 238.027 34.1697C261.748 56.1028 270.32 85.073 276.872 116.019C283.208 140.435 279.462 165.419 269.742 188.366C259.202 219.39 246.184 223.586 224.301 244.086C203.143 265.398 172.852 277.82 143.157 278.93C114.204 279.551 87.565 268.991 63.0147 254.383C41.4338 240.877 17.8589 226.41 8.25116 201.26Z" fill="white"/>
<path d="M102.145 83.0448C114.765 97.9057 91.6393 104.751 93.5126 118.781C105.183 141.719 84.9406 135.985 87.4095 149.858C89.4554 155.785 97.0691 157.9 98.6315 164.859C101.86 171.336 95.334 177.753 88.946 175.043C67.1062 172.718 65.492 148.223 64.5165 130.338C64.1885 115.853 72.2339 103.046 79.1915 90.9998C83.8702 85.4837 96.8101 72.4498 102.145 83.0448Z" fill="#73D88B"/>
<path d="M181.191 61.7936C194.899 69.8272 204.325 88.6308 196.392 103.754C195.425 105.651 192.939 107.88 194.303 110.118C195.676 112.181 197.35 113.999 197.609 116.569C198.205 119.926 195.089 123.764 192.292 120.206C187.976 112.784 176.892 108.903 174.086 119.655C173.637 125.066 175.744 130.705 173.551 135.967C170.763 149.867 159.817 138.162 157.831 130.46C157.132 122.042 150.062 113.711 142.086 120.678C140.67 124.376 141.309 128.546 140.558 132.366C138.918 144.735 131.503 143.879 127.325 133.196C122.94 124.358 117.683 114.244 120.048 104.261C125.952 92.8181 112.961 79.417 122.896 69.4076C122.896 61.7936 131.865 57.2391 138.53 56.8457C152.626 52.606 168.277 54.704 181.191 61.7936Z" fill="#73D88B"/>
<path d="M217.827 146.108C218.742 146.615 220.874 149.456 218.69 149.413C221.478 161.45 213.511 171.634 207.977 181.494C201.46 189.021 187.035 199.371 176.806 196.224C169.399 193.707 168.329 184.449 170.107 177.77C173.362 169.719 182.598 167.062 188.235 161.074C202.712 154.727 199.569 135.644 214.944 144.325C216.273 143.984 216.998 145.383 217.827 146.108Z" fill="#73D88B"/>
<path d="M131.987 215.544C69.0573 213.446 39.0168 123.895 84.1898 81.2351C101.144 60.9716 129.138 53.7946 154.397 54.2491C196.065 51.1545 220.149 88.4033 220.866 127.147C221.211 143.031 222.67 159.955 213.58 173.819C197.325 202.082 164.091 218.962 131.987 215.544ZM126.566 205.605C158.506 209.879 194.761 198.157 211.853 168.994C219.519 157.079 218.336 142.559 217.473 129.035C216.61 104.497 204.904 79.137 182.581 67.7377C173.552 63.2881 163.331 64.3984 153.68 63.0084C153.503 63.1165 153.296 63.163 153.09 63.1409C152.884 63.1188 152.691 63.0293 152.541 62.886C145.738 61.4961 138.893 65.8058 132.686 65.5086C120.316 69.9931 107.566 73.9706 96.8707 81.9869C82.8691 94.0243 68.9883 110.468 68.2459 129.901C64.6807 165.515 89.9389 203.087 126.566 205.605Z" fill="black"/>
<path d="M276.846 116.019C270.32 85.073 261.748 56.1028 238.001 34.1697C210.783 5.2869 175.494 -4.65248 137.08 1.96504C113.082 3.49484 92.6322 17.0446 73.313 30.2446C18.7653 64.8795 -16.9811 137.864 8.25116 201.26C17.8589 226.41 41.4338 240.877 63.0147 254.383C87.5305 269.035 114.17 279.595 143.097 278.974C172.792 277.864 203.083 265.442 224.241 244.129C246.124 223.63 259.141 219.434 269.681 188.409C279.393 165.418 283.182 140.435 276.846 116.019ZM260.6 200.753C251.769 218.14 234.099 227.756 220.684 241.052C193.13 267.094 153.041 278.904 116.06 271.194C93.1242 267.557 72.9418 254.584 53.3896 242.643C34.528 230.518 15.2261 216.147 8.89858 193.27C-5.08579 150.033 8.29432 108.632 33.8633 73.0268C53.5191 47.4834 80.2793 28.7148 108.826 14.8591C124.788 7.56851 142.881 5.94254 160.206 6.33592C161.242 6.33592 161.553 5.20823 161.587 4.26412C198.275 1.21324 230.223 27.1675 251.631 54.9663C267.411 83.4557 278.141 116.674 277.036 149.657C274.757 167.385 268.136 184.598 260.6 200.753Z" fill="black"/>
</svg>
