<svg width="284" height="735" viewBox="0 0 284 735" fill="none" xmlns="http://www.w3.org/2000/svg">
<path d="M280.46 371.294V337.927H274.258V327.661L232.742 296V337.927H226.553V371.294H223V444H284V371.294H280.46ZM275.915 438.571H231.374V435.372H275.915V438.571ZM275.915 431.785H231.374V428.586H275.915V431.785ZM275.915 425H231.374V421.81H275.915V425ZM275.915 418.214H231.374V415.015H275.915V418.214ZM275.915 411.428H231.374V408.229H275.915V411.428ZM275.915 404.642H231.374V401.443H275.915V404.642ZM275.915 397.856H231.374V394.657H275.915V397.856ZM275.915 391.07H231.374V387.871H275.915V391.07ZM275.915 384.284H231.374V381.085H275.915V384.284Z" fill="#A1FFBA"/>
<path d="M203 337H121V347.53H127.655V444H196.332V347.53H202.987L203 337ZM145.624 437.678H138.706V432.206H145.624V437.678ZM145.624 414.296H138.706V408.824H145.624V414.296ZM145.624 390.915H138.706V385.442H145.624V390.915ZM145.624 375.337H138.706V369.855H145.624V375.337ZM145.624 359.749H138.706V354.267H145.624V359.749ZM158.11 429.884H151.193V424.412H158.11V429.884ZM158.11 422.09H151.193V416.618H158.11V422.09ZM158.11 398.709H151.193V393.236H158.11V398.709ZM158.11 383.131H151.193V377.649H158.11V383.131ZM158.11 367.543H151.193V362.061H158.11V367.543ZM170.597 422.09H163.679V416.618H170.597V422.09ZM170.597 406.503H163.679V400.991H170.597V406.503ZM170.597 383.131H163.679V377.649H170.597V383.131ZM170.597 359.749H163.679V354.267H170.597V359.749ZM185.244 437.678H178.326V432.206H185.244V437.678ZM185.244 414.296H178.326V408.824H185.244V414.296ZM185.244 390.915H178.326V385.442H185.244V390.915ZM185.244 359.749H178.326V354.267H185.244V359.749Z" fill="#A1FFBA"/>
<path d="M77.9257 367.983H85L45.5 337L6 367.983H13.0868V388.105H8.25319V392.549H13.0868V414.585H8.25319V419.03H13.0868V441.066H8.25319V445.51H13.0868V467.546H8.25319V472H82.7594V467.546H77.9257V445.51H82.7594V441.066H77.9257V419.03H82.7594V414.585H77.9257V392.549H82.7594V388.105H77.9257V367.983ZM27.978 466.042H20.6142V460.298H27.978V466.042ZM27.978 441.544H20.6142V435.801H27.978V441.544ZM27.978 417.047H20.6142V411.313H27.978V417.047ZM27.978 400.715H20.6142V394.981H27.978V400.715ZM27.978 384.393H20.6142V378.65H27.978V384.393ZM41.3461 449.71H33.9445V443.967H41.3461V449.71ZM41.3461 425.212H33.9445V419.479H41.3461V425.212ZM41.3461 392.549H33.9445V386.815H41.3461V392.549ZM54.7016 449.71H47.3126V443.967H54.7016V449.71ZM54.7016 408.881H47.3126V403.147H54.7016V408.881ZM54.7016 384.393H47.3126V378.65H54.7016V384.393ZM70.348 466.042H62.959V460.298H70.348V466.042ZM70.348 441.544H62.959V435.801H70.348V441.544ZM70.348 417.047H62.959V411.313H70.348V417.047ZM70.348 384.393H62.959V378.65H70.348V384.393Z" fill="#73D88B"/>
<path d="M284 434.216L284 376.572C284 361.998 229.066 349.384 218.556 363.318C187.467 318.807 83.5451 359.083 76.4586 404.78C41.5649 354.822 0 395.604 0 421.772L0 677H142H284L284 434.216Z" fill="#CBF0D4"/>
<path d="M0 534.383C0 498.884 1.68048 510.208 1.68048 500.66C1.68048 493.903 12.5356 472.483 29.8284 474.17C37.8107 456.509 52.761 455.427 75.1132 461.077C106.202 424.297 186.581 466.964 193.668 504.723C240.333 470.182 284 502.285 284 515.093L284 735H142H0L0 534.383Z" fill="#97CFA2"/>
<path d="M151.413 122.166C148.603 99.3652 117.178 91.6307 110.382 117.128C104.592 105.033 79.4167 101.711 76.0801 117.194C70.3316 103.858 52.6622 88.8535 37.2971 99.3225C28.4471 104.507 21.1095 114.014 22.4789 124.081C11.9835 116.863 -4.50571 127.986 1.15078 139.332C-1.54206 150.914 9.50522 158.966 21.3087 157.872C30.3836 157.919 38.3242 152.502 47.4451 152.625C58.615 153.151 66.4482 157.545 76.4224 149.63C83.76 144.658 92.7174 151.9 101.286 151.526C107.52 151.815 111.373 145.749 117.459 145.227C137.734 142.208 148.419 160.44 170.197 147.066C187.043 136.663 166.819 105.664 151.413 122.166ZM163.099 147.033C159.594 148.09 155.107 148.682 149.461 148.597C137.571 146.701 126.34 138.872 113.902 143.602C107.771 146.156 105.65 150.412 98.0213 148.815C95.4036 148.451 92.8205 147.898 90.2954 147.161H90.2239C88.7318 146.744 87.3982 146.341 86.1361 146.047C85.8601 145.981 85.5791 145.919 85.3032 145.872C83.5338 145.486 81.692 145.486 79.9226 145.872C77.8787 146.346 75.5845 147.398 72.7281 149.398C72.2171 149.739 71.7368 150.109 71.1952 150.507C70.1113 151.071 68.9515 151.5 67.7461 151.782C64.3481 152.592 60.7202 152.298 57.1996 151.677C56.1776 151.493 55.0739 151.27 53.8629 151L52.5702 150.711C52.141 150.616 51.7117 150.535 51.2876 150.464C40.2404 148.701 30.1844 155.478 19.2291 154.905H19.1831C18.7385 154.933 18.2837 154.952 17.8392 154.952C13.0258 154.952 8.13068 153.161 5.06483 150.028C4.90643 149.867 4.75312 149.706 4.60494 149.554C4.31368 149.218 4.0378 148.872 3.78231 148.512C3.65456 148.327 3.53192 148.147 3.41951 147.957C2.8908 147.106 2.49021 146.193 2.22893 145.241C2.16761 145.028 2.11651 144.81 2.07052 144.587C1.80658 143.257 1.79621 141.893 2.03987 140.559C4.08377 142.995 5.28968 138.981 4.47723 137.45C4.87579 137.824 5.02908 136.929 4.76337 136.749C4.34341 136.404 3.94906 136.034 3.58302 135.64C3.54644 135.601 3.50719 135.565 3.46551 135.531L3.34285 135.426C3.26171 135.358 3.17457 135.296 3.08228 135.242L2.9443 135.161C2.89944 135.133 2.85147 135.109 2.80121 135.09C2.34134 130.825 6.44957 127.801 10.1797 126.114C15.2894 123.972 20.9817 126.36 24.717 129.801C25.1055 130.335 25.5233 130.851 25.9688 131.346L26.1221 131.488C26.5382 131.919 27.0657 132.246 27.6551 132.436C27.874 132.406 28.0766 132.311 28.2325 132.166C28.4767 131.923 28.6369 131.617 28.6923 131.289C28.7058 131.233 28.7161 131.176 28.723 131.118C28.7613 130.878 28.7749 130.636 28.7638 130.393C28.7612 130.349 28.7612 130.305 28.7638 130.261C28.6565 129.227 27.9821 128.445 27.1849 127.744L27.1492 127.716C26.5411 127.175 25.8615 126.682 25.3199 126.156C25.2126 125.938 25.1155 125.725 25.0235 125.507C24.4262 124.082 24.1212 122.567 24.1242 121.038V121.038C24.1242 117.337 25.836 113.664 28.3449 110.441C30.7497 107.39 33.7163 104.758 37.1081 102.664C37.7276 102.217 38.3741 101.804 39.0446 101.427C41.667 99.9147 44.6846 99.0954 47.7721 99.0571C49.4393 99.0295 51.1028 99.2097 52.7183 99.5927H52.7592C55.1048 100.192 57.3428 101.107 59.4019 102.308L59.4939 102.365C63.1165 104.52 66.3153 107.234 68.952 110.389C71.3212 113.155 73.2502 116.223 74.68 119.498C74.7067 119.527 74.7307 119.559 74.7515 119.592C74.7818 119.638 74.8091 119.686 74.8333 119.735C75.0642 120.258 75.2638 120.793 75.4312 121.336C75.4312 121.336 75.4312 121.379 75.4312 121.403C75.6123 122.027 75.8785 122.628 76.2232 123.19C76.2207 123.197 76.2207 123.205 76.2232 123.213C76.4071 123.46 76.6115 123.588 76.8261 123.507C76.8361 123.51 76.8468 123.51 76.8568 123.507C76.9259 123.479 76.9884 123.439 77.0407 123.389L77.0765 123.355C77.2455 123.165 77.3832 122.953 77.4852 122.725C77.4128 122.045 77.389 121.361 77.4138 120.678C77.4434 119.268 77.7213 117.872 78.2364 116.545C78.2377 116.537 78.2377 116.529 78.2364 116.521C78.9064 114.809 80.0756 113.303 81.614 112.171C81.9001 111.995 82.2016 111.829 82.5133 111.697C84.0223 110.987 85.6496 110.52 87.3266 110.313C87.8938 110.237 88.4712 110.185 89.0537 110.152C93.3183 109.964 97.5648 110.779 101.399 112.521C101.91 112.754 102.38 112.995 102.845 113.261C103.141 113.431 103.433 113.602 103.714 113.787C104.278 114.147 104.815 114.541 105.323 114.967C105.446 115.066 105.563 115.171 105.681 115.284C105.916 115.498 106.141 115.72 106.35 115.943C107.404 117.101 108.33 118.353 109.115 119.682C109.503 120.19 109.799 121.512 110.576 121.512C110.674 121.51 110.771 121.49 110.862 121.455C110.862 121.37 110.908 121.28 110.934 121.194C111.077 120.602 111.24 120.028 111.414 119.469L111.445 119.374C113.642 112.469 117.755 108.104 122.512 106.104L122.839 105.976C124.837 105.198 126.986 104.807 129.153 104.828C131.321 104.85 133.46 105.282 135.44 106.1C135.529 106.129 135.616 106.162 135.701 106.199C140.151 108.033 144.229 111.683 146.983 117.019C147.661 118.325 148.236 119.674 148.705 121.057C148.981 121.531 149.022 122.853 149.124 124.194V124.227C149.162 125.025 149.275 125.818 149.461 126.597C149.461 126.597 149.461 126.597 149.461 126.597C149.62 127.147 149.849 127.545 150.197 127.64C150.361 127.672 150.531 127.667 150.693 127.624C150.854 127.581 151.001 127.502 151.122 127.393C151.311 127.137 151.505 126.919 151.694 126.659C152.698 125.417 153.921 124.342 155.312 123.479C156.402 122.798 157.631 122.333 158.923 122.111C160.215 121.89 161.543 121.916 162.823 122.19C165.889 122.829 168.715 124.782 170.718 127.355C172.91 130.199 174.111 133.768 173.559 137.185C172.997 141.185 169.9 144.985 163.099 147.033Z" fill="black"/>
<path d="M164.667 122.594C185.735 133.624 168.291 151.14 149.75 148.464C137.871 146.573 126.65 138.763 114.225 143.486C108.099 146.03 105.98 150.275 98.3587 148.687C92.5084 148.313 87.1687 145.146 81.3082 145.316C67.9435 150.474 70.644 154.682 52.9247 150.568C41.3773 148.039 30.9735 155.353 19.6201 154.757C10.666 155.433 0.8288 149.613 2.44707 140.437C4.48904 142.867 5.68871 138.862 4.87702 137.335C5.27521 137.709 5.42832 136.815 5.16287 136.635C4.4686 136.163 3.98875 135.321 3.20259 134.985C2.73804 130.73 6.84755 127.709 10.5742 126.003C15.6791 123.866 21.366 126.249 25.0977 129.681C26.2412 131.572 29.2685 133.964 29.1459 130.154C28.1658 126.759 24.1686 126.414 24.4494 121.908C24.8731 110.287 37.5129 98.4585 50.2446 98.988C61.9094 100.841 70.5265 109.763 75.0393 119.445C75.8459 120.391 75.9378 123.426 77.2396 123.45C78.6945 122.608 77.6582 120.816 77.6837 119.606C78.1942 116.769 79.5623 113.933 82.0178 112.122C88.5827 108.056 101.656 110.344 106.746 115.847C107.801 117.002 108.726 118.254 109.508 119.582C109.942 120.14 110.258 121.715 111.254 121.35C117.507 95.6643 147.315 102.108 149.623 125.275C150.485 132.934 154.13 118.041 164.667 122.594Z" fill="white"/>
<path d="M153.041 226.936C153.993 216.913 164.636 213.514 166.938 224.721C168.899 219.405 177.426 217.945 178.557 224.75C180.504 218.888 186.489 212.293 191.693 216.895C194.69 219.174 197.176 223.353 196.712 227.777C200.267 224.605 205.852 229.494 203.936 234.481C204.848 239.572 201.106 243.112 197.108 242.631C194.034 242.651 191.345 240.27 188.256 240.324C184.472 240.556 181.819 242.487 178.441 239.008C175.955 236.823 172.921 240.006 170.019 239.841C167.907 239.968 166.603 237.302 164.541 237.073C157.674 235.746 154.055 243.76 146.678 237.881C140.972 233.308 147.822 219.682 153.041 226.936ZM149.082 237.866C150.27 238.331 151.789 238.591 153.702 238.554C157.729 237.72 161.533 234.279 165.746 236.358C167.823 237.481 168.541 239.352 171.125 238.65C172.012 238.489 172.886 238.246 173.742 237.923H173.766C174.271 237.739 174.723 237.562 175.151 237.433C175.244 237.404 175.339 237.377 175.433 237.356C176.032 237.186 176.656 237.186 177.255 237.356C177.947 237.564 178.724 238.027 179.692 238.906C179.865 239.056 180.028 239.218 180.211 239.393C180.578 239.641 180.971 239.83 181.379 239.954C182.53 240.31 183.759 240.181 184.952 239.908C185.298 239.827 185.672 239.729 186.082 239.61L186.52 239.483C186.665 239.441 186.81 239.406 186.954 239.375C190.696 238.6 194.102 241.579 197.813 241.326H197.828C197.979 241.339 198.133 241.347 198.283 241.347C199.914 241.347 201.572 240.56 202.61 239.183C202.664 239.112 202.716 239.041 202.766 238.975C202.865 238.827 202.958 238.675 203.045 238.516C203.088 238.435 203.129 238.356 203.167 238.272C203.347 237.899 203.482 237.497 203.571 237.079C203.591 236.985 203.609 236.889 203.624 236.791C203.714 236.206 203.717 235.607 203.635 235.021C202.942 236.091 202.534 234.327 202.809 233.654C202.674 233.819 202.622 233.425 202.712 233.346C202.855 233.194 202.988 233.031 203.112 232.858C203.124 232.841 203.138 232.825 203.152 232.81L203.193 232.765C203.221 232.735 203.25 232.707 203.282 232.683L203.328 232.648C203.344 232.635 203.36 232.625 203.377 232.617C203.533 230.742 202.141 229.413 200.878 228.671C199.147 227.729 197.219 228.779 195.954 230.292C195.822 230.527 195.681 230.753 195.53 230.971L195.478 231.033C195.337 231.223 195.158 231.366 194.959 231.45C194.884 231.437 194.816 231.395 194.763 231.331C194.68 231.224 194.626 231.09 194.607 230.946C194.603 230.921 194.599 230.896 194.597 230.871C194.584 230.765 194.579 230.659 194.583 230.552C194.584 230.533 194.584 230.513 194.583 230.494C194.619 230.04 194.848 229.696 195.118 229.388L195.13 229.375C195.336 229.138 195.566 228.921 195.75 228.69C195.786 228.594 195.819 228.5 195.85 228.404C196.052 227.778 196.156 227.112 196.155 226.44V226.44C196.155 224.813 195.575 223.198 194.725 221.782C193.91 220.441 192.906 219.284 191.757 218.363C191.547 218.167 191.328 217.986 191.101 217.82C190.213 217.155 189.191 216.795 188.145 216.778C187.58 216.766 187.017 216.845 186.469 217.013H186.456C185.661 217.277 184.903 217.679 184.206 218.207L184.175 218.232C182.948 219.179 181.864 220.372 180.971 221.759C180.169 222.975 179.515 224.323 179.031 225.763C179.022 225.776 179.014 225.79 179.007 225.805C178.996 225.825 178.987 225.846 178.979 225.867C178.901 226.097 178.833 226.332 178.776 226.571C178.776 226.571 178.776 226.59 178.776 226.6C178.715 226.875 178.625 227.139 178.508 227.386C178.509 227.389 178.509 227.393 178.508 227.396C178.446 227.504 178.377 227.561 178.304 227.525C178.301 227.527 178.297 227.527 178.294 227.525C178.27 227.513 178.249 227.495 178.231 227.473L178.219 227.459C178.162 227.375 178.115 227.282 178.081 227.182C178.105 226.883 178.113 226.582 178.105 226.282C178.095 225.662 178.001 225.048 177.826 224.465C177.826 224.462 177.826 224.458 177.826 224.455C177.599 223.702 177.203 223.04 176.682 222.542C176.585 222.465 176.483 222.392 176.378 222.334C175.867 222.022 175.315 221.817 174.747 221.726C174.555 221.692 174.36 221.669 174.162 221.655C172.718 221.572 171.28 221.931 169.981 222.696C169.808 222.798 169.649 222.905 169.491 223.021C169.391 223.096 169.292 223.171 169.197 223.253C169.006 223.411 168.824 223.584 168.652 223.771C168.61 223.815 168.57 223.861 168.531 223.911C168.451 224.005 168.375 224.103 168.304 224.2C167.947 224.709 167.633 225.26 167.368 225.844C167.236 226.067 167.136 226.648 166.873 226.648C166.839 226.647 166.806 226.639 166.776 226.623C166.776 226.586 166.76 226.546 166.751 226.509C166.703 226.248 166.648 225.996 166.589 225.75L166.578 225.709C165.834 222.674 164.441 220.755 162.83 219.876L162.719 219.82C162.042 219.477 161.314 219.306 160.58 219.315C159.846 219.324 159.121 219.514 158.451 219.874C158.421 219.886 158.391 219.901 158.363 219.917C156.855 220.724 155.474 222.328 154.541 224.673C154.311 225.247 154.117 225.84 153.958 226.448C153.864 226.657 153.851 227.238 153.816 227.827V227.842C153.803 228.192 153.765 228.541 153.702 228.884C153.702 228.884 153.702 228.884 153.702 228.884C153.648 229.125 153.57 229.3 153.453 229.342C153.397 229.356 153.339 229.354 153.285 229.335C153.23 229.316 153.18 229.281 153.139 229.233C153.075 229.121 153.009 229.025 152.945 228.911C152.605 228.365 152.191 227.892 151.72 227.513C151.351 227.214 150.934 227.009 150.497 226.912C150.059 226.814 149.61 226.826 149.176 226.946C148.137 227.227 147.18 228.086 146.502 229.217C145.759 230.467 145.353 232.035 145.54 233.537C145.73 235.296 146.779 236.966 149.082 237.866Z" fill="black"/>
<path d="M148.552 227.124C141.416 231.972 147.324 239.672 153.604 238.496C157.628 237.664 161.428 234.231 165.637 236.307C167.712 237.425 168.429 239.291 171.011 238.593C172.992 238.429 174.801 237.037 176.786 237.112C181.313 239.379 180.398 241.228 186.4 239.42C190.311 238.309 193.835 241.523 197.68 241.262C200.713 241.559 204.045 239.001 203.497 234.967C202.805 236.035 202.399 234.275 202.674 233.604C202.539 233.768 202.487 233.375 202.577 233.296C202.812 233.088 202.975 232.718 203.241 232.571C203.398 230.7 202.007 229.372 200.744 228.622C199.015 227.683 197.089 228.73 195.825 230.239C195.438 231.07 194.412 232.122 194.454 230.447C194.786 228.955 196.14 228.803 196.045 226.823C195.901 221.714 191.62 216.515 187.308 216.748C183.357 217.562 180.438 221.484 178.909 225.74C178.636 226.155 178.605 227.49 178.164 227.5C177.671 227.13 178.022 226.342 178.014 225.81C177.841 224.564 177.377 223.317 176.546 222.521C174.322 220.734 169.894 221.739 168.17 224.158C167.813 224.666 167.499 225.216 167.234 225.8C167.087 226.045 166.98 226.737 166.643 226.577C164.525 215.287 154.429 218.119 153.647 228.302C153.355 231.669 152.12 225.123 148.552 227.124Z" fill="white"/>
<path d="M224.242 14.1758C223.77 14.1758 223.337 14.0817 222.942 13.8935C222.552 13.7053 222.238 13.43 222 13.0678C221.765 12.7056 221.648 12.2653 221.648 11.7468C221.648 11.4059 221.708 11.1058 221.829 10.8466C221.95 10.5874 222.136 10.3636 222.388 10.1754C222.641 9.98722 222.964 9.83274 223.358 9.712C223.752 9.58771 224.223 9.49183 224.77 9.42436C225.185 9.37464 225.556 9.3267 225.883 9.28054C226.21 9.23082 226.465 9.15447 226.65 9.05149C226.838 8.94851 226.932 8.79226 226.932 8.58274V8.24183C226.932 7.64524 226.744 7.17116 226.368 6.8196C225.991 6.46804 225.473 6.29226 224.812 6.29226C224.226 6.29226 223.733 6.42187 223.331 6.68111C222.934 6.93679 222.655 7.26705 222.495 7.67188L221.882 7.44283C222.039 7.0522 222.264 6.72727 222.559 6.46804C222.857 6.20881 223.198 6.01527 223.582 5.88743C223.969 5.75959 224.374 5.69567 224.796 5.69567C225.162 5.69567 225.51 5.74716 225.84 5.85014C226.174 5.95312 226.471 6.10938 226.73 6.31889C226.993 6.52841 227.2 6.79652 227.353 7.12322C227.506 7.44638 227.582 7.83345 227.582 8.28445V14H226.932V12.5245H226.884C226.742 12.8299 226.547 13.1087 226.298 13.3608C226.053 13.6094 225.757 13.8082 225.409 13.9574C225.064 14.103 224.675 14.1758 224.242 14.1758ZM224.306 13.5739C224.817 13.5739 225.27 13.4496 225.664 13.201C226.062 12.9489 226.373 12.6044 226.597 12.1676C226.82 11.7308 226.932 11.2354 226.932 10.6815V9.47763C226.85 9.54865 226.732 9.61257 226.575 9.66939C226.423 9.72266 226.249 9.7706 226.053 9.81321C225.862 9.85227 225.659 9.88778 225.446 9.91974C225.237 9.94815 225.032 9.97479 224.833 9.99964C224.237 10.0707 223.75 10.1808 223.374 10.3299C223.001 10.4755 222.728 10.6673 222.554 10.9052C222.383 11.1431 222.298 11.4308 222.298 11.7681C222.298 12.3256 222.49 12.766 222.873 13.0891C223.257 13.4123 223.734 13.5739 224.306 13.5739ZM224.567 4.65163L225.995 2.29723H226.767L225.164 4.65163H224.567ZM233.114 14.1705C232.457 14.1705 231.883 13.9893 231.393 13.6271C230.903 13.2649 230.523 12.766 230.253 12.1303C229.987 11.4911 229.854 10.7578 229.854 9.9304C229.854 9.11009 229.989 8.3821 230.259 7.74645C230.532 7.10724 230.914 6.60653 231.404 6.24432C231.894 5.87855 232.466 5.69567 233.119 5.69567C233.588 5.69567 233.994 5.78622 234.339 5.96733C234.687 6.14489 234.978 6.38104 235.213 6.67578C235.45 6.97053 235.632 7.29368 235.756 7.64524H235.82V3.09091H236.464V14H235.836V12.2156H235.756C235.624 12.5671 235.442 12.892 235.207 13.1903C234.973 13.4851 234.682 13.723 234.334 13.9041C233.986 14.0817 233.579 14.1705 233.114 14.1705ZM233.172 13.5685C233.726 13.5685 234.2 13.4105 234.595 13.0945C234.992 12.7749 235.296 12.3416 235.506 11.7947C235.719 11.2443 235.825 10.6211 235.825 9.92507C235.825 9.22905 235.719 8.60937 235.506 8.06605C235.296 7.51918 234.992 7.08949 234.595 6.77699C234.2 6.46094 233.726 6.30291 233.172 6.30291C232.611 6.30291 232.13 6.46271 231.729 6.78232C231.331 7.09837 231.026 7.52983 230.813 8.0767C230.603 8.62358 230.498 9.2397 230.498 9.92507C230.498 10.6104 230.603 11.2283 230.813 11.7788C231.026 12.3292 231.331 12.766 231.729 13.0891C232.13 13.4087 232.611 13.5685 233.172 13.5685ZM241.557 14.1758C241.084 14.1758 240.651 14.0817 240.257 13.8935C239.866 13.7053 239.552 13.43 239.314 13.0678C239.08 12.7056 238.963 12.2653 238.963 11.7468C238.963 11.4059 239.023 11.1058 239.144 10.8466C239.264 10.5874 239.451 10.3636 239.703 10.1754C239.955 9.98722 240.278 9.83274 240.672 9.712C241.067 9.58771 241.537 9.49183 242.084 9.42436C242.499 9.37464 242.871 9.3267 243.197 9.28054C243.524 9.23082 243.78 9.15447 243.964 9.05149C244.153 8.94851 244.247 8.79226 244.247 8.58274V8.24183C244.247 7.64524 244.058 7.17116 243.682 6.8196C243.306 6.46804 242.787 6.29226 242.127 6.29226C241.541 6.29226 241.047 6.42187 240.646 6.68111C240.248 6.93679 239.969 7.26705 239.809 7.67188L239.197 7.44283C239.353 7.0522 239.579 6.72727 239.873 6.46804C240.172 6.20881 240.513 6.01527 240.896 5.88743C241.283 5.75959 241.688 5.69567 242.111 5.69567C242.476 5.69567 242.824 5.74716 243.155 5.85014C243.488 5.95312 243.785 6.10938 244.044 6.31889C244.307 6.52841 244.515 6.79652 244.667 7.12322C244.82 7.44638 244.896 7.83345 244.896 8.28445V14H244.247V12.5245H244.199C244.057 12.8299 243.861 13.1087 243.613 13.3608C243.368 13.6094 243.071 13.8082 242.723 13.9574C242.379 14.103 241.99 14.1758 241.557 14.1758ZM241.621 13.5739C242.132 13.5739 242.585 13.4496 242.979 13.201C243.377 12.9489 243.687 12.6044 243.911 12.1676C244.135 11.7308 244.247 11.2354 244.247 10.6815V9.47763C244.165 9.54865 244.046 9.61257 243.89 9.66939C243.737 9.72266 243.563 9.7706 243.368 9.81321C243.176 9.85227 242.974 9.88778 242.76 9.91974C242.551 9.94815 242.347 9.97479 242.148 9.99964C241.551 10.0707 241.065 10.1808 240.688 10.3299C240.316 10.4755 240.042 10.6673 239.868 10.9052C239.698 11.1431 239.612 11.4308 239.612 11.7681C239.612 12.3256 239.804 12.766 240.188 13.0891C240.571 13.4123 241.049 13.5739 241.621 13.5739ZM233.114 32.1705C232.457 32.1705 231.883 31.9893 231.393 31.6271C230.903 31.2649 230.523 30.766 230.253 30.1303C229.987 29.4911 229.854 28.7578 229.854 27.9304C229.854 27.1101 229.989 26.3821 230.259 25.7464C230.532 25.1072 230.914 24.6065 231.404 24.2443C231.894 23.8786 232.466 23.6957 233.119 23.6957C233.588 23.6957 233.994 23.7862 234.339 23.9673C234.687 24.1449 234.978 24.381 235.213 24.6758C235.45 24.9705 235.632 25.2937 235.756 25.6452H235.82V21.0909H236.464V32H235.836V30.2156H235.756C235.624 30.5671 235.442 30.892 235.207 31.1903C234.973 31.4851 234.682 31.723 234.334 31.9041C233.986 32.0817 233.579 32.1705 233.114 32.1705ZM233.172 31.5685C233.726 31.5685 234.2 31.4105 234.595 31.0945C234.992 30.7749 235.296 30.3416 235.506 29.7947C235.719 29.2443 235.825 28.6211 235.825 27.9251C235.825 27.229 235.719 26.6094 235.506 26.0661C235.296 25.5192 234.992 25.0895 234.595 24.777C234.2 24.4609 233.726 24.3029 233.172 24.3029C232.611 24.3029 232.13 24.4627 231.729 24.7823C231.331 25.0984 231.026 25.5298 230.813 26.0767C230.603 26.6236 230.498 27.2397 230.498 27.9251C230.498 28.6104 230.603 29.2283 230.813 29.7788C231.026 30.3292 231.331 30.766 231.729 31.0891C232.13 31.4087 232.611 31.5685 233.172 31.5685Z" fill="white"/>
</svg>
